<?xml version="1.0" encoding="UTF-8"?>
<svg id="Layer_2" data-name="Layer 2" xmlns="http://www.w3.org/2000/svg" viewBox="0 0 513.66 178.99">
  <defs>
    <style>
      .cls-1 {
        fill: #1442ed;
      }
    </style>
  </defs>
  <g id="Layer_1-2" data-name="Layer 1">
    <g>
      <path d="M228.15,100.8V35.38h15.65l.5,4.74c1.55-.81,3.23-1.51,5.05-2.12,1.82-.61,3.74-1.13,5.75-1.57,2.02-.44,4.07-.79,6.16-1.06,2.08-.27,4.14-.4,6.16-.4,3.9,0,7.03.52,9.39,1.57,2.36,1.04,4.05,2.51,5.1,4.39,1.04,1.88,1.57,4.11,1.57,6.66v23.62c0,2.49-.62,4.68-1.87,6.56-1.25,1.88-3.05,3.33-5.4,4.34-2.36,1.01-5.28,1.51-8.78,1.51-3.1,0-6.02-.24-8.78-.71-2.76-.47-5.22-1.04-7.37-1.72-2.16-.67-4.48-1.48-6.97-2.42v22.01h-16.15ZM244.3,70.11h23.22v-21.1h-23.22v21.1Z"/>
      <path d="M306.69,83.63c-3.9,0-7.05-.52-9.44-1.56-2.39-1.04-4.11-2.51-5.15-4.39-1.05-1.88-1.57-4.04-1.57-6.46v-23.62c0-2.56.5-4.78,1.51-6.66,1.01-1.88,2.68-3.35,5-4.39,2.32-1.04,5.54-1.57,9.64-1.57,2.02,0,4.05.14,6.11.4,2.05.27,4.07.62,6.06,1.06,1.98.44,3.9.96,5.75,1.57,1.85.61,3.55,1.31,5.1,2.12l.5-4.74h15.55v47.85h-15.55l-.5-4.44c.07,0-.52.24-1.77.71-1.25.47-2.98,1.04-5.2,1.72-2.22.67-4.69,1.25-7.42,1.72-2.73.47-5.6.71-8.63.71ZM306.49,70.11h23.22v-21.1h-23.22v21.1Z"/>
      <path d="M354.55,100.8V35.38h15.65l.5,4.74c1.55-.81,3.23-1.51,5.05-2.12,1.82-.61,3.74-1.13,5.75-1.57,2.02-.44,4.07-.79,6.16-1.06,2.08-.27,4.14-.4,6.16-.4,3.9,0,7.03.52,9.39,1.57,2.36,1.04,4.05,2.51,5.1,4.39,1.04,1.88,1.57,4.11,1.57,6.66v23.62c0,2.49-.62,4.68-1.87,6.56-1.25,1.88-3.05,3.33-5.4,4.34-2.36,1.01-5.28,1.51-8.78,1.51-3.1,0-6.02-.24-8.78-.71-2.76-.47-5.22-1.04-7.37-1.72-2.16-.67-4.48-1.48-6.97-2.42v22.01h-16.15ZM370.7,70.11h23.22v-21.1h-23.22v21.1Z"/>
      <path d="M432.18,83.23c-4.78,0-8.52-1.09-11.21-3.28-2.69-2.19-4.04-5.37-4.04-9.54v-21.4c0-2.62.55-4.95,1.67-6.97,1.11-2.02,2.78-3.63,5-4.85,2.22-1.21,5.01-1.82,8.38-1.82h23.83c5.11,0,8.83,1.2,11.16,3.58,2.32,2.39,3.48,5.54,3.48,9.44v15.14h-37.56v7.67h21.71v-3.33h15.85v3.53c0,3.77-1.11,6.68-3.33,8.73-2.22,2.05-5.89,3.08-11,3.08h-23.93ZM454.6,47.39h-21.71v8.08h21.71v-8.08Z"/>
      <path d="M478.32,83.23v-47.85h15.65l.5,5.75c.67-.61,1.85-1.38,3.53-2.32,1.68-.94,3.84-1.82,6.46-2.62,2.63-.81,5.69-1.21,9.19-1.21l-1.41,14.03h-17.77v34.22h-16.15Z"/>
      <path d="M243.49,159.25c-3.9,0-7.05-.52-9.44-1.57-2.39-1.04-4.11-2.51-5.15-4.39-1.05-1.88-1.56-4.04-1.56-6.46v-23.62c0-2.56.5-4.78,1.51-6.66,1.01-1.88,2.68-3.35,5-4.39,2.32-1.04,5.54-1.57,9.64-1.57,2.02,0,4.05.14,6.11.4,2.05.27,4.07.62,6.06,1.06,1.98.44,3.9.96,5.75,1.57,1.85.61,3.55,1.31,5.1,2.12v-25.34h16.05v68.45h-15.55l-.5-4.44c.07,0-.52.24-1.77.71-1.25.47-2.98,1.04-5.2,1.72-2.22.67-4.69,1.25-7.42,1.72-2.73.47-5.6.71-8.63.71ZM243.29,145.72h23.22v-21.1h-23.22v21.1Z"/>
      <path d="M304.47,158.85c-2.16,0-4.31-.44-6.46-1.31-2.15-.87-3.92-2.24-5.3-4.09-1.38-1.85-2.07-4.15-2.07-6.92v-21.81c0-4.64,1.36-8.09,4.09-10.35,2.73-2.25,6.28-3.38,10.65-3.38h24.43c5.38,0,9.25,1.23,11.61,3.68,2.36,2.46,3.53,5.84,3.53,10.15v21.3c0,3.7-1.11,6.75-3.33,9.14-2.22,2.39-6.19,3.58-11.91,3.58h-25.24ZM306.59,146.03h22.51v-21.71h-22.51v21.71Z"/>
      <path d="M365.05,158.85c-2.02,0-4.02-.4-6.01-1.21-1.99-.81-3.63-2.09-4.95-3.84-1.31-1.75-1.97-3.97-1.97-6.66v-23.93c0-3.7,1.23-6.66,3.68-8.88,2.46-2.22,5.84-3.33,10.15-3.33h24.73c3.9,0,6.93.61,9.09,1.82,2.15,1.21,3.69,2.86,4.59,4.95.91,2.09,1.36,4.44,1.36,7.07v4.54h-15.95v-4.75h-21.91v21.1h21.91v-6.16h15.95v7.88c0,3.37-1.21,6.11-3.63,8.23-2.42,2.12-6.09,3.18-11,3.18h-26.05Z"/>
      <path d="M413.2,158.85v-68.45h16.15v36.75h2.32l15.95-16.15h20.8l-22.72,21.5v1.01l24.84,25.34h-21l-17.87-18.48h-2.32v18.48h-16.15Z"/>
    </g>
    <g>
      <path class="cls-1" d="M0,168.63V4.32C0,1.64,2.42-.4,5.07.07l73.56,12.89c2.89.51,4.99,3.01,4.99,5.94v51.62c0,6.27-5.66,11.02-11.83,9.94l-39.94-7c-1.59-.28-3.05.95-3.05,2.56v8.33c0,1.26.91,2.34,2.15,2.56l40.6,7.18c6.98,1.23,12.07,7.3,12.07,14.39v51.21c0,2.68-2.42,4.72-5.06,4.25l-46.7-8.18c-1.59-.28-3.05.95-3.05,2.56v15.27c0,2.68-2.42,4.72-5.07,4.25l-18.74-3.29c-2.89-.51-4.99-3.01-4.99-5.94Z"/>
      <path class="cls-1" d="M179.47,10.35v164.31c0,2.68-2.42,4.72-5.07,4.25l-74.98-13.14c-2.07-.36-3.57-2.16-3.57-4.25v-53.06c0-6.27,5.66-11.02,11.83-9.94l39.94,7c1.59.28,3.05-.95,3.05-2.56v-8.33c0-1.26-.91-2.34-2.15-2.56l-40.6-7.18c-6.98-1.23-12.07-7.3-12.07-14.39V19.28c0-2.68,2.42-4.72,5.06-4.25l46.7,8.18c1.59.28,3.05-.95,3.05-2.56V5.38c0-2.68,2.42-4.72,5.07-4.25l18.74,3.29c2.89.51,4.99,3.01,4.99,5.94Z"/>
    </g>
  </g>
</svg>