<?xml version="1.0" encoding="UTF-8"?>
<svg id="Layer_2" data-name="Layer 2" xmlns="http://www.w3.org/2000/svg" xmlns:xlink="http://www.w3.org/1999/xlink" viewBox="0 0 1400 1088.01">
  <defs>
    <style>
      .cls-1 {
        fill: none;
      }

      .cls-2 {
        fill: #1d1d93;
      }

      .cls-3 {
        fill: #fff;
      }

      .cls-4 {
        fill: #2d28bb;
      }

      .cls-5 {
        clip-path: url(#clippath);
      }
    </style>
    <clipPath id="clippath">
      <rect class="cls-1" width="1400" height="1088.01" rx="110" ry="110"/>
    </clipPath>
  </defs>
  <g id="Layer_1-2" data-name="Layer 1">
    <rect class="cls-4" width="1400" height="1088.01" rx="110" ry="110"/>
    <g class="cls-5">
      <path class="cls-2" d="M1621.06-73.3v-7.87h-272.38c-12.98,0-23.5-10.52-23.5-23.5v-272.38h-7.87V-104.68c0,12.98-10.52,23.5-23.5,23.5h-255.75c-12.98,0-23.5-10.52-23.5-23.5v-272.38h-7.87V-104.68c0,12.98-10.52,23.5-23.5,23.5h-255.74c-12.98,0-23.5-10.52-23.5-23.5v-272.38h-7.88V-104.68c0,12.98-10.52,23.5-23.5,23.5h-255.74c-12.98,0-23.5-10.52-23.5-23.5v-272.38h-7.84V-104.68c0,12.98-10.52,23.5-23.5,23.5H106.19c-12.98,0-23.5-10.52-23.5-23.5v-272.38h-7.84V-104.68c0,12.98-10.52,23.5-23.5,23.5H-221.06v7.87H51.35c12.98,0,23.5,10.52,23.5,23.5v255.74c0,12.98-10.52,23.5-23.5,23.5H-221.06v7.88H51.35c12.98,0,23.5,10.52,23.5,23.5v255.74c0,12.98-10.52,23.5-23.5,23.5H-221.06v7.88H51.35c12.98,0,23.5,10.52,23.5,23.5v255.74c0,12.98-10.52,23.5-23.5,23.5H-221.06v7.88H51.35c12.98,0,23.5,10.52,23.5,23.5v255.74c0,12.98-10.52,23.5-23.5,23.5H-221.06v7.83H51.35c12.98,0,23.5,10.52,23.5,23.5v272.42h7.84v-272.42c0-12.98,10.52-23.5,23.5-23.5h255.78c12.98,0,23.5,10.52,23.5,23.5v272.42h7.84v-272.42c0-12.98,10.52-23.5,23.5-23.5h255.74c12.98,0,23.5,10.52,23.5,23.5v272.42h7.88v-272.42c0-12.98,10.52-23.5,23.5-23.5h255.74c12.98,0,23.5,10.52,23.5,23.5v272.42h7.87v-272.42c0-12.98,10.52-23.5,23.5-23.5h255.75c12.98,0,23.5,10.52,23.5,23.5v272.42h7.87v-272.42c0-12.98,10.52-23.5,23.5-23.5h272.38v-7.83h-272.38c-12.98,0-23.5-10.52-23.5-23.5v-255.74c0-12.98,10.52-23.5,23.5-23.5h272.38v-7.88h-272.38c-12.98,0-23.5-10.52-23.5-23.5v-255.74c0-12.98,10.52-23.5,23.5-23.5h272.38v-7.88h-272.38c-12.98,0-23.5-10.52-23.5-23.5v-255.74c0-12.98,10.52-23.5,23.5-23.5h272.38v-7.88h-272.38c-12.98,0-23.5-10.52-23.5-23.5V-49.8c0-12.98,10.52-23.5,23.5-23.5h272.38ZM106.19-73.3h255.78c12.98,0,23.5,10.52,23.5,23.5v255.74c0,12.98-10.52,23.5-23.5,23.5H106.19c-12.98,0-23.5-10.52-23.5-23.5V-49.8c0-12.98,10.52-23.5,23.5-23.5ZM106.19,237.32h255.78c12.98,0,23.5,10.52,23.5,23.5v255.74c0,12.98-10.52,23.5-23.5,23.5H106.19c-12.98,0-23.5-10.52-23.5-23.5v-255.74c0-12.98,10.52-23.5,23.5-23.5ZM106.19,547.95h255.78c12.98,0,23.5,10.52,23.5,23.5v255.74c0,12.98-10.52,23.5-23.5,23.5H106.19c-12.98,0-23.5-10.52-23.5-23.5v-255.74c0-12.98,10.52-23.5,23.5-23.5ZM82.69,1137.81v-255.74c0-12.98,10.52-23.5,23.5-23.5h255.78c12.98,0,23.5,10.52,23.5,23.5v255.74c0,12.98-10.52,23.5-23.5,23.5H106.19c-12.98,0-23.5-10.52-23.5-23.5ZM672.56,1161.31h-255.74c-12.98,0-23.5-10.52-23.5-23.5v-255.74c0-12.98,10.52-23.5,23.5-23.5h255.74c12.98,0,23.5,10.52,23.5,23.5v255.74c0,12.98-10.52,23.5-23.5,23.5ZM672.56,850.69h-255.74c-12.98,0-23.5-10.52-23.5-23.5v-255.74c0-12.98,10.52-23.5,23.5-23.5h255.74c12.98,0,23.5,10.52,23.5,23.5v255.74c0,12.98-10.52,23.5-23.5,23.5ZM672.56,540.06h-255.74c-12.98,0-23.5-10.52-23.5-23.5v-255.74c0-12.98,10.52-23.5,23.5-23.5h255.74c12.98,0,23.5,10.52,23.5,23.5v255.74c0,12.98-10.52,23.5-23.5,23.5ZM672.56,229.44h-255.74c-12.98,0-23.5-10.52-23.5-23.5V-49.8c0-12.98,10.52-23.5,23.5-23.5h255.74c12.98,0,23.5,10.52,23.5,23.5v255.74c0,12.98-10.52,23.5-23.5,23.5ZM983.18,1161.31h-255.74c-12.98,0-23.5-10.52-23.5-23.5v-255.74c0-12.98,10.52-23.5,23.5-23.5h255.74c12.98,0,23.5,10.52,23.5,23.5v255.74c0,12.98-10.52,23.5-23.5,23.5ZM983.18,850.69h-255.74c-12.98,0-23.5-10.52-23.5-23.5v-255.74c0-12.98,10.52-23.5,23.5-23.5h255.74c12.98,0,23.5,10.52,23.5,23.5v255.74c0,12.98-10.52,23.5-23.5,23.5ZM983.18,540.06h-255.74c-12.98,0-23.5-10.52-23.5-23.5v-255.74c0-12.98,10.52-23.5,23.5-23.5h255.74c12.98,0,23.5,10.52,23.5,23.5v255.74c0,12.98-10.52,23.5-23.5,23.5ZM983.18,229.44h-255.74c-12.98,0-23.5-10.52-23.5-23.5V-49.8c0-12.98,10.52-23.5,23.5-23.5h255.74c12.98,0,23.5,10.52,23.5,23.5v255.74c0,12.98-10.52,23.5-23.5,23.5ZM1293.81,1161.31h-255.75c-12.98,0-23.5-10.52-23.5-23.5v-255.74c0-12.98,10.52-23.5,23.5-23.5h255.75c12.98,0,23.5,10.52,23.5,23.5v255.74c0,12.98-10.52,23.5-23.5,23.5ZM1293.81,850.69h-255.75c-12.98,0-23.5-10.52-23.5-23.5v-255.74c0-12.98,10.52-23.5,23.5-23.5h255.75c12.98,0,23.5,10.52,23.5,23.5v255.74c0,12.98-10.52,23.5-23.5,23.5ZM1293.81,540.06h-255.75c-12.98,0-23.5-10.52-23.5-23.5v-255.74c0-12.98,10.52-23.5,23.5-23.5h255.75c12.98,0,23.5,10.52,23.5,23.5v255.74c0,12.98-10.52,23.5-23.5,23.5ZM1293.81,229.44h-255.75c-12.98,0-23.5-10.52-23.5-23.5V-49.8c0-12.98,10.52-23.5,23.5-23.5h255.75c12.98,0,23.5,10.52,23.5,23.5v255.74c0,12.98-10.52,23.5-23.5,23.5Z"/>
    </g>
    <g>
      <g>
        <path class="cls-3" d="M166.54,437.96v-154.01c0-71.58-1.37-117.33-2.51-139.14-.37-7.01,5.23-12.86,12.25-12.86h117.76c7.05,0,12.66,5.91,12.24,12.95-1.29,21.84-3,67.57-3,139.06v62.7c0,11.68,14.89,16.86,21.96,7.58,25.66-33.66,39.63-74.21,39.63-115.62,0-30.17-7.65-60.33-22.32-88.65-4.26-8.22,1.55-18.02,10.81-18.02h128.37c6.25,0,11.54,4.68,12.21,10.89.91,8.47,1.46,17.13,1.46,26.45,0,72.63-34.81,136.07-115.98,201.52-9.01,7.27-3.93,21.82,7.65,21.82h6.62c44.64,0,73.46,27.34,86.46,83.34l23.05,98.96c1.79,7.69-4.05,15.05-11.95,15.05h-119.5c-6.25,0-11.47-4.68-12.18-10.88-1.45-12.78-5.2-35.16-13.34-73.12-11.3-52.67-18.08-67.34-36.73-67.34h-6.22v5.34c0,66.75,1.7,111.41,2.99,133.05.42,7.04-5.19,12.95-12.24,12.95h-117.75c-7.02,0-12.62-5.86-12.25-12.86,1.14-21.81,2.51-67.56,2.51-139.14Z"/>
        <path class="cls-3" d="M536.7,437.96v-154.01c0-72.42-1.4-118.4-2.55-139.9-.36-6.74,4.78-12.48,11.51-12.86,40.76-2.28,97.71-3.92,123.26-3.92,137.31,0,199.47,46.67,199.47,128.01,0,59.81-33.83,102.33-89.84,130.81-10.05,5.11-8.44,20.01,2.5,22.74,42.85,10.71,61.32,36.44,70.96,77.79l20.75,88.26c1.81,7.7-4.03,15.07-11.94,15.07h-119.28c-6.38,0-11.58-4.89-12.21-11.24-.86-8.64-2.53-18.23-4.47-28.76l-6.22-31.34c-11.3-56.67-18.08-72.67-37.86-72.67h-7.91v2c0,65.85,1.35,108.28,2.48,129.12.38,7.02-5.21,12.88-12.25,12.88h-116.67c-7.02,0-12.62-5.84-12.25-12.85,1.14-21.8,2.51-67.56,2.51-139.16ZM729.38,284.62c0-41.25-12.04-76.05-37.01-99.2-7.84-7.27-20.63-1.63-20.63,9.06v178.89c0,10.57,12.63,16.35,20.43,9.21,23.41-21.42,37.21-53.64,37.21-97.96Z"/>
        <path class="cls-3" d="M907.97,479.97c.31-50.28,0-196.01,0-196.01,0-71.55-1.37-117.29-2.51-139.11-.37-7.01,5.22-12.89,12.25-12.89h117.26c7.02,0,12.61,5.88,12.25,12.89-1.14,21.82-2.51,67.57-2.51,139.11v186.01c0,19.34,6.22,26.67,14.69,26.67,5.6,0,12.41-3.71,18.67-9.44,12.03-10.99,18.62-26.72,18.62-43.01v-160.23c0-71.55-1.37-117.29-2.51-139.11-.37-7.01,5.22-12.89,12.25-12.89h117.26c7.02,0,12.61,5.88,12.25,12.89-1.14,21.82-2.51,67.57-2.51,139.11v196.67c0,45.22-.66,56.8-.31,78.1.16,9.43-3.61,18.67-16.91,21.71-13.3,3.05-45.55,9.33-64.59,11.85-10.41,1.38-17.67-5.98-13.46-27.8,5.04-26.11-58.45-11.8-97.57,2.37-40.44,14.65-55.8,24.89-77.89,24.89-60.18,0-55.11-54.52-54.75-111.79Z"/>
      </g>
      <path class="cls-3" d="M1227.34,723.29l-27.7,1.08c-6.19.24-9.82-4.73-8.29-11.1.12-.52.35-1.02.61-1.5l23.39-41.78c2.22-7.39-2.39-12.99-9.64-11.71l-58.85,9.5c-6.06,1.06-9.91,7.21-13.07,12.69-6.61,11.45-9.75,16.42-17.75,28.24-3.94,5.83-11.22,13.03-35.18,14.02l-11.56.82c-4.45.19-6.87.48-13.77,11.12-4.96,7.65-9.32,15.19-10.65,17.38-6.1,10.03,2.12,11.31,8.3,11.07,0,0,12.65-.12,26.9.74,6.7.4,9.99,4.28,7.09,10.33-10.46,21.86-28.95,61.52-65.66,98.73-44.6,45.2-78.78,35.51-87.72,26.79-9.75-9.52-9.4-22.47,5.64-48.91,47.52-83.54,137.6-170.92,167-238.38,18.69-42.89-37.5-31.63-72.02-13.35-53.84,28.51-118.37,91.3-163.13,236-9.17,13.56-20.63,25.43-31.01,37.32-40.09,45.9-91.94,64.59-56.96,6.45,12.94-21.51,85.91-119.4,106.16-149.1,7.61-11.17-30.39-12.2-37.62-4.3-4.99,5.45-9.17,11.47-13.63,13-6.19,2.13-10.37-2.24-11.95-5.72-12.59-27.78-30.51-30.13-60.39-25.44-17.95,2.82-53.56,20.19-85.58,46.87-21.81,18.17-59.28,53.86-108.02,93.77-17.94,14.69-50.4,42.15-66.54,48.1-7.29,2.69-14.61,3.01-19.25-2.01-1.67-1.81-3.33-7.22-2.28-13.65,2.07-12.67,3.03-19.87,101.42-103.3,5.95-5.05,6.43-21.57-6.87-24.84-2.55-.63-30.79-5.46-35.95-16.55s5.89-26.65,12.83-40.14c7.74-15.06.76-17.21-13.31-17.58-14.39-.37-41.53-.46-49.65,9.18-11.57,13.74-146.87,188.03-175.85,186.57-39.21-1.98-53.85-77.89-28.06-163.63,8.9-29.59,18.54-46.57,27.17-46.57,30.79,0,.25,84.92,10.89,96.33,2.82,3.02,7.8,3.01,12.15,2.04,26.47-5.91,42.4-9.42,68.63-17.19,6.86-2.03,13.38-8.44,13.43-15.29.5-65.11-22.43-102.88-78.77-102.88-71.12,0-139.7,63.97-166.8,154.05-28.28,94-3.7,179.21,68.24,179.21,20.91,0,55.51-14.01,87.25-41.44,52.89-45.71,95.88-115.65,113.16-132.71,3-2.96,4.94-5.34,7.94-7.39,3.1-2.12,13.7-4.23,18.57-.2,4.8,3.98,14.7,13.17,6.35,21.34-10.07,9.85-35.33,25.47-54.47,51.27-29.7,40.03-17.56,68.53-10.7,76.65,14.55,17.22,38.87,17.13,44.06,17.28,23.01.66,50.6-16.91,59.26-23.16,10.46-7.55,90.95-73.73,91.71-74.33-5.95,9.8-9.39,16.46-12.38,28.57-8.24,33.36,3.37,65.49,39.95,65.49,18.26,0,49.85-4.87,71.18-22.69,8.1-6.77,11.18.8,15.77,8.33,18.99,31.11,80,8.48,112.37-15.37,3.94-2.9,6.15-.06,4.08,4.87-5.11,12.16-23.99,45.54-36.13,74.94-4.66,11.29-2.06,17.57,7.73,18.52s32.01,1.89,50.45-.4c6.15-.76,14.23-3.1,18.79-11.17,6.36-11.26,11.79-26.9,20.49-45.22,4.13-8.69,7.84-19.33,19.56-13.75,4.01,1.91,26.78,7.99,59.89,1.36,18.78-3.76,35.63-11.02,46.9-19.16,5.83-4.21,13.48-4,17.93.71,11.83,12.52,27.09,17.73,48.08,17.73,37.8,0,71.28-24.13,92.86-48.33,2.66-2.98,4.04-6.68,3.94-10l-.2-6.63c-.2-6.36-6.01-10.05-12.58-7.12-43.47,19.4-54.23,9.8-43.38-14.58l40.63-78.26c2.16-7.17,9.77-12.71,16.22-11.79l18.8,2.67c5.14.73,11.27-2.69,14.57-8.13l11.41-18.82c4.77-7.86,1.46-15.85-6.43-15.54ZM1031.9,673.2c-3.21,8.41-15.14,28.44-34.88,55.59-40.32,55.46-55.01,73.2-56.93,67.96-3.39-9.26,23.89-59.89,40.99-84.84,30.79-44.93,55.39-50.69,50.82-38.71ZM788.87,807.77c-9.45,17.91-36.27,45.79-55.79,60.36-15.48,11.55-64.66,33.92-60.48-6.95,1.4-13.71,6.78-26.22,22.66-50.13,15.88-23.9,33.82-42.11,57.64-57.72,14.68-9.62,39.01-13.95,44.71,1.55,5.53,15.03.68,35.03-8.75,52.89Z"/>
    </g>
  </g>
</svg>