<?xml version="1.0" encoding="UTF-8"?>
<svg id="Layer_2" data-name="Layer 2" xmlns="http://www.w3.org/2000/svg" viewBox="0 0 179.47 177.43">
  <g id="Layer_1-2" data-name="Layer 1">
    <g>
      <path d="M0,164.4V8.43C0,3.19,4.72-.78,9.88.13l65.34,11.45c4.85.85,8.39,5.06,8.39,9.99v43.28c0,8.82-7.96,15.51-16.65,13.98l-30.3-5.31c-4.11-.72-7.87,2.44-7.87,6.61h0c0,3.26,2.34,6.04,5.54,6.61l33.82,5.98c8.94,1.58,15.46,9.35,15.46,18.43v42.88c0,5.24-4.72,9.2-9.88,8.3l-37.07-6.49c-4.11-.72-7.87,2.44-7.87,6.61v5.49c0,5.24-4.72,9.2-9.88,8.3l-10.53-1.85c-4.85-.85-8.39-5.06-8.39-9.99Z"/>
      <path d="M179.47,13.02v155.97c0,5.24-4.72,9.2-9.88,8.3l-66.76-11.7c-4.03-.71-6.97-4.21-6.97-8.3v-44.72c0-8.82,7.96-15.51,16.65-13.98l30.3,5.31c4.11.72,7.87-2.44,7.87-6.61h0c0-3.26-2.34-6.04-5.54-6.61l-33.82-5.98c-8.94-1.58-15.46-9.35-15.46-18.43V23.39c0-5.24,4.72-9.2,9.88-8.3l37.07,6.49c4.11.72,7.87-2.44,7.87-6.61v-5.49c0-5.24,4.72-9.2,9.88-8.3l10.53,1.85c4.85.85,8.39,5.06,8.39,9.99Z"/>
    </g>
  </g>
</svg>