<?xml version="1.0" encoding="UTF-8"?>
<svg id="Layer_2" data-name="Layer 2" xmlns="http://www.w3.org/2000/svg" viewBox="0 0 120 120">
  <defs>
    <style>
      .cls-1 {
        fill: #fff;
      }

      .cls-2 {
        fill: #2d28bb;
      }
    </style>
  </defs>
  <g id="Layer_1-2" data-name="Layer 1">
    <rect class="cls-2" width="120" height="120" rx="27.5" ry="27.5"/>
    <path class="cls-1" d="M30.68,73.46v-26.93c0-13.41-.27-21.63-.48-25.08-.05-.81.6-1.5,1.42-1.5h22.13c.82,0,1.47.69,1.42,1.51-.23,3.45-.57,11.68-.57,25.07v13.01c0,1.32,1.64,1.92,2.51.92,5.33-6.18,8.26-13.93,8.26-21.86,0-5.64-1.53-11.29-4.46-16.54-.53-.95.14-2.12,1.23-2.12h24.32c.71,0,1.32.53,1.41,1.23.2,1.69.33,3.42.33,5.29,0,13.17-6.55,24.61-21.89,36.51-1.07.83-.5,2.55.86,2.55h3.25c7.81,0,12.85,4.78,15.12,14.57l4.24,18.19c.21.89-.47,1.74-1.38,1.74h-22.47c-.73,0-1.34-.56-1.41-1.29-.2-2.1-.83-6.11-2.4-13.4-1.98-9.21-3.16-11.77-6.42-11.77h-1.09v.93c0,12.52.34,20.59.57,24.02.05.82-.6,1.51-1.42,1.51h-22.13c-.82,0-1.47-.69-1.42-1.5.21-3.45.48-11.67.48-25.08Z"/>
  </g>
</svg>