<?xml version="1.0" encoding="UTF-8"?>
<svg id="Layer_2" data-name="Layer 2" xmlns="http://www.w3.org/2000/svg" viewBox="0 0 1612.68 390.62">
  <defs>
    <style>
      .cls-1 {
        fill: #2d28bb;
      }
    </style>
  </defs>
  <g id="Layer_1-2" data-name="Layer 1">
    <g>
      <g>
        <path class="cls-1" d="M1.63,239.73v-86.23C1.63,113.42.75,87.8.01,75.59c-.24-3.93,3.37-7.2,7.9-7.2h75.94c4.55,0,8.16,3.31,7.9,7.25-.83,12.23-1.93,37.83-1.93,77.86v35.11c0,6.54,9.6,9.44,14.16,4.24,16.55-18.85,25.56-41.56,25.56-64.74,0-16.89-4.93-33.78-14.39-49.64-2.75-4.6,1-10.09,6.97-10.09h82.78c4.03,0,7.44,2.62,7.88,6.1.59,4.74.94,9.59.94,14.81,0,40.67-22.45,76.19-74.8,112.84-5.81,4.07-2.53,12.22,4.93,12.22h4.27c28.79,0,47.37,15.31,55.76,46.66l14.86,55.41c1.16,4.31-2.61,8.43-7.7,8.43h-77.07c-4.03,0-7.4-2.62-7.86-6.09-.94-7.16-3.35-19.69-8.6-40.94-7.29-29.49-11.66-37.7-23.69-37.7h-4.01v2.99c0,37.38,1.1,62.38,1.93,74.5.27,3.94-3.35,7.25-7.9,7.25H7.91c-4.53,0-8.14-3.28-7.9-7.2.74-12.21,1.62-37.83,1.62-77.91Z"/>
        <path class="cls-1" d="M240.34,239.73v-86.23c0-40.55-.9-66.3-1.64-78.33-.23-3.77,3.08-6.99,7.42-7.2,26.28-1.28,63.02-2.19,79.49-2.19,88.55,0,128.63,26.13,128.63,71.67,0,33.49-21.82,57.3-57.94,73.24-6.48,2.86-5.44,11.2,1.61,12.73,27.63,6,39.54,20.4,45.76,43.56l13.38,49.42c1.17,4.31-2.6,8.44-7.7,8.44h-76.92c-4.12,0-7.47-2.74-7.87-6.29-.55-4.84-1.63-10.21-2.88-16.11l-4.01-17.55c-7.29-31.73-11.66-40.69-24.42-40.69h-5.1v1.12c0,36.87.87,60.63,1.6,72.3.25,3.93-3.36,7.21-7.9,7.21h-75.24c-4.53,0-8.14-3.27-7.9-7.2.74-12.21,1.62-37.83,1.62-77.92ZM364.6,153.87c0-23.1-7.77-42.58-23.87-55.54-5.06-4.07-13.3-.92-13.3,5.07v100.17c0,5.92,8.14,9.15,13.17,5.16,15.09-12,24-30.03,24-54.85Z"/>
        <path class="cls-1" d="M479.78,263.25c.2-28.16,0-109.75,0-109.75,0-40.06-.88-65.68-1.62-77.9-.24-3.93,3.37-7.22,7.9-7.22h75.62c4.53,0,8.13,3.29,7.9,7.22-.73,12.22-1.62,37.83-1.62,77.9v104.15c0,10.83,4.01,14.93,9.48,14.93,3.61,0,8-2.08,12.04-5.28,7.76-6.15,12.01-14.96,12.01-24.08v-89.72c0-40.06-.88-65.68-1.62-77.9-.24-3.93,3.37-7.22,7.9-7.22h75.62c4.53,0,8.13,3.29,7.9,7.22-.74,12.22-1.62,37.83-1.62,77.89v110.12c0,25.32-.42,37.14-.2,49.07.1,5.28-2.25,10.88-10.91,12.16-9.34,1.38-27.31,1.39-40.51,1.3-6.76-.05-12.59-1.91-11.11-15.2,1.66-14.88-34.44-3.36-59.67,4.58-26.08,8.2-37.96,10.32-52.2,10.32-38.81,0-35.54-30.53-35.31-62.59Z"/>
      </g>
      <g>
        <path class="cls-1" d="M1037.65,167.24c3.16,10.3,4.36,21.79,6.07,32.44,10.24-24.53,43.31-58.13,68.22-38.45,5.07,4.01,8.26,16.55,7.48,24.7-1.35,14.09-14.91,31.73-28.19,25.88-6.05-2.67-13.69-7.26-18.06-8.11-5.09-1-14.46,7.54-18.09,12.66-41.18,58.1-25.31,114.41-53.71,125.26-9.84,3.76-31.27,2.02-33.35-7.82l-5.7-27.03c-50.47,48.7-151.77,97.62-212.22,46.23-66.24-56.32-23.67-172.19,21.82-234.55,41.09-56.32,119.23-125.78,193.33-101.5,21.81,7.14,35.78,24.75,37.3,47.62,1.72,25.79-6.9,51.2-24.23,70.42-11.36,12.6-33.03,18.47-46.92,9.73-16.03-10.09,44.6-64.78,18.23-90.6-4.24-4.15-18.09-4.45-24.58-2.08-33.5,12.27-55.24,37.86-75.68,66.12-30.69,42.42-55.02,89.28-55.53,142.9-.15,16.31,6.46,35.2,16.06,44.59,45.44,44.5,158.55-30.67,167.18-63.84l20.86-80.25c3.13-12.03,35.25-8.78,39.69,5.68Z"/>
        <path class="cls-1" d="M1460.08,158.81c-6.85-3.01-15.87-2.38-19.57,6.2-1.83,4.24-6.98,9.22-11.19,11.12-20.11,9.06-38.66,10.57-61.9,17.16-.82.23-1.41.97-1.46,1.82l-9.53,166.46c0,.06,0,.13-.02.19-2.47,18.27-29.37,29.42-49.65,28.83-5.48-.16-9.74-4.84-9.57-10.32.67-21.86,2.36-77.37,2.81-91.98.05-1.56-1.63-2.57-3-1.8l-33.82,19.19c-7.55,4.29-26.94,1.08-33.04-4.16-5.84-5.02-10.78-16.39-15.43-28.18-.53-1.34-2.25-1.7-3.27-.69-24.27,24.05-61.98,62.81-99.06,38.36-44.37-29.25-2.38-125.64,58.47-165.73,19.39-12.78,48.33-16.19,70.07-11.1,21.97,5.14,15.32,38.01-6.91,34.09-6.18-1.09-12.3-2.04-18.01-.91-39.5,7.84-67.21,58.75-63.8,98.53,1.02,11.91,21.75,3.94,26.93-2.09,19.32-22.53,32.14-45.64,46.22-71.98,4.56-8.53,13.26-14.07,22.92-14.53,2.69-.13,5.46-.09,8.22.09,9.43.62,15.97,9.7,13.72,18.88l-11.39,46.46c-1.6,6.54,3.9,25.66,10.11,23.92,17.24-4.82,37.16-23.98,39.69-40.6,5.11-33.59,9.77-63.04,19.99-94.58C1341.56,91.53,1369.45-.33,1416.43,0c16.38.12,39.53,7.07,44.66,24.42,5.02,16.99,3.42,36.24-5.72,50.63-8.99,14.15-30.92,7.72-30.88-9.05l.04-18.04c0-3.82-4.79-11.43-7.83-12.42-18.3-5.96-38.26,89.75-42.57,114.98-.24,1.44,1.07,2.64,2.48,2.27l41.53-10.8c.61-.16,1.11-.61,1.35-1.19,14.16-34.19,32.93-17.26,55.56-30.49.41-.24.72-.62.88-1.06,7.21-20.01,13.93-40.51,23.49-59.18,7.53-14.71,41.74-9.03,44.7,7.72,2.35,13.29-2.64,28.02-6.17,45.07-.26,1.24.7,2.41,1.97,2.41l63.92-.05c8.45.26,10.41,14.85,7.72,18.56-12.75,17.59-53.79,8.46-85.76,18.01-.68.2-1.2.76-1.37,1.45l-25.1,102.7c-1.27,5.19,3.15,16.47,6.61,19.15,24.31,18.79,53.43-32.46,65.96-38.53.73-.35,3.06-.82,4.01.41,1.73,2.22,3.91,7.98,4.95,11.4.68,2.26.24,3.95-.04,4.88-15.6,52.29-82.97,82.36-117.23,56.03-30.72-23.6-10.21-97.86-2.34-138.29.18-.92-.31-1.83-1.17-2.21Z"/>
      </g>
    </g>
  </g>
</svg>