<?xml version="1.0" encoding="UTF-8"?>
<svg id="Layer_2" data-name="Layer 2" xmlns="http://www.w3.org/2000/svg" xmlns:xlink="http://www.w3.org/1999/xlink" viewBox="0 0 1936.5 797.78">
  <defs>
    <style>
      .cls-1 {
        fill: none;
      }

      .cls-2 {
        fill: #efefef;
      }

      .cls-3 {
        fill: #1d1d93;
      }

      .cls-4 {
        fill: #fff;
      }

      .cls-5 {
        fill: #2d28bb;
      }

      .cls-6 {
        clip-path: url(#clippath);
      }
    </style>
    <clipPath id="clippath">
      <rect class="cls-1" x="0" width="1936.5" height="797.78" rx="150" ry="150"/>
    </clipPath>
  </defs>
  <g id="Layer_1-2" data-name="Layer 1">
    <g>
      <rect class="cls-5" x="0" width="1936.5" height="797.78" rx="150" ry="150"/>
      <g class="cls-6">
        <g>
          <path class="cls-3" d="M825.84-100.27v-6.37h-220.25c-10.5,0-19-8.51-19-19v-220.25h-6.37V-125.64c0,10.5-8.51,19-19,19h-206.8c-10.5,0-19-8.51-19-19v-220.25h-6.37V-125.64c0,10.5-8.51,19-19,19H103.25c-10.5,0-19-8.51-19-19v-220.25h-6.38V-125.64c0,10.5-8.51,19-19,19h-206.79c-10.5,0-19-8.51-19-19v-220.25h-6.34V-125.64c0,10.5-8.51,19-19,19h-206.83c-10.5,0-19-8.51-19-19v-220.25h-6.34V-125.64c0,10.5-8.51,19-19,19h-220.28v6.37h220.28c10.5,0,19,8.51,19,19V125.53c0,10.5-8.51,19-19,19h-220.28v6.38h220.28c10.5,0,19,8.51,19,19v206.79c0,10.5-8.51,19-19,19h-220.28v6.38h220.28c10.5,0,19,8.51,19,19v206.79c0,10.5-8.51,19-19,19h-220.28v6.38h220.28c10.5,0,19,8.51,19,19v206.79c0,10.5-8.51,19-19,19h-220.28v6.33h220.28c10.5,0,19,8.51,19,19v220.28h6.34v-220.28c0-10.5,8.51-19,19-19h206.83c10.5,0,19,8.51,19,19v220.28h6.34v-220.28c0-10.5,8.51-19,19-19H58.86c10.5,0,19,8.51,19,19v220.28h6.38v-220.28c0-10.5,8.51-19,19-19h206.79c10.5,0,19,8.51,19,19v220.28h6.37v-220.28c0-10.5,8.51-19,19-19h206.8c10.5,0,19,8.51,19,19v220.28h6.37v-220.28c0-10.5,8.51-19,19-19h220.25v-6.33h-220.25c-10.5,0-19-8.51-19-19v-206.79c0-10.5,8.51-19,19-19h220.25v-6.38h-220.25c-10.5,0-19-8.51-19-19v-206.79c0-10.5,8.51-19,19-19h220.25v-6.38h-220.25c-10.5,0-19-8.51-19-19v-206.79c0-10.5,8.51-19,19-19h220.25v-6.38h-220.25c-10.5,0-19-8.51-19-19V-81.27c0-10.5,8.51-19,19-19h220.25ZM-399.1-100.27h206.83c10.5,0,19,8.51,19,19V125.53c0,10.5-8.51,19-19,19h-206.83c-10.5,0-19-8.51-19-19V-81.27c0-10.5,8.51-19,19-19ZM-399.1,150.9h206.83c10.5,0,19,8.51,19,19v206.79c0,10.5-8.51,19-19,19h-206.83c-10.5,0-19-8.51-19-19v-206.79c0-10.5,8.51-19,19-19ZM-399.1,402.08h206.83c10.5,0,19,8.51,19,19v206.79c0,10.5-8.51,19-19,19h-206.83c-10.5,0-19-8.51-19-19v-206.79c0-10.5,8.51-19,19-19ZM-418.11,879.05v-206.79c0-10.5,8.51-19,19-19h206.83c10.5,0,19,8.51,19,19v206.79c0,10.5-8.51,19-19,19h-206.83c-10.5,0-19-8.51-19-19ZM58.86,898.05h-206.79c-10.5,0-19-8.51-19-19v-206.79c0-10.5,8.51-19,19-19H58.86c10.5,0,19,8.51,19,19v206.79c0,10.5-8.51,19-19,19ZM58.86,646.88h-206.79c-10.5,0-19-8.51-19-19v-206.79c0-10.5,8.51-19,19-19H58.86c10.5,0,19,8.51,19,19v206.79c0,10.5-8.51,19-19,19ZM58.86,395.7h-206.79c-10.5,0-19-8.51-19-19v-206.79c0-10.5,8.51-19,19-19H58.86c10.5,0,19,8.51,19,19v206.79c0,10.5-8.51,19-19,19ZM58.86,144.53h-206.79c-10.5,0-19-8.51-19-19V-81.27c0-10.5,8.51-19,19-19H58.86c10.5,0,19,8.51,19,19V125.53c0,10.5-8.51,19-19,19ZM310.04,898.05H103.25c-10.5,0-19-8.51-19-19v-206.79c0-10.5,8.51-19,19-19h206.79c10.5,0,19,8.51,19,19v206.79c0,10.5-8.51,19-19,19ZM310.04,646.88H103.25c-10.5,0-19-8.51-19-19v-206.79c0-10.5,8.51-19,19-19h206.79c10.5,0,19,8.51,19,19v206.79c0,10.5-8.51,19-19,19ZM310.04,395.7H103.25c-10.5,0-19-8.51-19-19v-206.79c0-10.5,8.51-19,19-19h206.79c10.5,0,19,8.51,19,19v206.79c0,10.5-8.51,19-19,19ZM310.04,144.53H103.25c-10.5,0-19-8.51-19-19V-81.27c0-10.5,8.51-19,19-19h206.79c10.5,0,19,8.51,19,19V125.53c0,10.5-8.51,19-19,19ZM561.21,898.05h-206.8c-10.5,0-19-8.51-19-19v-206.79c0-10.5,8.51-19,19-19h206.8c10.5,0,19,8.51,19,19v206.79c0,10.5-8.51,19-19,19ZM561.21,646.88h-206.8c-10.5,0-19-8.51-19-19v-206.79c0-10.5,8.51-19,19-19h206.8c10.5,0,19,8.51,19,19v206.79c0,10.5-8.51,19-19,19ZM561.21,395.7h-206.8c-10.5,0-19-8.51-19-19v-206.79c0-10.5,8.51-19,19-19h206.8c10.5,0,19,8.51,19,19v206.79c0,10.5-8.51,19-19,19ZM561.21,144.53h-206.8c-10.5,0-19-8.51-19-19V-81.27c0-10.5,8.51-19,19-19h206.8c10.5,0,19,8.51,19,19V125.53c0,10.5-8.51,19-19,19Z"/>
          <path class="cls-3" d="M1830.51-100.27v-6.37h-220.25c-10.5,0-19-8.51-19-19v-220.25h-6.37V-125.64c0,10.5-8.51,19-19,19h-206.8c-10.5,0-19-8.51-19-19v-220.25h-6.37V-125.64c0,10.5-8.51,19-19,19h-206.79c-10.5,0-19-8.51-19-19v-220.25h-6.38V-125.64c0,10.5-8.51,19-19,19h-206.79c-10.5,0-19-8.51-19-19v-220.25h-6.34V-125.64c0,10.5-8.51,19-19,19h-206.83c-10.5,0-19-8.51-19-19v-220.25h-6.34V-125.64c0,10.5-8.51,19-19,19h-220.28v6.37h220.28c10.5,0,19,8.51,19,19V125.53c0,10.5-8.51,19-19,19h-220.28v6.38h220.28c10.5,0,19,8.51,19,19v206.79c0,10.5-8.51,19-19,19h-220.28v6.38h220.28c10.5,0,19,8.51,19,19v206.79c0,10.5-8.51,19-19,19h-220.28v6.38h220.28c10.5,0,19,8.51,19,19v206.79c0,10.5-8.51,19-19,19h-220.28v6.33h220.28c10.5,0,19,8.51,19,19v220.28h6.34v-220.28c0-10.5,8.51-19,19-19h206.83c10.5,0,19,8.51,19,19v220.28h6.34v-220.28c0-10.5,8.51-19,19-19h206.79c10.5,0,19,8.51,19,19v220.28h6.38v-220.28c0-10.5,8.51-19,19-19h206.79c10.5,0,19,8.51,19,19v220.28h6.37v-220.28c0-10.5,8.51-19,19-19h206.8c10.5,0,19,8.51,19,19v220.28h6.37v-220.28c0-10.5,8.51-19,19-19h220.25v-6.33h-220.25c-10.5,0-19-8.51-19-19v-206.79c0-10.5,8.51-19,19-19h220.25v-6.38h-220.25c-10.5,0-19-8.51-19-19v-206.79c0-10.5,8.51-19,19-19h220.25v-6.38h-220.25c-10.5,0-19-8.51-19-19v-206.79c0-10.5,8.51-19,19-19h220.25v-6.38h-220.25c-10.5,0-19-8.51-19-19V-81.27c0-10.5,8.51-19,19-19h220.25ZM605.57-100.27h206.83c10.5,0,19,8.51,19,19V125.53c0,10.5-8.51,19-19,19h-206.83c-10.5,0-19-8.51-19-19V-81.27c0-10.5,8.51-19,19-19ZM605.57,150.9h206.83c10.5,0,19,8.51,19,19v206.79c0,10.5-8.51,19-19,19h-206.83c-10.5,0-19-8.51-19-19v-206.79c0-10.5,8.51-19,19-19ZM605.57,402.08h206.83c10.5,0,19,8.51,19,19v206.79c0,10.5-8.51,19-19,19h-206.83c-10.5,0-19-8.51-19-19v-206.79c0-10.5,8.51-19,19-19ZM586.56,879.05v-206.79c0-10.5,8.51-19,19-19h206.83c10.5,0,19,8.51,19,19v206.79c0,10.5-8.51,19-19,19h-206.83c-10.5,0-19-8.51-19-19ZM1063.53,898.05h-206.79c-10.5,0-19-8.51-19-19v-206.79c0-10.5,8.51-19,19-19h206.79c10.5,0,19,8.51,19,19v206.79c0,10.5-8.51,19-19,19ZM1063.53,646.88h-206.79c-10.5,0-19-8.51-19-19v-206.79c0-10.5,8.51-19,19-19h206.79c10.5,0,19,8.51,19,19v206.79c0,10.5-8.51,19-19,19ZM1063.53,395.7h-206.79c-10.5,0-19-8.51-19-19v-206.79c0-10.5,8.51-19,19-19h206.79c10.5,0,19,8.51,19,19v206.79c0,10.5-8.51,19-19,19ZM1063.53,144.53h-206.79c-10.5,0-19-8.51-19-19V-81.27c0-10.5,8.51-19,19-19h206.79c10.5,0,19,8.51,19,19V125.53c0,10.5-8.51,19-19,19ZM1314.71,898.05h-206.79c-10.5,0-19-8.51-19-19v-206.79c0-10.5,8.51-19,19-19h206.79c10.5,0,19,8.51,19,19v206.79c0,10.5-8.51,19-19,19ZM1314.71,646.88h-206.79c-10.5,0-19-8.51-19-19v-206.79c0-10.5,8.51-19,19-19h206.79c10.5,0,19,8.51,19,19v206.79c0,10.5-8.51,19-19,19ZM1314.71,395.7h-206.79c-10.5,0-19-8.51-19-19v-206.79c0-10.5,8.51-19,19-19h206.79c10.5,0,19,8.51,19,19v206.79c0,10.5-8.51,19-19,19ZM1314.71,144.53h-206.79c-10.5,0-19-8.51-19-19V-81.27c0-10.5,8.51-19,19-19h206.79c10.5,0,19,8.51,19,19V125.53c0,10.5-8.51,19-19,19ZM1565.88,898.05h-206.8c-10.5,0-19-8.51-19-19v-206.79c0-10.5,8.51-19,19-19h206.8c10.5,0,19,8.51,19,19v206.79c0,10.5-8.51,19-19,19ZM1565.88,646.88h-206.8c-10.5,0-19-8.51-19-19v-206.79c0-10.5,8.51-19,19-19h206.8c10.5,0,19,8.51,19,19v206.79c0,10.5-8.51,19-19,19ZM1565.88,395.7h-206.8c-10.5,0-19-8.51-19-19v-206.79c0-10.5,8.51-19,19-19h206.8c10.5,0,19,8.51,19,19v206.79c0,10.5-8.51,19-19,19ZM1565.88,144.53h-206.8c-10.5,0-19-8.51-19-19V-81.27c0-10.5,8.51-19,19-19h206.8c10.5,0,19,8.51,19,19V125.53c0,10.5-8.51,19-19,19Z"/>
          <path class="cls-3" d="M2835.21-100.27v-6.37h-220.25c-10.5,0-19-8.51-19-19v-220.25h-6.37V-125.64c0,10.5-8.51,19-19,19h-206.8c-10.5,0-19-8.51-19-19v-220.25h-6.37V-125.64c0,10.5-8.51,19-19,19h-206.79c-10.5,0-19-8.51-19-19v-220.25h-6.38V-125.64c0,10.5-8.51,19-19,19h-206.79c-10.5,0-19-8.51-19-19v-220.25h-6.34V-125.64c0,10.5-8.51,19-19,19h-206.83c-10.5,0-19-8.51-19-19v-220.25h-6.34V-125.64c0,10.5-8.51,19-19,19h-220.28v6.37h220.28c10.5,0,19,8.51,19,19V125.53c0,10.5-8.51,19-19,19h-220.28v6.38h220.28c10.5,0,19,8.51,19,19v206.79c0,10.5-8.51,19-19,19h-220.28v6.38h220.28c10.5,0,19,8.51,19,19v206.79c0,10.5-8.51,19-19,19h-220.28v6.38h220.28c10.5,0,19,8.51,19,19v206.79c0,10.5-8.51,19-19,19h-220.28v6.33h220.28c10.5,0,19,8.51,19,19v220.28h6.34v-220.28c0-10.5,8.51-19,19-19h206.83c10.5,0,19,8.51,19,19v220.28h6.34v-220.28c0-10.5,8.51-19,19-19h206.79c10.5,0,19,8.51,19,19v220.28h6.38v-220.28c0-10.5,8.51-19,19-19h206.79c10.5,0,19,8.51,19,19v220.28h6.37v-220.28c0-10.5,8.51-19,19-19h206.8c10.5,0,19,8.51,19,19v220.28h6.37v-220.28c0-10.5,8.51-19,19-19h220.25v-6.33h-220.25c-10.5,0-19-8.51-19-19v-206.79c0-10.5,8.51-19,19-19h220.25v-6.38h-220.25c-10.5,0-19-8.51-19-19v-206.79c0-10.5,8.51-19,19-19h220.25v-6.38h-220.25c-10.5,0-19-8.51-19-19v-206.79c0-10.5,8.51-19,19-19h220.25v-6.38h-220.25c-10.5,0-19-8.51-19-19V-81.27c0-10.5,8.51-19,19-19h220.25ZM1610.27-100.27h206.83c10.5,0,19,8.51,19,19V125.53c0,10.5-8.51,19-19,19h-206.83c-10.5,0-19-8.51-19-19V-81.27c0-10.5,8.51-19,19-19ZM1610.27,150.9h206.83c10.5,0,19,8.51,19,19v206.79c0,10.5-8.51,19-19,19h-206.83c-10.5,0-19-8.51-19-19v-206.79c0-10.5,8.51-19,19-19ZM1610.27,402.08h206.83c10.5,0,19,8.51,19,19v206.79c0,10.5-8.51,19-19,19h-206.83c-10.5,0-19-8.51-19-19v-206.79c0-10.5,8.51-19,19-19ZM1591.27,879.05v-206.79c0-10.5,8.51-19,19-19h206.83c10.5,0,19,8.51,19,19v206.79c0,10.5-8.51,19-19,19h-206.83c-10.5,0-19-8.51-19-19ZM2068.24,898.05h-206.79c-10.5,0-19-8.51-19-19v-206.79c0-10.5,8.51-19,19-19h206.79c10.5,0,19,8.51,19,19v206.79c0,10.5-8.51,19-19,19ZM2068.24,646.88h-206.79c-10.5,0-19-8.51-19-19v-206.79c0-10.5,8.51-19,19-19h206.79c10.5,0,19,8.51,19,19v206.79c0,10.5-8.51,19-19,19ZM2068.24,395.7h-206.79c-10.5,0-19-8.51-19-19v-206.79c0-10.5,8.51-19,19-19h206.79c10.5,0,19,8.51,19,19v206.79c0,10.5-8.51,19-19,19ZM2068.24,144.53h-206.79c-10.5,0-19-8.51-19-19V-81.27c0-10.5,8.51-19,19-19h206.79c10.5,0,19,8.51,19,19V125.53c0,10.5-8.51,19-19,19ZM2319.41,898.05h-206.79c-10.5,0-19-8.51-19-19v-206.79c0-10.5,8.51-19,19-19h206.79c10.5,0,19,8.51,19,19v206.79c0,10.5-8.51,19-19,19ZM2319.41,646.88h-206.79c-10.5,0-19-8.51-19-19v-206.79c0-10.5,8.51-19,19-19h206.79c10.5,0,19,8.51,19,19v206.79c0,10.5-8.51,19-19,19ZM2319.41,395.7h-206.79c-10.5,0-19-8.51-19-19v-206.79c0-10.5,8.51-19,19-19h206.79c10.5,0,19,8.51,19,19v206.79c0,10.5-8.51,19-19,19ZM2319.41,144.53h-206.79c-10.5,0-19-8.51-19-19V-81.27c0-10.5,8.51-19,19-19h206.79c10.5,0,19,8.51,19,19V125.53c0,10.5-8.51,19-19,19ZM2570.59,898.05h-206.8c-10.5,0-19-8.51-19-19v-206.79c0-10.5,8.51-19,19-19h206.8c10.5,0,19,8.51,19,19v206.79c0,10.5-8.51,19-19,19ZM2570.59,646.88h-206.8c-10.5,0-19-8.51-19-19v-206.79c0-10.5,8.51-19,19-19h206.8c10.5,0,19,8.51,19,19v206.79c0,10.5-8.51,19-19,19ZM2570.59,395.7h-206.8c-10.5,0-19-8.51-19-19v-206.79c0-10.5,8.51-19,19-19h206.8c10.5,0,19,8.51,19,19v206.79c0,10.5-8.51,19-19,19ZM2570.59,144.53h-206.8c-10.5,0-19-8.51-19-19V-81.27c0-10.5,8.51-19,19-19h206.8c10.5,0,19,8.51,19,19V125.53c0,10.5-8.51,19-19,19Z"/>
        </g>
      </g>
    </g>
    <g>
      <g>
        <path class="cls-4" d="M121.12,445.66v-90.78c0-42.19-.93-69.16-1.7-82.02-.25-4.13,3.55-7.58,8.32-7.58h79.94c4.79,0,8.6,3.48,8.31,7.63-.88,12.87-2.03,39.83-2.03,81.97v36.96c0,6.88,10.11,9.94,14.91,4.47,17.42-19.84,26.9-43.75,26.9-68.15,0-17.78-5.19-35.56-15.15-52.25-2.89-4.84,1.05-10.62,7.34-10.62h87.15c4.24,0,7.84,2.76,8.29,6.42.62,4.99.99,10.1.99,15.59,0,42.81-23.63,80.21-78.74,118.78-6.12,4.28-2.67,12.86,5.2,12.86h4.49c30.31,0,49.87,16.11,58.69,49.12l15.65,58.33c1.22,4.53-2.75,8.87-8.11,8.87h-81.13c-4.24,0-7.79-2.76-8.27-6.41-.99-7.53-3.53-20.72-9.06-43.1-7.67-31.04-12.28-39.69-24.94-39.69h-4.21s-.02,0-.02.02v3.13c0,39.35,1.16,65.67,2.03,78.43.29,4.15-3.52,7.64-8.31,7.64h-79.94c-4.77,0-8.56-3.45-8.32-7.58.77-12.86,1.7-39.82,1.7-82.02Z"/>
        <path class="cls-4" d="M372.41,445.66v-90.78c0-42.69-.95-69.79-1.73-82.46-.24-3.97,3.24-7.36,7.82-7.58,27.67-1.35,66.34-2.31,83.68-2.31,93.22,0,135.42,27.51,135.42,75.45,0,35.26-22.97,60.32-60.99,77.11-6.82,3.01-5.73,11.79,1.69,13.41,29.09,6.31,41.63,21.48,48.17,45.85l14.09,52.03c1.23,4.54-2.74,8.88-8.11,8.88h-80.98c-4.33,0-7.86-2.88-8.29-6.62-.58-5.1-1.72-10.75-3.04-16.95l-4.22-18.47c-7.67-33.4-12.28-42.83-25.7-42.83h-5.37v1.18c0,38.82.91,63.82,1.68,76.11.26,4.14-3.54,7.59-8.32,7.59h-79.21c-4.77,0-8.57-3.44-8.32-7.57.77-12.85,1.7-39.82,1.7-82.03ZM503.23,355.27c0-24.32-8.18-44.83-25.12-58.47-5.32-4.28-14-.96-14,5.34v105.45c0,6.23,8.57,9.64,13.87,5.43,15.89-12.63,25.26-31.62,25.26-57.74Z"/>
        <path class="cls-4" d="M624.47,470.42c.21-29.64,0-115.54,0-115.54,0-42.18-.93-69.14-1.7-82-.25-4.13,3.55-7.6,8.31-7.6h79.61c4.77,0,8.56,3.46,8.31,7.6-.77,12.86-1.7,39.83-1.7,82v109.64c0,11.4,4.22,15.72,9.97,15.72,3.8,0,8.42-2.19,12.68-5.56,8.17-6.48,12.64-15.75,12.64-25.35v-94.45c0-42.18-.93-69.14-1.7-82-.25-4.13,3.55-7.6,8.31-7.6h79.61c4.77,0,8.56,3.47,8.31,7.6-.77,12.86-1.7,39.83-1.7,82v115.93c0,26.65-.45,39.1-.21,51.65.11,5.56-2.37,11.45-11.48,12.8-9.84,1.45-28.75,1.46-42.64,1.37-7.12-.05-13.25-2.01-11.69-16,1.75-15.67-36.25-3.53-62.82,4.82-27.45,8.63-39.96,10.87-54.96,10.87-40.85,0-37.41-32.14-37.17-65.89Z"/>
      </g>
      <g>
        <path class="cls-2" d="M1211.76,369.34c3.32,10.82,4.59,22.9,6.38,34.1,0,.01.02.02.03,0,10.81-25.82,45.59-61.13,71.79-40.43,5.34,4.22,8.7,17.42,7.88,26.01-1.42,14.83-15.69,33.41-29.67,27.24-6.37-2.81-14.41-7.64-19.01-8.54-5.36-1.05-15.22,7.93-19.05,13.33-43.35,61.16-26.64,120.44-56.54,131.87-10.36,3.96-32.92,2.13-35.11-8.24l-5.99-28.43s-.02-.02-.02,0c-53.14,51.26-159.76,102.74-223.38,48.64-69.74-59.29-24.92-181.27,22.97-246.92,43.25-59.29,125.51-132.41,203.52-106.86,22.96,7.52,37.66,26.05,39.27,50.13,1.81,27.15-7.27,53.9-25.5,74.13-11.96,13.27-34.77,19.44-49.39,10.24-16.88-10.62,46.95-68.2,19.19-95.37-4.46-4.37-19.04-4.69-25.88-2.18-35.27,12.91-58.15,39.85-79.67,69.6-32.31,44.66-57.93,93.99-58.46,150.44-.16,17.17,6.81,37.05,16.9,46.94,47.83,46.85,166.91-32.28,175.99-67.2l21.96-84.48c3.29-12.66,37.11-9.24,41.78,5.98Z"/>
        <path class="cls-2" d="M1656.47,360.48c-7.09-3.12-16.4-2.55-20.42,6.07-2.12,4.55-7.41,10.1-11.99,12.16-21.16,9.53-40.7,11.13-65.15,18.06-.87.25-1.5,1.03-1.55,1.93l-10.03,175.23c0,.07-.01.14-.02.21-2.6,19.23-30.91,30.96-52.26,30.35-5.78-.17-10.27-5.1-10.09-10.87.7-23.01,2.49-81.45,2.96-96.82.05-1.65-1.72-2.71-3.15-1.9l-35.6,20.2c-7.95,4.51-28.36,1.14-34.78-4.38-6.14-5.28-11.34-17.25-16.24-29.65-.56-1.41-2.38-1.8-3.46-.73-25.55,25.31-65.24,66.1-104.27,40.37-46.71-30.79-2.51-132.26,61.55-174.47,20.3-13.37,50.52-17,73.36-11.78,23.03,5.26,15.83,39.94-7.44,35.87-6.31-1.1-12.55-2.02-18.39-.86-41.59,8.25-70.76,61.85-67.17,103.73,1.07,12.54,22.9,4.15,28.35-2.2,20.34-23.72,33.83-48.05,48.65-75.77,4.71-8.81,13.62-14.72,23.6-15.27,2.93-.16,5.95-.14,8.97.05,10.02.63,17.05,10.15,14.66,19.91l-11.99,48.89c-1.69,6.88,4.11,27.01,10.65,25.18,18.14-5.07,39.12-25.24,41.78-42.74,5.38-35.36,10.28-66.36,21.04-99.56,13.63-42.05,42.99-138.76,92.46-138.41,17.25.12,41.62,7.44,47.01,25.71,5.3,17.93,3.59,38.25-6.1,53.42-9.46,14.8-32.47,7.87-32.43-9.7l.04-18.95c0-4.02-5.04-12.03-8.24-13.07-19.25-6.28-40.27,94.42-44.81,121.02-.26,1.52,1.14,2.8,2.63,2.41l43.68-11.36c.65-.17,1.18-.64,1.43-1.26,14.9-35.99,34.66-18.17,58.48-32.09.43-.25.76-.65.93-1.12,7.59-21.07,14.67-42.64,24.73-62.29,7.93-15.48,43.94-9.5,47.06,8.13,2.47,13.99-2.78,29.49-6.49,47.43-.27,1.32.74,2.55,2.09,2.55l67.27-.05c8.9.27,10.96,15.63,8.13,19.53-13.43,18.52-56.62,8.9-90.28,18.96-.72.22-1.27.81-1.45,1.54l-26.42,108.11c-1.33,5.46,3.32,17.34,6.96,20.16,25.6,19.78,56.24-34.17,69.44-40.56.77-.37,3.22-.86,4.22.43,1.82,2.34,4.12,8.4,5.21,12,.72,2.38.25,4.16-.04,5.14-16.42,55.05-87.34,86.7-123.41,58.99-32.34-24.84-10.75-103.01-2.46-145.57.19-.96-.31-1.92-1.21-2.32Z"/>
      </g>
    </g>
  </g>
</svg>