<?xml version="1.0" encoding="UTF-8"?>
<svg id="Layer_2" data-name="Layer 2" xmlns="http://www.w3.org/2000/svg" viewBox="0 0 288.8 211.3">
  <defs>
    <style>
      .cls-1 {
        fill: #282828;
      }
    </style>
  </defs>
  <g id="Layer_1-2" data-name="Layer 1">
    <g>
      <path class="cls-1" d="M0,168.98c0-23.49,13.62-40.17,33.25-40.17,15.55,0,28.41,10.6,33.68,27.58.55,1.79-.59,3.67-2.44,3.99l-22.02,3.84c-1.73.3-3.35-.89-3.6-2.62-1.8-12.68-6.15-23.14-9.82-23.14-2.38,0-3.63,4.43-3.63,12.14,0,22.35,10.44,42.66,21.33,42.66,5.11,0,8.19-4.34,8.84-13.72.14-2,2.12-3.34,4.03-2.73l5.11,1.64c1.56.5,2.45,2.13,2.07,3.72-4.27,17.96-16.33,29.14-32.08,29.14-19.86,0-34.72-17.81-34.72-42.32Z"/>
      <path class="cls-1" d="M73.3,187.47v-16.11c0-5.92-.41-10.88-1.19-14.77-.34-1.69.81-3.32,2.51-3.62l20.06-3.53c1.77-.31,3.43.93,3.62,2.71.05.5.11,1.02.15,1.58.26,3.1,4.41,3.9,5.84,1.15,2.34-4.5,5.09-6.33,9.39-6.33,2.17,0,4.68.47,7.32,1.35,1.42.48,2.29,1.92,2.07,3.41l-3.84,25.56c-.32,2.13-2.67,3.29-4.56,2.25-5.7-3.11-9.38-4.88-10.97-4.88-.91,0-1.82.59-2.68,1.76-.39.54-.61,1.2-.61,1.87v7.61c0,8.94.16,14.89.3,18.34.07,1.76-1.34,3.22-3.1,3.22h-21.57c-1.76,0-3.17-1.46-3.1-3.22.13-3.45.35-9.41.35-18.34Z"/>
      <path class="cls-1" d="M159.83,205.28c-.63-2.35-3.59-3.04-5.27-1.28-4.41,4.65-9.52,6.84-14.56,6.84-10.1,0-16.57-8.74-16.57-17.36,0-10.29,9.32-16.02,26.29-21.26,2.19-.68,2.92-3.41,1.36-5.1-2.13-2.31-5.21-3.37-8.7-3.37-3.9,0-8.03,1.31-12.13,3.05-1.67.71-3.58-.12-4.17-1.83l-.52-1.52c-.45-1.3,0-2.75,1.13-3.54,9.59-6.68,20.01-11.47,30.22-11.47s21.45,4.65,23.83,20.76l3.18,21.67c.77,5.29,1.86,9.88,3.17,14.1.63,2.01-.84,4.06-2.95,4.06h-20.9c-1.35,0-2.56-.88-2.96-2.17-.15-.5-.3-1.01-.46-1.58ZM152.27,194.62c1.43,0,2.7-1.12,3.54-2.76.29-.57.4-1.21.32-1.85l-.96-7.27c-.23-1.73-1.86-2.99-3.57-2.65-3.42.66-5.11,2.28-5.11,5.22,0,3.74,2.72,9.3,5.79,9.3Z"/>
      <path class="cls-1" d="M195.16,187.36v-19.93c0-1.76-1.46-3.16-3.22-3.1l-2.64.1c-1.76.07-3.22-1.34-3.22-3.1v-4.12c0-1.71,1.39-3.1,3.1-3.1h2.53c1.71,0,3.1-1.39,3.1-3.1v-2.8c0-15.09,11.12-22.81,27.69-22.81,4.95,0,11.67.67,18.26,2,2.21.45,3.22,3.05,1.88,4.88l-10.02,13.72c-1.33,1.82-4.08,1.65-5.2-.3-3.53-6.19-6.99-11.22-9.69-11.22-.91,0-1.93.57-1.93,2.61,0,3.15,2.47,9.78,5.02,15.45.52,1.15,1.68,1.88,2.94,1.83l9.4-.34c2.15-.08,3.72,2.01,3.06,4.05l-1.59,4.91c-.46,1.42-1.87,2.31-3.35,2.12l-5.41-.7c-1.85-.24-3.5,1.21-3.5,3.08v19.85c0,8.94.11,14.9.25,18.35.07,1.76-1.34,3.21-3.1,3.21h-21.53c-1.76,0-3.17-1.46-3.1-3.21.14-3.45.25-9.41.25-18.35Z"/>
      <path class="cls-1" d="M247.58,190.99v-23.56c0-1.76-1.46-3.16-3.22-3.1l-2.64.1c-1.76.07-3.22-1.34-3.22-3.1v-4.12c0-1.71,1.39-3.1,3.1-3.1h2.85c1.74,0,3.13-1.43,3.1-3.17-.05-2.82-.16-4.93-.3-6.51s.97-3.03,2.55-3.31l21.37-3.74c1.9-.33,3.63,1.13,3.63,3.05v10.79c0,1.76,1.46,3.16,3.22,3.1l7.56-.28c2.15-.08,3.73,2,3.07,4.05l-1.59,4.91c-.46,1.42-1.87,2.31-3.35,2.12l-5.41-.7c-1.85-.24-3.5,1.21-3.5,3.08v19.85c0,3.06,1.93,5.22,4.88,5.22,1.16,0,2.36-.33,3.59-.86,1.61-.7,3.48.2,4.06,1.86l.61,1.73c.3.86.23,1.83-.26,2.61-3.95,6.31-11.18,12.6-21.62,12.6-11.12,0-18.5-7.26-18.5-19.52Z"/>
    </g>
    <g>
      <path class="cls-1" d="M4.53,78.54v-38.93c0-18.1-.35-29.67-.63-35.18-.09-1.77,1.32-3.25,3.1-3.25h29.77c1.78,0,3.2,1.49,3.1,3.27-.33,5.52-.76,17.08-.76,35.16v15.85c0,2.96,3.77,4.26,5.56,1.9,6.48-8.51,10.01-18.75,10.01-29.22,0-7.65-1.95-15.31-5.68-22.49-1.06-2.04.47-4.48,2.77-4.48h32.45c1.58,0,2.92,1.19,3.09,2.77.23,2.14.37,4.32.37,6.67,0,18.36-8.8,34.39-29.31,50.93-2.28,1.84-1.01,5.53,1.92,5.53h1.67c11.29,0,18.57,6.91,21.86,21.07l5.83,25.02c.45,1.94-1.02,3.8-3.02,3.8h-30.21c-1.58,0-2.9-1.17-3.08-2.73-.37-3.23-1.31-8.89-3.37-18.5-2.86-13.31-4.57-17.02-9.29-17.02h-1.57v1.35c0,16.88.43,28.17.76,33.64.11,1.78-1.31,3.27-3.1,3.27H6.99c-1.78,0-3.19-1.48-3.1-3.25.29-5.51.63-17.08.63-35.18Z"/>
      <path class="cls-1" d="M98.1,78.54v-38.93c0-18.31-.35-29.93-.64-35.37-.09-1.7,1.21-3.15,2.91-3.25,10.3-.58,24.7-.99,31.16-.99,34.71,0,50.43,11.8,50.43,32.36,0,15.12-8.55,25.87-22.71,33.07-2.54,1.29-2.13,5.06.63,5.75,10.83,2.71,15.5,9.21,17.94,19.67l5.25,22.31c.46,1.95-1.02,3.81-3.02,3.81h-30.15c-1.61,0-2.93-1.24-3.09-2.84-.22-2.19-.64-4.61-1.13-7.27l-1.57-7.92c-2.86-14.33-4.57-18.37-9.57-18.37h-2v.51c0,16.65.34,27.37.63,32.64.1,1.78-1.32,3.26-3.1,3.26h-29.49c-1.78,0-3.19-1.48-3.1-3.25.29-5.51.63-17.08.63-35.18ZM146.82,39.78c0-10.43-3.04-19.23-9.36-25.08-1.98-1.84-5.21-.41-5.21,2.29v45.22c0,2.67,3.19,4.13,5.16,2.33,5.92-5.42,9.41-13.56,9.41-24.76Z"/>
      <path class="cls-1" d="M191.96,89.16v-49.55c0-18.1-.35-29.67-.63-35.18-.09-1.77,1.32-3.25,3.1-3.25h29.64c1.77,0,3.19,1.48,3.1,3.25-.29,5.51-.63,17.08-.63,35.18v47.02c0,4.89,1.57,6.74,3.71,6.74,3.54,0,6.69-4.89,9.08-9.44.23-.44.35-.94.35-1.44v-42.89c0-18.1-.35-29.67-.63-35.18-.09-1.77,1.32-3.25,3.1-3.25h29.64c1.78,0,3.19,1.48,3.1,3.25-.29,5.51-.64,17.08-.64,35.18v49.72c0,11.44.55,18.69,1.57,23.98.37,1.9-1.11,3.66-3.05,3.66h-26.95c-1.52,0-2.8-1.1-3.06-2.6-.29-1.65-.54-3.35-.75-5.09-.36-2.86-4.05-3.78-5.64-1.37-4.61,6.98-11.33,12.61-21.11,12.61-14,0-23.29-11.12-23.29-31.35Z"/>
    </g>
  </g>
</svg>