<?xml version="1.0" encoding="UTF-8"?>
<svg id="Layer_2" data-name="Layer 2" xmlns="http://www.w3.org/2000/svg" viewBox="0 0 222.5 213.35">
  <defs>
    <style>
      .cls-1 {
        fill: #a6b8c9;
      }
    </style>
  </defs>
  <g id="Layer_1-2" data-name="Layer 1">
    <circle class="cls-1" cx="171.92" cy="50.59" r="50.59"/>
    <path class="cls-1" d="M10.79,109.13h92.98c3.1,0,5.61,2.51,5.61,5.61v92.98c0,5-6.04,7.5-9.58,3.97L6.82,118.71c-3.53-3.53-1.03-9.58,3.97-9.58Z"/>
    <rect class="cls-1" x="121.33" y="111.13" width="101.17" height="101.17" rx="5.28" ry="5.28"/>
    <path class="cls-1" d="M.99,54.27l24.95,43.21c1.32,2.28,3.75,3.69,6.39,3.69h49.9c2.63,0,5.07-1.41,6.39-3.69l24.95-43.21c1.32-2.28,1.32-5.09,0-7.37L88.61,3.69C87.29,1.41,84.85,0,82.22,0h-49.9c-2.63,0-5.07,1.41-6.39,3.69L.99,46.9c-1.32,2.28-1.32,5.09,0,7.37Z"/>
  </g>
</svg>