<?xml version="1.0" encoding="UTF-8"?>
<svg id="Layer_2" data-name="Layer 2" xmlns="http://www.w3.org/2000/svg" viewBox="0 0 245.48 174.59">
  <defs>
    <style>
      .cls-1 {
        fill: #fff;
      }
    </style>
  </defs>
  <g id="Layer_1-2" data-name="Layer 1">
    <g>
      <path class="cls-1" d="M1.22,115.04v-55.48C1.22,26.42.41,8.65,0,4.8h51.91c-.41,3.84-1.42,21.61-1.42,54.76v34.1c14.25-13.45,22.19-31.7,22.19-50.43,0-13.21-4.07-26.42-11.81-38.42h57.81c.61,4.32,1.02,8.65,1.02,13.45,0,29.06-15.47,54.04-52.11,80.45h15.47c16.08,0,26.46,9.85,31.14,30.02l9.57,41.07h-52.72c0-3.12-1.02-11.29-5.09-30.26s-6.51-24.26-13.23-24.26h-2.24v1.92c0,30.98,1.02,48.75,1.42,52.59H0c.41-3.84,1.22-21.61,1.22-54.76Z"/>
      <path class="cls-1" d="M123.76,85.02C123.76,35.3,148.18,0,183.4,0c29.72,0,53.94,25.46,62.08,65.56l-51.29,10.57c-2.65-29.78-11.2-55.72-18.32-55.72-4.27,0-6.51,9.37-6.51,25.7,0,47.31,18.73,90.3,38.27,90.3,10.38,0,16.08-11.77,16.08-37.46l20.97,7.92c-6.51,41.55-28.9,67.72-58.62,67.72-35.62,0-62.29-37.7-62.29-89.58Z"/>
    </g>
  </g>
</svg>