<?xml version="1.0" encoding="UTF-8"?>
<svg id="Layer_2" data-name="Layer 2" xmlns="http://www.w3.org/2000/svg" xmlns:xlink="http://www.w3.org/1999/xlink" viewBox="0 0 348.72 115.42">
  <defs>
    <style>
      .cls-1 {
        fill: none;
      }

      .cls-2 {
        fill: #3a3adb;
      }

      .cls-3 {
        fill: #fff;
      }

      .cls-4 {
        fill: #4f46e5;
      }

      .cls-5 {
        clip-path: url(#clippath);
      }
    </style>
    <clipPath id="clippath">
      <rect class="cls-1" x="0" y="12.44" width="90.55" height="90.55" rx="7.69" ry="7.69"/>
    </clipPath>
  </defs>
  <g id="Layer_1-2" data-name="Layer 1">
    <g>
      <rect class="cls-1" x="0" width="348.72" height="115.42"/>
      <g>
        <path class="cls-4" d="M155.38,52.88c0,.35-.06.65-.29.88-.29.29-.77.47-1.65.53-1.65.12-4.07.18-6.37.18s-5.42,0-7.25-.18c-2.24-.24-2.95-.71-3.71-2.89l-5.19-14.8v15.5c0,1.47-.53,2-1.77,2.12-1.18.12-4.13.24-7.13.24s-5.9-.12-7.07-.24c-1.24-.12-1.83-.65-1.89-2.12-.18-4.78-.18-11.26-.18-18.28s0-13.5.18-18.28c.06-1.47.65-2,1.89-2.12,1.18-.12,4.13-.24,7.07-.24s5.95.12,7.13.24c1.24.12,1.77.65,1.77,2.12v15.5l5.19-14.8c.77-2.18,1.47-2.65,3.71-2.89,1.83-.18,4.95-.18,7.25-.18s4.72.06,6.37.18c.88.06,1.36.24,1.65.53.24.24.29.53.29.88,0,.47-.12,1.06-.65,2.36l-6.9,16.68,6.9,16.68c.53,1.3.65,1.89.65,2.36Z"/>
        <path class="cls-4" d="M201.31,52.88c0,.35-.06.65-.29.88-.29.29-.77.47-1.65.53-1.65.12-4.3.18-6.6.18s-4.83,0-6.66-.18c-2.24-.24-2.89-.77-3.66-2.89l-3.42-9.61h-2.06v10.26c0,1.47-.59,2-1.83,2.12-1.18.12-3.89.24-6.9.24s-5.48-.12-6.66-.24c-1.24-.12-1.83-.65-1.89-2.12-.18-4.78-.18-11.26-.18-18.28s0-13.44.18-18.22c.06-1.47.65-2,1.89-2.12,2.71-.24,11.38-.29,17.98-.29,4.54,0,9.67.12,13.03.41,6.96.59,8.19,3.01,8.19,13.09,0,9.02-1.12,11.02-5.66,12.03l5.54,11.85c.59,1.3.65,1.89.65,2.36ZM182.91,30.13c.18-.71.24-1.65.24-2.71s-.06-2-.24-2.71c-.18-.94-.35-1.18-1.24-1.18h-4.19c-.41,0-.59.35-.59,1.18v5.42c0,.88.18,1.18.59,1.18h4.19c.88,0,1.06-.24,1.24-1.18Z"/>
        <path class="cls-4" d="M230.61,13.45c1.18-.12,4.07-.24,7.07-.24s5.9.12,7.07.24c1.24.12,1.83.65,1.89,2.12.18,4.95.24,15.33.24,21.46,0,14.62-2.48,17.86-20.63,17.86s-20.63-2.89-20.63-17.86c0-6.13.06-16.51.24-21.46.06-1.47.65-2,1.89-2.12,1.18-.12,4.13-.24,7.07-.24s5.9.12,7.07.24c1.24.12,1.77.65,1.77,2.12v27.06c0,1.36.24,1.53,2.59,1.53s2.59-.18,2.59-1.53V15.57c0-1.47.53-2,1.77-2.12Z"/>
        <path class="cls-4" d="M146.42,60.77c4.54.47,5.78,1.36,6.6,5.13.41,1.77,1,6.07,1,11.14,0,1.12-.12,1.47-1.06,1.53-2.71.12-6.19.12-7.9.12-1.24,0-6.37,0-7.78-.12-.94-.06-1.06-.24-1.12-.94s-.06-4.72-.18-5.66c-.06-.59-.24-.82-.94-.94-.29-.06-1-.12-1.47-.12s-1.18.06-1.47.12c-.59.12-.88.29-.94.94-.18,2.36-.18,5.78-.18,9.26,0,3.12,0,6.9.18,9.26.06.65.35.82.94.94.29.06,1,.12,1.47.12s1.18-.06,1.47-.12c.71-.12.88-.35.94-.94.12-.94.18-5.6.24-6.31s.18-.88,1.12-.94c1.41-.12,6.48-.12,7.72-.12,1.71,0,5.19,0,7.9.12.94.06,1.12.41,1.12,1.53-.12,5.07-.65,10.02-1.06,11.79-.83,3.77-2.06,4.66-6.6,5.13-3.12.35-9.26.59-12.85.59-3.83,0-9.49-.24-12.85-.59-4.54-.47-5.72-1.3-6.6-5.13-.65-2.83-1.24-8.43-1.24-15.33s.59-12.5,1.24-15.33c.88-4.01,2.3-4.66,6.6-5.13,3.12-.35,9.26-.59,12.85-.59s9.73.24,12.85.59Z"/>
        <path class="cls-4" d="M201.19,100.26c0,.35-.06.65-.29.88-.29.29-.77.47-1.65.53-1.65.12-4.3.18-6.6.18s-4.83,0-6.66-.18c-2.24-.24-2.89-.77-3.66-2.89l-3.42-9.61h-2.06v10.26c0,1.47-.59,2-1.83,2.12-1.18.12-3.89.24-6.9.24s-5.48-.12-6.66-.24c-1.24-.12-1.83-.65-1.89-2.12-.18-4.78-.18-11.26-.18-18.28s0-13.44.18-18.22c.06-1.47.65-2,1.89-2.12,2.71-.24,11.38-.29,17.98-.29,4.54,0,9.67.12,13.03.41,6.96.59,8.19,3.01,8.19,13.09,0,9.02-1.12,11.02-5.66,12.03l5.54,11.85c.59,1.3.65,1.89.65,2.36ZM182.8,77.51c.18-.71.24-1.65.24-2.71s-.06-2-.24-2.71c-.18-.94-.35-1.18-1.24-1.18h-4.19c-.41,0-.59.35-.59,1.18v5.42c0,.88.18,1.18.59,1.18h4.19c.88,0,1.06-.24,1.24-1.18Z"/>
        <path class="cls-4" d="M246.58,99.91c0,1.06-.53,1.65-1.71,1.77-1.18.12-4.48.24-7.19.24s-5.36-.06-6.54-.18c-1.95-.18-2.24-.47-2.59-2.77l-.53-3.42h-6.25l-.53,3.42c-.35,2.3-.65,2.59-2.59,2.77-1.18.12-3.83.18-6.54.18s-6.01-.12-7.19-.24c-1.18-.12-1.71-.71-1.71-1.77,0-.94.29-2.42.65-3.89l7.78-33.43c.29-1.36,1.06-1.83,2.48-1.89,1.41-.06,7.25-.18,10.79-.18s9.37.12,10.79.18c1.41.06,2.18.53,2.48,1.89l7.78,33.43c.35,1.47.65,2.95.65,3.89ZM222.77,85.82h4.24l-2-13.56h-.24l-2,13.56Z"/>
        <path class="cls-4" d="M266.22,101.62c-1.18.12-4.13.24-7.13.24s-5.66-.12-7.02-.24c-1.24-.12-1.83-.65-1.89-2.12-.18-4.78-.18-11.38-.18-18.28s0-13.5.18-18.28c.06-1.47.65-2,1.89-2.12,2.77-.24,11.44-.24,14.68-.24,3.01,0,14.03.06,15.68.24,1.24.12,2,.65,2.06,2.12.06,1.18.06,2.83.06,4.13s0,2.77-.06,3.95c-.06,1.24-.41,1.65-1.47,1.65h-14.33c-.53,0-.71.24-.71,1.06v3.3c0,.82.18.94.71.94h13.03c1,0,1.41.18,1.47,1.18.06,1.18.06,2.65.06,3.83s0,2.65-.06,3.83c-.06,1-.47,1.18-1.47,1.18h-13.03c-.53,0-.71.24-.71,1.06v10.43c0,1.47-.53,2-1.77,2.12Z"/>
        <path class="cls-4" d="M328.59,67.49c0,1.18,0,3.36-.06,4.54-.06,1.47-.88,2.12-2.36,2.12-1.83,0-6.01-.12-8.43-.12v7.19c0,7.02,0,13.5-.18,18.28-.06,1.47-.65,2-1.89,2.12-1.18.12-4.19.24-7.13.24s-5.95-.12-7.13-.24c-1.24-.12-1.83-.65-1.89-2.12-.18-4.77-.18-11.26-.18-18.28v-7.19c-2.42,0-6.6.12-8.43.12-1.47,0-2.3-.65-2.36-2.12-.06-1.18-.06-3.36-.06-4.54s0-3.36.06-4.54c.06-1.47.88-2,2.06-2.12,1.65-.18,11.38-.24,17.92-.24s16.27.12,17.92.24c1.18.12,2,.65,2.06,2.12.06,1.18.06,3.36.06,4.54Z"/>
      </g>
      <g>
        <rect class="cls-4" x="0" y="12.44" width="90.55" height="90.55" rx="7.69" ry="7.69"/>
        <g class="cls-5">
          <path class="cls-2" d="M159.39-30.66v-.78h-21.84c-1.73,0-3.13-1.4-3.13-3.13v-21.84h-.78v21.84c0,1.73-1.4,3.13-3.13,3.13h-18.31c-1.73,0-3.13-1.4-3.13-3.13v-21.84h-.77v21.84c0,1.73-1.4,3.13-3.13,3.13h-18.32c-1.73,0-3.13-1.4-3.13-3.13v-21.84h-.78v21.84c0,1.73-1.4,3.13-3.13,3.13h-18.32c-1.73,0-3.13-1.4-3.13-3.13v-21.84h-.78v21.84c0,1.73-1.4,3.13-3.13,3.13h-18.32c-1.73,0-3.13-1.4-3.13-3.13v-21.84h-.78v21.84c0,1.73-1.4,3.13-3.13,3.13H10.76c-1.73,0-3.13-1.4-3.13-3.13v-21.84h-.78v21.84c0,1.73-1.4,3.13-3.13,3.13H-14.6c-1.73,0-3.13-1.4-3.13-3.13v-21.84h-.78v21.84c0,1.73-1.4,3.13-3.13,3.13h-18.32c-1.73,0-3.13-1.4-3.13-3.13v-21.84h-.78v21.84c0,1.73-1.4,3.13-3.13,3.13h-21.84v.78h21.84c1.73,0,3.13,1.4,3.13,3.13V-9.21c0,1.73-1.4,3.13-3.13,3.13h-21.84v.78h21.84c1.73,0,3.13,1.4,3.13,3.13v18.32c0,1.73-1.4,3.13-3.13,3.13h-21.84v.78h21.84c1.73,0,3.13,1.4,3.13,3.13v18.32c0,1.73-1.4,3.13-3.13,3.13h-21.84v.78h21.84c1.73,0,3.13,1.4,3.13,3.13v18.32c0,1.73-1.4,3.13-3.13,3.13h-21.84v.78h21.84c1.73,0,3.13,1.4,3.13,3.13v18.32c0,1.73-1.4,3.13-3.13,3.13h-21.84v.77h21.84c1.73,0,3.13,1.4,3.13,3.13v18.32c0,1.73-1.4,3.13-3.13,3.13h-21.84v.78h21.84c1.73,0,3.13,1.4,3.13,3.13v18.32c0,1.73-1.4,3.13-3.13,3.13h-21.84v.78s21.84,0,21.84,0c1.73,0,3.13,1.4,3.13,3.13v21.84h.78v-21.84c0-1.73,1.4-3.13,3.13-3.13h18.32c1.73,0,3.13,1.4,3.13,3.13v21.84h.78v-21.84c0-1.73,1.4-3.13,3.13-3.13H3.72c1.73,0,3.13,1.4,3.13,3.13v21.84h.78v-21.84c0-1.73,1.4-3.13,3.13-3.13h18.32c1.73,0,3.13,1.4,3.13,3.13v21.84h.78v-21.84c0-1.73,1.4-3.13,3.13-3.13h18.32c1.73,0,3.13,1.4,3.13,3.13v21.84h.78v-21.84c0-1.73,1.4-3.13,3.13-3.13h18.32c1.73,0,3.13,1.4,3.13,3.13v21.84h.78v-21.84c0-1.73,1.4-3.13,3.13-3.13h18.32c1.73,0,3.13,1.4,3.13,3.13v21.84h.77v-21.84c0-1.73,1.4-3.13,3.13-3.13h18.31c1.73,0,3.13,1.4,3.13,3.13v21.84h.78v-21.84c0-1.73,1.4-3.13,3.13-3.13h21.84v-.78s-21.84,0-21.84,0c-1.73,0-3.13-1.4-3.13-3.13v-18.32c0-1.73,1.4-3.13,3.13-3.13h21.84v-.78h-21.84c-1.73,0-3.13-1.4-3.13-3.13v-18.32c0-1.73,1.4-3.13,3.13-3.13h21.84v-.77h-21.84c-1.73,0-3.13-1.4-3.13-3.13v-18.32c0-1.73,1.4-3.13,3.13-3.13h21.84v-.78h-21.84c-1.73,0-3.13-1.4-3.13-3.13v-18.32c0-1.73,1.4-3.13,3.13-3.13h21.84v-.78h-21.84c-1.73,0-3.13-1.4-3.13-3.13v-18.32c0-1.73,1.4-3.13,3.13-3.13h21.84v-.78h-21.84c-1.73,0-3.13-1.4-3.13-3.13V-2.17c0-1.73,1.4-3.13,3.13-3.13h21.84v-.78h-21.84c-1.73,0-3.13-1.4-3.13-3.13v-18.32c0-1.73,1.4-3.13,3.13-3.13h21.84ZM-21.64,146.08h-18.32c-1.73,0-3.13-1.4-3.13-3.13v-18.32c0-1.73,1.4-3.13,3.13-3.13h18.32c1.73,0,3.13,1.4,3.13,3.13v18.32c0,1.73-1.4,3.13-3.13,3.13ZM-21.64,120.72h-18.32c-1.73,0-3.13-1.4-3.13-3.13v-18.32c0-1.73,1.4-3.13,3.13-3.13h18.32c1.73,0,3.13,1.4,3.13,3.13v18.32c0,1.73-1.4,3.13-3.13,3.13ZM-21.64,95.36h-18.32c-1.73,0-3.13-1.4-3.13-3.13v-18.32c0-1.73,1.4-3.13,3.13-3.13h18.32c1.73,0,3.13,1.4,3.13,3.13v18.32c0,1.73-1.4,3.13-3.13,3.13ZM-21.64,70h-18.32c-1.73,0-3.13-1.4-3.13-3.13v-18.32c0-1.73,1.4-3.13,3.13-3.13h18.32c1.73,0,3.13,1.4,3.13,3.13v18.32c0,1.73-1.4,3.13-3.13,3.13ZM-21.64,44.64h-18.32c-1.73,0-3.13-1.4-3.13-3.13v-18.32c0-1.73,1.4-3.13,3.13-3.13h18.32c1.73,0,3.13,1.4,3.13,3.13v18.32c0,1.73-1.4,3.13-3.13,3.13ZM-21.64,19.28h-18.32c-1.73,0-3.13-1.4-3.13-3.13V-2.17c0-1.73,1.4-3.13,3.13-3.13h18.32c1.73,0,3.13,1.4,3.13,3.13v18.32c0,1.73-1.4,3.13-3.13,3.13ZM-21.64-6.08h-18.32c-1.73,0-3.13-1.4-3.13-3.13v-18.32c0-1.73,1.4-3.13,3.13-3.13h18.32c1.73,0,3.13,1.4,3.13,3.13V-9.21c0,1.73-1.4,3.13-3.13,3.13ZM3.72,146.08H-14.6c-1.73,0-3.13-1.4-3.13-3.13v-18.32c0-1.73,1.4-3.13,3.13-3.13H3.72c1.73,0,3.13,1.4,3.13,3.13v18.32c0,1.73-1.4,3.13-3.13,3.13ZM3.72,120.72H-14.6c-1.73,0-3.13-1.4-3.13-3.13v-18.32c0-1.73,1.4-3.13,3.13-3.13H3.72c1.73,0,3.13,1.4,3.13,3.13v18.32c0,1.73-1.4,3.13-3.13,3.13ZM3.72,95.36H-14.6c-1.73,0-3.13-1.4-3.13-3.13v-18.32c0-1.73,1.4-3.13,3.13-3.13H3.72c1.73,0,3.13,1.4,3.13,3.13v18.32c0,1.73-1.4,3.13-3.13,3.13ZM3.72,70H-14.6c-1.73,0-3.13-1.4-3.13-3.13v-18.32c0-1.73,1.4-3.13,3.13-3.13H3.72c1.73,0,3.13,1.4,3.13,3.13v18.32c0,1.73-1.4,3.13-3.13,3.13ZM3.72,44.64H-14.6c-1.73,0-3.13-1.4-3.13-3.13v-18.32c0-1.73,1.4-3.13,3.13-3.13H3.72c1.73,0,3.13,1.4,3.13,3.13v18.32c0,1.73-1.4,3.13-3.13,3.13ZM3.72,19.28H-14.6c-1.73,0-3.13-1.4-3.13-3.13V-2.17c0-1.73,1.4-3.13,3.13-3.13H3.72c1.73,0,3.13,1.4,3.13,3.13v18.32c0,1.73-1.4,3.13-3.13,3.13ZM3.72-6.08H-14.6c-1.73,0-3.13-1.4-3.13-3.13v-18.32c0-1.73,1.4-3.13,3.13-3.13H3.72c1.73,0,3.13,1.4,3.13,3.13V-9.21c0,1.73-1.4,3.13-3.13,3.13ZM29.08,146.08H10.76c-1.73,0-3.13-1.4-3.13-3.13v-18.32c0-1.73,1.4-3.13,3.13-3.13h18.32c1.73,0,3.13,1.4,3.13,3.13v18.32c0,1.73-1.4,3.13-3.13,3.13ZM29.08,120.72H10.76c-1.73,0-3.13-1.4-3.13-3.13v-18.32c0-1.73,1.4-3.13,3.13-3.13h18.32c1.73,0,3.13,1.4,3.13,3.13v18.32c0,1.73-1.4,3.13-3.13,3.13ZM29.08,95.36H10.76c-1.73,0-3.13-1.4-3.13-3.13v-18.32c0-1.73,1.4-3.13,3.13-3.13h18.32c1.73,0,3.13,1.4,3.13,3.13v18.32c0,1.73-1.4,3.13-3.13,3.13ZM29.08,70H10.76c-1.73,0-3.13-1.4-3.13-3.13v-18.32c0-1.73,1.4-3.13,3.13-3.13h18.32c1.73,0,3.13,1.4,3.13,3.13v18.32c0,1.73-1.4,3.13-3.13,3.13ZM29.08,44.64H10.76c-1.73,0-3.13-1.4-3.13-3.13v-18.32c0-1.73,1.4-3.13,3.13-3.13h18.32c1.73,0,3.13,1.4,3.13,3.13v18.32c0,1.73-1.4,3.13-3.13,3.13ZM29.08,19.28H10.76c-1.73,0-3.13-1.4-3.13-3.13V-2.17c0-1.73,1.4-3.13,3.13-3.13h18.32c1.73,0,3.13,1.4,3.13,3.13v18.32c0,1.73-1.4,3.13-3.13,3.13ZM29.08-6.08H10.76c-1.73,0-3.13-1.4-3.13-3.13v-18.32c0-1.73,1.4-3.13,3.13-3.13h18.32c1.73,0,3.13,1.4,3.13,3.13V-9.21c0,1.73-1.4,3.13-3.13,3.13ZM54.44,146.08h-18.32c-1.73,0-3.13-1.4-3.13-3.13v-18.32c0-1.73,1.4-3.13,3.13-3.13h18.32c1.73,0,3.13,1.4,3.13,3.13v18.32c0,1.73-1.4,3.13-3.13,3.13ZM54.44,120.72h-18.32c-1.73,0-3.13-1.4-3.13-3.13v-18.32c0-1.73,1.4-3.13,3.13-3.13h18.32c1.73,0,3.13,1.4,3.13,3.13v18.32c0,1.73-1.4,3.13-3.13,3.13ZM54.44,95.36h-18.32c-1.73,0-3.13-1.4-3.13-3.13v-18.32c0-1.73,1.4-3.13,3.13-3.13h18.32c1.73,0,3.13,1.4,3.13,3.13v18.32c0,1.73-1.4,3.13-3.13,3.13ZM54.44,70h-18.32c-1.73,0-3.13-1.4-3.13-3.13v-18.32c0-1.73,1.4-3.13,3.13-3.13h18.32c1.73,0,3.13,1.4,3.13,3.13v18.32c0,1.73-1.4,3.13-3.13,3.13ZM54.44,44.64h-18.32c-1.73,0-3.13-1.4-3.13-3.13v-18.32c0-1.73,1.4-3.13,3.13-3.13h18.32c1.73,0,3.13,1.4,3.13,3.13v18.32c0,1.73-1.4,3.13-3.13,3.13ZM54.44,19.28h-18.32c-1.73,0-3.13-1.4-3.13-3.13V-2.17c0-1.73,1.4-3.13,3.13-3.13h18.32c1.73,0,3.13,1.4,3.13,3.13v18.32c0,1.73-1.4,3.13-3.13,3.13ZM54.44-6.08h-18.32c-1.73,0-3.13-1.4-3.13-3.13v-18.32c0-1.73,1.4-3.13,3.13-3.13h18.32c1.73,0,3.13,1.4,3.13,3.13V-9.21c0,1.73-1.4,3.13-3.13,3.13ZM79.8,146.08h-18.32c-1.73,0-3.13-1.4-3.13-3.13v-18.32c0-1.73,1.4-3.13,3.13-3.13h18.32c1.73,0,3.13,1.4,3.13,3.13v18.32c0,1.73-1.4,3.13-3.13,3.13ZM79.8,120.72h-18.32c-1.73,0-3.13-1.4-3.13-3.13v-18.32c0-1.73,1.4-3.13,3.13-3.13h18.32c1.73,0,3.13,1.4,3.13,3.13v18.32c0,1.73-1.4,3.13-3.13,3.13ZM79.8,95.36h-18.32c-1.73,0-3.13-1.4-3.13-3.13v-18.32c0-1.73,1.4-3.13,3.13-3.13h18.32c1.73,0,3.13,1.4,3.13,3.13v18.32c0,1.73-1.4,3.13-3.13,3.13ZM79.8,70h-18.32c-1.73,0-3.13-1.4-3.13-3.13v-18.32c0-1.73,1.4-3.13,3.13-3.13h18.32c1.73,0,3.13,1.4,3.13,3.13v18.32c0,1.73-1.4,3.13-3.13,3.13ZM79.8,44.64h-18.32c-1.73,0-3.13-1.4-3.13-3.13v-18.32c0-1.73,1.4-3.13,3.13-3.13h18.32c1.73,0,3.13,1.4,3.13,3.13v18.32c0,1.73-1.4,3.13-3.13,3.13ZM79.8,19.28h-18.32c-1.73,0-3.13-1.4-3.13-3.13V-2.17c0-1.73,1.4-3.13,3.13-3.13h18.32c1.73,0,3.13,1.4,3.13,3.13v18.32c0,1.73-1.4,3.13-3.13,3.13ZM79.8-6.08h-18.32c-1.73,0-3.13-1.4-3.13-3.13v-18.32c0-1.73,1.4-3.13,3.13-3.13h18.32c1.73,0,3.13,1.4,3.13,3.13V-9.21c0,1.73-1.4,3.13-3.13,3.13ZM105.16,146.08h-18.32c-1.73,0-3.13-1.4-3.13-3.13v-18.32c0-1.73,1.4-3.13,3.13-3.13h18.32c1.73,0,3.13,1.4,3.13,3.13v18.32c0,1.73-1.4,3.13-3.13,3.13ZM105.16,120.72h-18.32c-1.73,0-3.13-1.4-3.13-3.13v-18.32c0-1.73,1.4-3.13,3.13-3.13h18.32c1.73,0,3.13,1.4,3.13,3.13v18.32c0,1.73-1.4,3.13-3.13,3.13ZM105.16,95.36h-18.32c-1.73,0-3.13-1.4-3.13-3.13v-18.32c0-1.73,1.4-3.13,3.13-3.13h18.32c1.73,0,3.13,1.4,3.13,3.13v18.32c0,1.73-1.4,3.13-3.13,3.13ZM105.16,70h-18.32c-1.73,0-3.13-1.4-3.13-3.13v-18.32c0-1.73,1.4-3.13,3.13-3.13h18.32c1.73,0,3.13,1.4,3.13,3.13v18.32c0,1.73-1.4,3.13-3.13,3.13ZM105.16,44.64h-18.32c-1.73,0-3.13-1.4-3.13-3.13v-18.32c0-1.73,1.4-3.13,3.13-3.13h18.32c1.73,0,3.13,1.4,3.13,3.13v18.32c0,1.73-1.4,3.13-3.13,3.13ZM105.16,19.28h-18.32c-1.73,0-3.13-1.4-3.13-3.13V-2.17c0-1.73,1.4-3.13,3.13-3.13h18.32c1.73,0,3.13,1.4,3.13,3.13v18.32c0,1.73-1.4,3.13-3.13,3.13ZM105.16-6.08h-18.32c-1.73,0-3.13-1.4-3.13-3.13v-18.32c0-1.73,1.4-3.13,3.13-3.13h18.32c1.73,0,3.13,1.4,3.13,3.13V-9.21c0,1.73-1.4,3.13-3.13,3.13ZM130.51,146.08h-18.31c-1.73,0-3.13-1.4-3.13-3.13v-18.32c0-1.73,1.4-3.13,3.13-3.13h18.31c1.73,0,3.13,1.4,3.13,3.13v18.32c0,1.73-1.4,3.13-3.13,3.13ZM130.51,120.72h-18.31c-1.73,0-3.13-1.4-3.13-3.13v-18.32c0-1.73,1.4-3.13,3.13-3.13h18.31c1.73,0,3.13,1.4,3.13,3.13v18.32c0,1.73-1.4,3.13-3.13,3.13ZM130.51,95.36h-18.31c-1.73,0-3.13-1.4-3.13-3.13v-18.32c0-1.73,1.4-3.13,3.13-3.13h18.31c1.73,0,3.13,1.4,3.13,3.13v18.32c0,1.73-1.4,3.13-3.13,3.13ZM130.51,70h-18.31c-1.73,0-3.13-1.4-3.13-3.13v-18.32c0-1.73,1.4-3.13,3.13-3.13h18.31c1.73,0,3.13,1.4,3.13,3.13v18.32c0,1.73-1.4,3.13-3.13,3.13ZM130.51,44.64h-18.31c-1.73,0-3.13-1.4-3.13-3.13v-18.32c0-1.73,1.4-3.13,3.13-3.13h18.31c1.73,0,3.13,1.4,3.13,3.13v18.32c0,1.73-1.4,3.13-3.13,3.13ZM130.51,19.28h-18.31c-1.73,0-3.13-1.4-3.13-3.13V-2.17c0-1.73,1.4-3.13,3.13-3.13h18.31c1.73,0,3.13,1.4,3.13,3.13v18.32c0,1.73-1.4,3.13-3.13,3.13ZM130.51-6.08h-18.31c-1.73,0-3.13-1.4-3.13-3.13v-18.32c0-1.73,1.4-3.13,3.13-3.13h18.31c1.73,0,3.13,1.4,3.13,3.13V-9.21c0,1.73-1.4,3.13-3.13,3.13Z"/>
        </g>
        <path class="cls-3" d="M56.45,49.9v15.85c0,1.5,1.09,2.82,2.58,3.01,5.01.64,9.5,2.96,12.9,6.36,3.24,3.24,5.5,7.47,6.26,12.2.3,1.88-1.11,3.59-3.01,3.59h-15.99c-1.69,0-3.05-1.37-3.05-3.05v-15.93c0-1.69-1.37-3.05-3.05-3.05h-24.17c-2.83,0-4.1,3.48-1.99,5.36.32.28.63.58.93.88,3.24,3.24,5.5,7.47,6.26,12.2.3,1.88-1.11,3.59-3.01,3.59h-15.99c-1.69,0-3.05-1.37-3.05-3.05V27.56c0-1.69,1.37-3.05,3.05-3.05h16.24c1.69,0,3.05,1.37,3.05,3.05v24.47c0,2.79,3.46,4.13,5.31,2.04.66-.74,1.36-1.44,2.11-2.08,3.22-2.79,7.25-4.67,11.69-5.25,1.5-.2,2.62-1.5,2.62-3.01v-16.16c0-1.69,1.37-3.05,3.05-3.05h16.24c1.69,0,3.05,1.37,3.05,3.05v16.24c0,1.69-1.37,3.05-3.05,3.05h-15.93c-1.69,0-3.05,1.37-3.05,3.05Z"/>
      </g>
    </g>
  </g>
</svg>