<?xml version="1.0" encoding="UTF-8"?>
<svg id="Layer_2" data-name="Layer 2" xmlns="http://www.w3.org/2000/svg" xmlns:xlink="http://www.w3.org/1999/xlink" viewBox="0 0 333.94 115.42">
  <defs>
    <style>
      .cls-1 {
        fill: none;
      }

      .cls-2 {
        fill: #3a3adb;
      }

      .cls-3 {
        fill: #fff;
      }

      .cls-4 {
        fill: #4f46e5;
      }

      .cls-5 {
        clip-path: url(#clippath);
      }
    </style>
    <clipPath id="clippath">
      <rect class="cls-1" x="0" y="16.04" width="83.34" height="83.34" rx="7.08" ry="7.08"/>
    </clipPath>
  </defs>
  <g id="Layer_1-2" data-name="Layer 1">
    <g>
      <rect class="cls-1" width="333.94" height="115.42"/>
      <g>
        <path class="cls-4" d="M143.02,53.27c0,.33-.05.6-.27.81-.27.27-.71.43-1.52.49-1.52.11-3.74.16-5.86.16s-4.99,0-6.67-.16c-2.06-.22-2.71-.65-3.42-2.66l-4.78-13.62v14.27c0,1.36-.49,1.84-1.63,1.95-1.09.11-3.8.22-6.57.22s-5.43-.11-6.51-.22c-1.14-.11-1.68-.6-1.74-1.95-.16-4.4-.16-10.36-.16-16.82s0-12.43.16-16.82c.05-1.36.6-1.84,1.74-1.95,1.09-.11,3.8-.22,6.51-.22s5.48.11,6.57.22c1.14.11,1.63.6,1.63,1.95v14.27l4.78-13.62c.71-2.01,1.36-2.44,3.42-2.66,1.68-.16,4.56-.16,6.67-.16s4.34.05,5.86.16c.81.05,1.25.22,1.52.49.22.22.27.49.27.81,0,.43-.11.98-.6,2.17l-6.35,15.36,6.35,15.36c.49,1.19.6,1.74.6,2.17Z"/>
        <path class="cls-4" d="M185.29,53.27c0,.33-.05.6-.27.81-.27.27-.71.43-1.52.49-1.52.11-3.96.16-6.08.16s-4.45,0-6.13-.16c-2.06-.22-2.66-.71-3.36-2.66l-3.15-8.84h-1.9v9.44c0,1.36-.54,1.84-1.68,1.95-1.09.11-3.58.22-6.35.22s-5.05-.11-6.13-.22c-1.14-.11-1.68-.6-1.74-1.95-.16-4.4-.16-10.36-.16-16.82s0-12.37.16-16.77c.05-1.36.6-1.84,1.74-1.95,2.5-.22,10.47-.27,16.55-.27,4.18,0,8.9.11,11.99.38,6.4.54,7.54,2.77,7.54,12.05,0,8.3-1.03,10.15-5.21,11.07l5.1,10.91c.54,1.19.6,1.74.6,2.17ZM168.36,32.32c.16-.65.22-1.52.22-2.5s-.05-1.84-.22-2.5c-.16-.87-.33-1.09-1.14-1.09h-3.85c-.38,0-.54.33-.54,1.09v4.99c0,.81.16,1.09.54,1.09h3.85c.81,0,.98-.22,1.14-1.09Z"/>
        <path class="cls-4" d="M212.26,16.97c1.09-.11,3.74-.22,6.51-.22s5.43.11,6.51.22c1.14.11,1.68.6,1.74,1.95.16,4.56.22,14.11.22,19.75,0,13.46-2.28,16.44-18.99,16.44s-18.99-2.66-18.99-16.44c0-5.64.05-15.19.22-19.75.05-1.36.6-1.84,1.74-1.95,1.09-.11,3.8-.22,6.51-.22s5.43.11,6.51.22c1.14.11,1.63.6,1.63,1.95v24.91c0,1.25.22,1.41,2.39,1.41s2.39-.16,2.39-1.41v-24.91c0-1.36.49-1.84,1.63-1.95Z"/>
        <path class="cls-4" d="M134.77,60.52c4.18.43,5.32,1.25,6.08,4.72.38,1.63.92,5.59.92,10.26,0,1.03-.11,1.36-.98,1.41-2.5.11-5.7.11-7.27.11-1.14,0-5.86,0-7.16-.11-.87-.05-.98-.22-1.03-.87s-.05-4.34-.16-5.21c-.05-.54-.22-.76-.87-.87-.27-.05-.92-.11-1.36-.11s-1.09.05-1.36.11c-.54.11-.81.27-.87.87-.16,2.17-.16,5.32-.16,8.52,0,2.88,0,6.35.16,8.52.05.6.33.76.87.87.27.05.92.11,1.36.11s1.09-.05,1.36-.11c.65-.11.81-.33.87-.87.11-.87.16-5.16.22-5.81s.16-.81,1.03-.87c1.3-.11,5.97-.11,7.11-.11,1.57,0,4.78,0,7.27.11.87.05,1.03.38,1.03,1.41-.11,4.67-.6,9.22-.98,10.85-.76,3.47-1.9,4.29-6.08,4.72-2.88.33-8.52.54-11.83.54-3.53,0-8.74-.22-11.83-.54-4.18-.43-5.26-1.19-6.08-4.72-.6-2.6-1.14-7.76-1.14-14.11s.54-11.5,1.14-14.11c.81-3.69,2.12-4.29,6.08-4.72,2.88-.33,8.52-.54,11.83-.54s8.95.22,11.83.54Z"/>
        <path class="cls-4" d="M185.18,96.88c0,.33-.05.6-.27.81-.27.27-.71.43-1.52.49-1.52.11-3.96.16-6.08.16s-4.45,0-6.13-.16c-2.06-.22-2.66-.71-3.36-2.66l-3.15-8.84h-1.9v9.44c0,1.36-.54,1.84-1.68,1.95-1.09.11-3.58.22-6.35.22s-5.05-.11-6.13-.22c-1.14-.11-1.68-.6-1.74-1.95-.16-4.4-.16-10.36-.16-16.82s0-12.37.16-16.77c.05-1.36.6-1.84,1.74-1.95,2.5-.22,10.47-.27,16.55-.27,4.18,0,8.9.11,11.99.38,6.4.54,7.54,2.77,7.54,12.05,0,8.3-1.03,10.15-5.21,11.07l5.1,10.91c.54,1.19.6,1.74.6,2.17ZM168.25,75.93c.16-.65.22-1.52.22-2.5s-.05-1.84-.22-2.5c-.16-.87-.33-1.09-1.14-1.09h-3.85c-.38,0-.54.33-.54,1.09v4.99c0,.81.16,1.09.54,1.09h3.85c.81,0,.98-.22,1.14-1.09Z"/>
        <path class="cls-4" d="M226.96,96.55c0,.98-.49,1.52-1.57,1.63-1.09.11-4.12.22-6.62.22s-4.94-.05-6.02-.16c-1.79-.16-2.06-.43-2.39-2.55l-.49-3.15h-5.75l-.49,3.15c-.33,2.12-.6,2.39-2.39,2.55-1.09.11-3.53.16-6.02.16s-5.53-.11-6.62-.22c-1.09-.11-1.57-.65-1.57-1.63,0-.87.27-2.22.6-3.58l7.16-30.77c.27-1.25.98-1.68,2.28-1.74s6.67-.16,9.93-.16,8.63.11,9.93.16,2.01.49,2.28,1.74l7.16,30.77c.33,1.36.6,2.71.6,3.58ZM205.04,83.58h3.91l-1.84-12.48h-.22l-1.84,12.48Z"/>
        <path class="cls-4" d="M245.03,98.13c-1.09.11-3.8.22-6.57.22s-5.21-.11-6.46-.22c-1.14-.11-1.68-.6-1.74-1.95-.16-4.4-.16-10.47-.16-16.82s0-12.43.16-16.82c.05-1.36.6-1.84,1.74-1.95,2.55-.22,10.53-.22,13.51-.22,2.77,0,12.91.05,14.43.22,1.14.11,1.84.6,1.9,1.95.05,1.09.05,2.6.05,3.8s0,2.55-.05,3.64c-.05,1.14-.38,1.52-1.36,1.52h-13.19c-.49,0-.65.22-.65.98v3.04c0,.76.16.87.65.87h11.99c.92,0,1.3.16,1.36,1.08.05,1.09.05,2.44.05,3.53s0,2.44-.05,3.53c-.05.92-.43,1.09-1.36,1.09h-11.99c-.49,0-.65.22-.65.98v9.6c0,1.36-.49,1.84-1.63,1.95Z"/>
        <path class="cls-4" d="M302.44,66.71c0,1.09,0,3.09-.05,4.18-.05,1.36-.81,1.95-2.17,1.95-1.68,0-5.53-.11-7.76-.11v6.62c0,6.46,0,12.43-.16,16.82-.05,1.36-.6,1.84-1.74,1.95-1.09.11-3.85.22-6.57.22s-5.48-.11-6.57-.22c-1.14-.11-1.68-.6-1.74-1.95-.16-4.4-.16-10.36-.16-16.82v-6.62c-2.22,0-6.08.11-7.76.11-1.36,0-2.12-.6-2.17-1.95-.05-1.09-.05-3.09-.05-4.18s0-3.09.05-4.18c.05-1.36.81-1.84,1.9-1.95,1.52-.16,10.47-.22,16.5-.22s14.98.11,16.5.22c1.09.11,1.84.6,1.9,1.95.05,1.09.05,3.09.05,4.18Z"/>
      </g>
      <g>
        <rect class="cls-4" x="0" y="16.04" width="83.34" height="83.34" rx="7.08" ry="7.08"/>
        <g class="cls-5">
          <path class="cls-2" d="M103.27,10.01v-.42h-11.79c-.93,0-1.69-.76-1.69-1.69V-3.89h-.42V7.9c0,.93-.76,1.69-1.69,1.69h-9.89c-.93,0-1.69-.76-1.69-1.69V-3.89h-.42V7.9c0,.93-.76,1.69-1.69,1.69h-9.89c-.93,0-1.69-.76-1.69-1.69V-3.89h-.42V7.9c0,.93-.76,1.69-1.69,1.69h-9.89c-.93,0-1.69-.76-1.69-1.69V-3.89h-.42V7.9c0,.93-.76,1.69-1.69,1.69h-9.89c-.93,0-1.69-.76-1.69-1.69V-3.89h-.42V7.9c0,.93-.76,1.69-1.69,1.69h-9.89c-.93,0-1.69-.76-1.69-1.69V-3.89h-.42V7.9c0,.93-.76,1.69-1.69,1.69h-9.89c-.93,0-1.69-.76-1.69-1.69V-3.89h-.42V7.9c0,.93-.76,1.69-1.69,1.69H-4.34c-.93,0-1.69-.76-1.69-1.69V-3.89h-.42V7.9c0,.93-.76,1.69-1.69,1.69h-11.79v.42h11.79c.93,0,1.69.76,1.69,1.69v9.89c0,.93-.76,1.69-1.69,1.69h-11.79v.42h11.79c.93,0,1.69.76,1.69,1.69v9.89c0,.93-.76,1.69-1.69,1.69h-11.79v.42h11.79c.93,0,1.69.76,1.69,1.69v9.89c0,.93-.76,1.69-1.69,1.69h-11.79v.42h11.79c.93,0,1.69.76,1.69,1.69v9.89c0,.93-.76,1.69-1.69,1.69h-11.79v.42h11.79c.93,0,1.69.76,1.69,1.69v9.89c0,.93-.76,1.69-1.69,1.69h-11.79v.42h11.79c.93,0,1.69.76,1.69,1.69v9.89c0,.93-.76,1.69-1.69,1.69h-11.79v.42h11.79c.93,0,1.69.76,1.69,1.69v9.89c0,.93-.76,1.69-1.69,1.69h-11.79v.42s11.79,0,11.79,0c.93,0,1.69.76,1.69,1.69v11.79h.42v-11.79c0-.93.76-1.69,1.69-1.69H5.55c.93,0,1.69.76,1.69,1.69v11.79h.42v-11.79c0-.93.76-1.69,1.69-1.69h9.89c.93,0,1.69.76,1.69,1.69v11.79h.42v-11.79c0-.93.76-1.69,1.69-1.69h9.89c.93,0,1.69.76,1.69,1.69v11.79h.42v-11.79c0-.93.76-1.69,1.69-1.69h9.89c.93,0,1.69.76,1.69,1.69v11.79h.42v-11.79c0-.93.76-1.69,1.69-1.69h9.89c.93,0,1.69.76,1.69,1.69v11.79h.42v-11.79c0-.93.76-1.69,1.69-1.69h9.89c.93,0,1.69.76,1.69,1.69v11.79h.42v-11.79c0-.93.76-1.69,1.69-1.69h9.89c.93,0,1.69.76,1.69,1.69v11.79h.42v-11.79c0-.93.76-1.69,1.69-1.69h11.79v-.42s-11.79,0-11.79,0c-.93,0-1.69-.76-1.69-1.69v-9.89c0-.93.76-1.69,1.69-1.69h11.79v-.42h-11.79c-.93,0-1.69-.76-1.69-1.69v-9.89c0-.93.76-1.69,1.69-1.69h11.79v-.42h-11.79c-.93,0-1.69-.76-1.69-1.69v-9.89c0-.93.76-1.69,1.69-1.69h11.79v-.42h-11.79c-.93,0-1.69-.76-1.69-1.69v-9.89c0-.93.76-1.69,1.69-1.69h11.79v-.42h-11.79c-.93,0-1.69-.76-1.69-1.69v-9.89c0-.93.76-1.69,1.69-1.69h11.79v-.42h-11.79c-.93,0-1.69-.76-1.69-1.69v-9.89c0-.93.76-1.69,1.69-1.69h11.79v-.42h-11.79c-.93,0-1.69-.76-1.69-1.69v-9.89c0-.93.76-1.69,1.69-1.69h11.79ZM5.55,105.41H-4.34c-.93,0-1.69-.76-1.69-1.69v-9.89c0-.93.76-1.69,1.69-1.69H5.55c.93,0,1.69.76,1.69,1.69v9.89c0,.93-.76,1.69-1.69,1.69ZM5.55,91.72H-4.34c-.93,0-1.69-.76-1.69-1.69v-9.89c0-.93.76-1.69,1.69-1.69H5.55c.93,0,1.69.76,1.69,1.69v9.89c0,.93-.76,1.69-1.69,1.69ZM5.55,78.03H-4.34c-.93,0-1.69-.76-1.69-1.69v-9.89c0-.93.76-1.69,1.69-1.69H5.55c.93,0,1.69.76,1.69,1.69v9.89c0,.93-.76,1.69-1.69,1.69ZM5.55,64.34H-4.34c-.93,0-1.69-.76-1.69-1.69v-9.89c0-.93.76-1.69,1.69-1.69H5.55c.93,0,1.69.76,1.69,1.69v9.89c0,.93-.76,1.69-1.69,1.69ZM5.55,50.66H-4.34c-.93,0-1.69-.76-1.69-1.69v-9.89c0-.93.76-1.69,1.69-1.69H5.55c.93,0,1.69.76,1.69,1.69v9.89c0,.93-.76,1.69-1.69,1.69ZM5.55,36.97H-4.34c-.93,0-1.69-.76-1.69-1.69v-9.89c0-.93.76-1.69,1.69-1.69H5.55c.93,0,1.69.76,1.69,1.69v9.89c0,.93-.76,1.69-1.69,1.69ZM5.55,23.28H-4.34c-.93,0-1.69-.76-1.69-1.69v-9.89c0-.93.76-1.69,1.69-1.69H5.55c.93,0,1.69.76,1.69,1.69v9.89c0,.93-.76,1.69-1.69,1.69ZM19.24,105.41h-9.89c-.93,0-1.69-.76-1.69-1.69v-9.89c0-.93.76-1.69,1.69-1.69h9.89c.93,0,1.69.76,1.69,1.69v9.89c0,.93-.76,1.69-1.69,1.69ZM19.24,91.72h-9.89c-.93,0-1.69-.76-1.69-1.69v-9.89c0-.93.76-1.69,1.69-1.69h9.89c.93,0,1.69.76,1.69,1.69v9.89c0,.93-.76,1.69-1.69,1.69ZM19.24,78.03h-9.89c-.93,0-1.69-.76-1.69-1.69v-9.89c0-.93.76-1.69,1.69-1.69h9.89c.93,0,1.69.76,1.69,1.69v9.89c0,.93-.76,1.69-1.69,1.69ZM19.24,64.34h-9.89c-.93,0-1.69-.76-1.69-1.69v-9.89c0-.93.76-1.69,1.69-1.69h9.89c.93,0,1.69.76,1.69,1.69v9.89c0,.93-.76,1.69-1.69,1.69ZM19.24,50.66h-9.89c-.93,0-1.69-.76-1.69-1.69v-9.89c0-.93.76-1.69,1.69-1.69h9.89c.93,0,1.69.76,1.69,1.69v9.89c0,.93-.76,1.69-1.69,1.69ZM19.24,36.97h-9.89c-.93,0-1.69-.76-1.69-1.69v-9.89c0-.93.76-1.69,1.69-1.69h9.89c.93,0,1.69.76,1.69,1.69v9.89c0,.93-.76,1.69-1.69,1.69ZM19.24,23.28h-9.89c-.93,0-1.69-.76-1.69-1.69v-9.89c0-.93.76-1.69,1.69-1.69h9.89c.93,0,1.69.76,1.69,1.69v9.89c0,.93-.76,1.69-1.69,1.69ZM32.93,105.41h-9.89c-.93,0-1.69-.76-1.69-1.69v-9.89c0-.93.76-1.69,1.69-1.69h9.89c.93,0,1.69.76,1.69,1.69v9.89c0,.93-.76,1.69-1.69,1.69ZM32.93,91.72h-9.89c-.93,0-1.69-.76-1.69-1.69v-9.89c0-.93.76-1.69,1.69-1.69h9.89c.93,0,1.69.76,1.69,1.69v9.89c0,.93-.76,1.69-1.69,1.69ZM32.93,78.03h-9.89c-.93,0-1.69-.76-1.69-1.69v-9.89c0-.93.76-1.69,1.69-1.69h9.89c.93,0,1.69.76,1.69,1.69v9.89c0,.93-.76,1.69-1.69,1.69ZM32.93,64.34h-9.89c-.93,0-1.69-.76-1.69-1.69v-9.89c0-.93.76-1.69,1.69-1.69h9.89c.93,0,1.69.76,1.69,1.69v9.89c0,.93-.76,1.69-1.69,1.69ZM32.93,50.66h-9.89c-.93,0-1.69-.76-1.69-1.69v-9.89c0-.93.76-1.69,1.69-1.69h9.89c.93,0,1.69.76,1.69,1.69v9.89c0,.93-.76,1.69-1.69,1.69ZM32.93,36.97h-9.89c-.93,0-1.69-.76-1.69-1.69v-9.89c0-.93.76-1.69,1.69-1.69h9.89c.93,0,1.69.76,1.69,1.69v9.89c0,.93-.76,1.69-1.69,1.69ZM32.93,23.28h-9.89c-.93,0-1.69-.76-1.69-1.69v-9.89c0-.93.76-1.69,1.69-1.69h9.89c.93,0,1.69.76,1.69,1.69v9.89c0,.93-.76,1.69-1.69,1.69ZM46.62,105.41h-9.89c-.93,0-1.69-.76-1.69-1.69v-9.89c0-.93.76-1.69,1.69-1.69h9.89c.93,0,1.69.76,1.69,1.69v9.89c0,.93-.76,1.69-1.69,1.69ZM46.62,91.72h-9.89c-.93,0-1.69-.76-1.69-1.69v-9.89c0-.93.76-1.69,1.69-1.69h9.89c.93,0,1.69.76,1.69,1.69v9.89c0,.93-.76,1.69-1.69,1.69ZM46.62,78.03h-9.89c-.93,0-1.69-.76-1.69-1.69v-9.89c0-.93.76-1.69,1.69-1.69h9.89c.93,0,1.69.76,1.69,1.69v9.89c0,.93-.76,1.69-1.69,1.69ZM46.62,64.34h-9.89c-.93,0-1.69-.76-1.69-1.69v-9.89c0-.93.76-1.69,1.69-1.69h9.89c.93,0,1.69.76,1.69,1.69v9.89c0,.93-.76,1.69-1.69,1.69ZM46.62,50.66h-9.89c-.93,0-1.69-.76-1.69-1.69v-9.89c0-.93.76-1.69,1.69-1.69h9.89c.93,0,1.69.76,1.69,1.69v9.89c0,.93-.76,1.69-1.69,1.69ZM46.62,36.97h-9.89c-.93,0-1.69-.76-1.69-1.69v-9.89c0-.93.76-1.69,1.69-1.69h9.89c.93,0,1.69.76,1.69,1.69v9.89c0,.93-.76,1.69-1.69,1.69ZM46.62,23.28h-9.89c-.93,0-1.69-.76-1.69-1.69v-9.89c0-.93.76-1.69,1.69-1.69h9.89c.93,0,1.69.76,1.69,1.69v9.89c0,.93-.76,1.69-1.69,1.69ZM60.31,105.41h-9.89c-.93,0-1.69-.76-1.69-1.69v-9.89c0-.93.76-1.69,1.69-1.69h9.89c.93,0,1.69.76,1.69,1.69v9.89c0,.93-.76,1.69-1.69,1.69ZM60.31,91.72h-9.89c-.93,0-1.69-.76-1.69-1.69v-9.89c0-.93.76-1.69,1.69-1.69h9.89c.93,0,1.69.76,1.69,1.69v9.89c0,.93-.76,1.69-1.69,1.69ZM60.31,78.03h-9.89c-.93,0-1.69-.76-1.69-1.69v-9.89c0-.93.76-1.69,1.69-1.69h9.89c.93,0,1.69.76,1.69,1.69v9.89c0,.93-.76,1.69-1.69,1.69ZM60.31,64.34h-9.89c-.93,0-1.69-.76-1.69-1.69v-9.89c0-.93.76-1.69,1.69-1.69h9.89c.93,0,1.69.76,1.69,1.69v9.89c0,.93-.76,1.69-1.69,1.69ZM60.31,50.66h-9.89c-.93,0-1.69-.76-1.69-1.69v-9.89c0-.93.76-1.69,1.69-1.69h9.89c.93,0,1.69.76,1.69,1.69v9.89c0,.93-.76,1.69-1.69,1.69ZM60.31,36.97h-9.89c-.93,0-1.69-.76-1.69-1.69v-9.89c0-.93.76-1.69,1.69-1.69h9.89c.93,0,1.69.76,1.69,1.69v9.89c0,.93-.76,1.69-1.69,1.69ZM60.31,23.28h-9.89c-.93,0-1.69-.76-1.69-1.69v-9.89c0-.93.76-1.69,1.69-1.69h9.89c.93,0,1.69.76,1.69,1.69v9.89c0,.93-.76,1.69-1.69,1.69ZM74,105.41h-9.89c-.93,0-1.69-.76-1.69-1.69v-9.89c0-.93.76-1.69,1.69-1.69h9.89c.93,0,1.69.76,1.69,1.69v9.89c0,.93-.76,1.69-1.69,1.69ZM74,91.72h-9.89c-.93,0-1.69-.76-1.69-1.69v-9.89c0-.93.76-1.69,1.69-1.69h9.89c.93,0,1.69.76,1.69,1.69v9.89c0,.93-.76,1.69-1.69,1.69ZM74,78.03h-9.89c-.93,0-1.69-.76-1.69-1.69v-9.89c0-.93.76-1.69,1.69-1.69h9.89c.93,0,1.69.76,1.69,1.69v9.89c0,.93-.76,1.69-1.69,1.69ZM74,64.34h-9.89c-.93,0-1.69-.76-1.69-1.69v-9.89c0-.93.76-1.69,1.69-1.69h9.89c.93,0,1.69.76,1.69,1.69v9.89c0,.93-.76,1.69-1.69,1.69ZM74,50.66h-9.89c-.93,0-1.69-.76-1.69-1.69v-9.89c0-.93.76-1.69,1.69-1.69h9.89c.93,0,1.69.76,1.69,1.69v9.89c0,.93-.76,1.69-1.69,1.69ZM74,36.97h-9.89c-.93,0-1.69-.76-1.69-1.69v-9.89c0-.93.76-1.69,1.69-1.69h9.89c.93,0,1.69.76,1.69,1.69v9.89c0,.93-.76,1.69-1.69,1.69ZM74,23.28h-9.89c-.93,0-1.69-.76-1.69-1.69v-9.89c0-.93.76-1.69,1.69-1.69h9.89c.93,0,1.69.76,1.69,1.69v9.89c0,.93-.76,1.69-1.69,1.69ZM87.68,105.41h-9.89c-.93,0-1.69-.76-1.69-1.69v-9.89c0-.93.76-1.69,1.69-1.69h9.89c.93,0,1.69.76,1.69,1.69v9.89c0,.93-.76,1.69-1.69,1.69ZM87.68,91.72h-9.89c-.93,0-1.69-.76-1.69-1.69v-9.89c0-.93.76-1.69,1.69-1.69h9.89c.93,0,1.69.76,1.69,1.69v9.89c0,.93-.76,1.69-1.69,1.69ZM87.68,78.03h-9.89c-.93,0-1.69-.76-1.69-1.69v-9.89c0-.93.76-1.69,1.69-1.69h9.89c.93,0,1.69.76,1.69,1.69v9.89c0,.93-.76,1.69-1.69,1.69ZM87.68,64.34h-9.89c-.93,0-1.69-.76-1.69-1.69v-9.89c0-.93.76-1.69,1.69-1.69h9.89c.93,0,1.69.76,1.69,1.69v9.89c0,.93-.76,1.69-1.69,1.69ZM87.68,50.66h-9.89c-.93,0-1.69-.76-1.69-1.69v-9.89c0-.93.76-1.69,1.69-1.69h9.89c.93,0,1.69.76,1.69,1.69v9.89c0,.93-.76,1.69-1.69,1.69ZM87.68,36.97h-9.89c-.93,0-1.69-.76-1.69-1.69v-9.89c0-.93.76-1.69,1.69-1.69h9.89c.93,0,1.69.76,1.69,1.69v9.89c0,.93-.76,1.69-1.69,1.69ZM87.68,23.28h-9.89c-.93,0-1.69-.76-1.69-1.69v-9.89c0-.93.76-1.69,1.69-1.69h9.89c.93,0,1.69.76,1.69,1.69v9.89c0,.93-.76,1.69-1.69,1.69Z"/>
        </g>
        <path class="cls-3" d="M51.95,49.71v16.13c0,1.02.78,1.87,1.8,1.97,4.85.49,9.2,2.66,12.46,5.92,3.24,3.24,5.4,7.56,5.91,12.37.12,1.16-.82,2.17-1.99,2.17h-16.46c-1.1,0-2-.9-2-2v-16.28c0-1.1-.9-2-2-2h-25.33c-1.96,0-2.73,2.49-1.14,3.64.87.63,1.69,1.34,2.45,2.1,3.24,3.24,5.4,7.56,5.91,12.37.12,1.16-.82,2.17-1.99,2.17H13.11c-1.1,0-2-.9-2-2v-36.84c0-1.1.9-2,2-2h5.33c1.96,0,2.73-2.49,1.14-3.64-.87-.63-1.69-1.34-2.45-2.1-3.24-3.24-5.4-7.56-5.91-12.37-.12-1.16.82-2.17,1.99-2.17h16.46c1.1,0,2,.9,2,2v25.61c0,1.96,2.49,2.72,3.65,1.13,3.35-4.6,8.56-7.76,14.53-8.36,1.03-.1,1.83-.95,1.83-1.99v-16.39c0-1.1.9-2,2-2h16.56c1.1,0,2,.9,2,2v16.56c0,1.1-.9,2-2,2h-16.28c-1.1,0-2,.9-2,2Z"/>
      </g>
    </g>
  </g>
</svg>