<?xml version="1.0" encoding="UTF-8"?>
<svg id="Layer_2" data-name="Layer 2" xmlns="http://www.w3.org/2000/svg" viewBox="0 0 269.01 73.71">
  <defs>
    <style>
      .cls-1 {
        fill: #4f46e5;
      }
    </style>
  </defs>
  <g id="Layer_1-2" data-name="Layer 1">
    <g>
      <g>
        <path class="cls-1" d="M125.75,32.87c0,.29-.05.54-.24.73-.24.24-.63.39-1.37.44-1.37.1-3.36.15-5.27.15s-4.49,0-6-.15c-1.85-.2-2.44-.59-3.07-2.39l-4.29-12.24v12.82c0,1.22-.44,1.66-1.46,1.76-.98.1-3.41.2-5.9.2s-4.88-.1-5.85-.2c-1.02-.1-1.51-.54-1.56-1.76-.15-3.95-.15-9.31-.15-15.12s0-11.17.15-15.12c.05-1.22.54-1.66,1.56-1.76.98-.1,3.41-.2,5.85-.2s4.92.1,5.9.2c1.02.1,1.46.54,1.46,1.76v12.82l4.29-12.24c.63-1.8,1.22-2.19,3.07-2.39,1.51-.15,4.1-.15,6-.15s3.9.05,5.27.15c.73.05,1.12.2,1.37.44.2.2.24.44.24.73,0,.39-.1.88-.54,1.95l-5.71,13.8,5.71,13.8c.44,1.07.54,1.56.54,1.95Z"/>
        <path class="cls-1" d="M163.73,32.87c0,.29-.05.54-.24.73-.24.24-.63.39-1.37.44-1.37.1-3.56.15-5.46.15s-4,0-5.51-.15c-1.85-.2-2.39-.63-3.02-2.39l-2.83-7.95h-1.71v8.48c0,1.22-.49,1.66-1.51,1.76-.98.1-3.22.2-5.71.2s-4.53-.1-5.51-.2c-1.02-.1-1.51-.54-1.56-1.76-.15-3.95-.15-9.31-.15-15.12s0-11.12.15-15.07c.05-1.22.54-1.66,1.56-1.76,2.24-.2,9.41-.24,14.87-.24,3.75,0,8,.1,10.78.34,5.75.49,6.78,2.49,6.78,10.83,0,7.46-.93,9.12-4.68,9.95l4.58,9.8c.49,1.07.54,1.56.54,1.95ZM148.52,14.04c.15-.59.2-1.37.2-2.24s-.05-1.66-.2-2.24c-.15-.78-.29-.98-1.02-.98h-3.46c-.34,0-.49.29-.49.98v4.49c0,.73.15.98.49.98h3.46c.73,0,.88-.2,1.02-.98Z"/>
        <path class="cls-1" d="M187.97.24c.98-.1,3.36-.2,5.85-.2s4.88.1,5.85.2c1.02.1,1.51.54,1.56,1.76.15,4.1.2,12.68.2,17.75,0,12.09-2.05,14.78-17.07,14.78s-17.07-2.39-17.07-14.78c0-5.07.05-13.65.2-17.75.05-1.22.54-1.66,1.56-1.76.98-.1,3.41-.2,5.85-.2s4.88.1,5.85.2c1.02.1,1.46.54,1.46,1.76v22.38c0,1.12.2,1.27,2.15,1.27s2.15-.15,2.15-1.27V2c0-1.22.44-1.66,1.46-1.76Z"/>
        <path class="cls-1" d="M118.34,39.38c3.75.39,4.78,1.12,5.46,4.24.34,1.46.83,5.02.83,9.22,0,.93-.1,1.22-.88,1.27-2.24.1-5.12.1-6.53.1-1.02,0-5.27,0-6.44-.1-.78-.05-.88-.2-.93-.78s-.05-3.9-.15-4.68c-.05-.49-.2-.68-.78-.78-.24-.05-.83-.1-1.22-.1s-.98.05-1.22.1c-.49.1-.73.24-.78.78-.15,1.95-.15,4.78-.15,7.66,0,2.58,0,5.71.15,7.66.05.54.29.68.78.78.24.05.83.1,1.22.1s.98-.05,1.22-.1c.59-.1.73-.29.78-.78.1-.78.15-4.63.2-5.22s.15-.73.93-.78c1.17-.1,5.36-.1,6.39-.1,1.41,0,4.29,0,6.53.1.78.05.93.34.93,1.27-.1,4.19-.54,8.29-.88,9.75-.68,3.12-1.71,3.85-5.46,4.24-2.58.29-7.66.49-10.63.49-3.17,0-7.85-.2-10.63-.49-3.75-.39-4.73-1.07-5.46-4.24-.54-2.34-1.02-6.97-1.02-12.68s.49-10.34,1.02-12.68c.73-3.32,1.9-3.85,5.46-4.24,2.58-.29,7.66-.49,10.63-.49s8.05.2,10.63.49Z"/>
        <path class="cls-1" d="M163.64,72.06c0,.29-.05.54-.24.73-.24.24-.63.39-1.37.44-1.37.1-3.56.15-5.46.15s-4,0-5.51-.15c-1.85-.2-2.39-.63-3.02-2.39l-2.83-7.95h-1.71v8.48c0,1.22-.49,1.66-1.51,1.76-.98.1-3.22.2-5.71.2s-4.53-.1-5.51-.2c-1.02-.1-1.51-.54-1.56-1.76-.15-3.95-.15-9.31-.15-15.12s0-11.12.15-15.07c.05-1.22.54-1.66,1.56-1.76,2.24-.2,9.41-.24,14.87-.24,3.75,0,8,.1,10.78.34,5.75.49,6.78,2.49,6.78,10.83,0,7.46-.93,9.12-4.68,9.95l4.58,9.8c.49,1.07.54,1.56.54,1.95ZM148.42,53.23c.15-.59.2-1.37.2-2.24s-.05-1.66-.2-2.24c-.15-.78-.29-.98-1.02-.98h-3.46c-.34,0-.49.29-.49.98v4.49c0,.73.15.98.49.98h3.46c.73,0,.88-.2,1.02-.98Z"/>
        <path class="cls-1" d="M201.18,71.76c0,.88-.44,1.37-1.41,1.46-.98.1-3.71.2-5.95.2s-4.44-.05-5.41-.15c-1.61-.15-1.85-.39-2.15-2.29l-.44-2.83h-5.17l-.44,2.83c-.29,1.9-.54,2.15-2.15,2.29-.98.1-3.17.15-5.41.15s-4.97-.1-5.95-.2c-.98-.1-1.41-.59-1.41-1.46,0-.78.24-2,.54-3.22l6.44-27.65c.24-1.12.88-1.51,2.05-1.56s6-.15,8.92-.15,7.75.1,8.92.15,1.8.44,2.05,1.56l6.44,27.65c.29,1.22.54,2.44.54,3.22ZM181.48,60.11h3.51l-1.66-11.22h-.2l-1.66,11.22Z"/>
        <path class="cls-1" d="M217.42,73.18c-.98.1-3.41.2-5.9.2s-4.68-.1-5.8-.2c-1.02-.1-1.51-.54-1.56-1.76-.15-3.95-.15-9.41-.15-15.12s0-11.17.15-15.12c.05-1.22.54-1.66,1.56-1.76,2.29-.2,9.46-.2,12.14-.2,2.49,0,11.61.05,12.97.2,1.02.1,1.66.54,1.71,1.76.05.98.05,2.34.05,3.41s0,2.29-.05,3.27c-.05,1.02-.34,1.37-1.22,1.37h-11.85c-.44,0-.59.2-.59.88v2.73c0,.68.15.78.59.78h10.78c.83,0,1.17.15,1.22.97.05.98.05,2.19.05,3.17s0,2.19-.05,3.17c-.05.83-.39.98-1.22.98h-10.78c-.44,0-.59.2-.59.88v8.63c0,1.22-.44,1.66-1.46,1.76Z"/>
        <path class="cls-1" d="M269.01,44.94c0,.98,0,2.78-.05,3.75-.05,1.22-.73,1.76-1.95,1.76-1.51,0-4.97-.1-6.97-.1v5.95c0,5.8,0,11.17-.15,15.12-.05,1.22-.54,1.66-1.56,1.76-.98.1-3.46.2-5.9.2s-4.92-.1-5.9-.2c-1.02-.1-1.51-.54-1.56-1.76-.15-3.95-.15-9.31-.15-15.12v-5.95c-2,0-5.46.1-6.97.1-1.22,0-1.9-.54-1.95-1.76-.05-.98-.05-2.78-.05-3.75s0-2.78.05-3.75c.05-1.22.73-1.66,1.71-1.76,1.37-.15,9.41-.2,14.82-.2s13.46.1,14.82.2c.98.1,1.66.54,1.71,1.76.05.98.05,2.78.05,3.75Z"/>
      </g>
      <path class="cls-1" d="M48.81,26.82v20.19c0,.98.75,1.8,1.74,1.89,5.96.5,11.31,3.12,15.3,7.11s6.62,9.36,7.11,15.32c.09,1.11-.8,2.05-1.91,2.05h-20.67c-1.06,0-1.91-.86-1.91-1.91v-20.41c0-1.06-.86-1.91-1.91-1.91H14.25c-1.92,0-2.63,2.5-1.01,3.53,1.5.96,2.88,2.08,4.13,3.33,3.99,3.99,6.62,9.36,7.11,15.32.09,1.11-.8,2.05-1.91,2.05H1.91c-1.06,0-1.91-.86-1.91-1.91V26.48c0-1.06.86-1.91,1.91-1.91h8.41c1.92,0,2.63-2.5,1.01-3.53-1.5-.96-2.88-2.08-4.13-3.33C3.2,13.72.58,8.36.08,2.39,0,1.28.88.34,1.99.34h20.67c1.06,0,1.91.86,1.91,1.91v32.64c0,1.92,2.5,2.63,3.53,1.01,4.02-6.27,10.8-10.59,18.63-11.25.99-.08,1.74-.91,1.74-1.9V2.25c0-1.06.86-1.91,1.91-1.91h20.75c1.06,0,1.91.86,1.91,1.91v20.75c0,1.06-.86,1.91-1.91,1.91h-20.41c-1.06,0-1.91.86-1.91,1.91Z"/>
    </g>
  </g>
</svg>