<?xml version="1.0" encoding="UTF-8"?>
<svg id="Layer_2" data-name="Layer 2" xmlns="http://www.w3.org/2000/svg" xmlns:xlink="http://www.w3.org/1999/xlink" viewBox="0 0 348.72 115.42">
  <defs>
    <style>
      .cls-1 {
        fill: none;
      }

      .cls-2 {
        fill: #3a3adb;
      }

      .cls-3 {
        fill: #fff;
      }

      .cls-4 {
        fill: #4f46e5;
      }

      .cls-5 {
        clip-path: url(#clippath);
      }
    </style>
    <clipPath id="clippath">
      <rect class="cls-1" x="0" y="13.39" width="88.64" height="88.64" rx="7.53" ry="7.53"/>
    </clipPath>
  </defs>
  <g id="Layer_1-2" data-name="Layer 1">
    <g>
      <rect class="cls-1" x="0" width="348.72" height="115.42"/>
      <g>
        <path class="cls-4" d="M152.12,52.99c0,.35-.06.64-.29.87-.29.29-.75.46-1.62.52-1.62.12-3.98.17-6.23.17s-5.31,0-7.1-.17c-2.19-.23-2.89-.69-3.64-2.83l-5.08-14.49v15.18c0,1.44-.52,1.96-1.73,2.08-1.15.12-4.04.23-6.98.23s-5.77-.12-6.93-.23c-1.21-.12-1.79-.64-1.85-2.08-.17-4.67-.17-11.02-.17-17.89s0-13.22.17-17.89c.06-1.44.63-1.96,1.85-2.08,1.15-.12,4.04-.23,6.93-.23s5.83.12,6.98.23c1.21.12,1.73.64,1.73,2.08v15.18l5.08-14.49c.75-2.14,1.44-2.6,3.64-2.83,1.79-.17,4.85-.17,7.1-.17s4.62.06,6.23.17c.87.06,1.33.23,1.62.52.23.23.29.52.29.87,0,.46-.12,1.04-.63,2.31l-6.75,16.33,6.75,16.33c.52,1.27.63,1.85.63,2.31Z"/>
        <path class="cls-4" d="M197.08,52.99c0,.35-.06.64-.29.87-.29.29-.75.46-1.62.52-1.62.12-4.21.17-6.46.17s-4.73,0-6.52-.17c-2.19-.23-2.83-.75-3.58-2.83l-3.35-9.41h-2.02v10.04c0,1.44-.58,1.96-1.79,2.08-1.15.12-3.81.23-6.75.23s-5.37-.12-6.52-.23c-1.21-.12-1.79-.64-1.85-2.08-.17-4.67-.17-11.02-.17-17.89s0-13.16.17-17.83c.06-1.44.63-1.96,1.85-2.08,2.65-.23,11.14-.29,17.6-.29,4.44,0,9.46.12,12.75.4,6.81.58,8.02,2.94,8.02,12.81,0,8.83-1.1,10.79-5.54,11.77l5.43,11.6c.58,1.27.63,1.85.63,2.31ZM179.07,30.71c.17-.69.23-1.62.23-2.65s-.06-1.96-.23-2.65c-.17-.92-.35-1.15-1.21-1.15h-4.1c-.4,0-.58.35-.58,1.15v5.31c0,.87.17,1.15.58,1.15h4.1c.87,0,1.04-.23,1.21-1.15Z"/>
        <path class="cls-4" d="M225.76,14.38c1.15-.12,3.98-.23,6.93-.23s5.77.12,6.93.23c1.21.12,1.79.64,1.85,2.08.17,4.85.23,15.01.23,21.01,0,14.31-2.42,17.49-20.2,17.49s-20.2-2.83-20.2-17.49c0-6,.06-16.16.23-21.01.06-1.44.63-1.96,1.85-2.08,1.15-.12,4.04-.23,6.93-.23s5.77.12,6.93.23c1.21.12,1.73.64,1.73,2.08v26.49c0,1.33.23,1.5,2.54,1.5s2.54-.17,2.54-1.5v-26.49c0-1.44.52-1.96,1.73-2.08Z"/>
        <path class="cls-4" d="M143.34,60.7c4.44.46,5.66,1.33,6.46,5.02.4,1.73.98,5.94.98,10.91,0,1.1-.12,1.44-1.04,1.5-2.65.12-6.06.12-7.73.12-1.21,0-6.23,0-7.62-.12-.92-.06-1.04-.23-1.1-.92s-.06-4.62-.17-5.54c-.06-.58-.23-.81-.92-.92-.29-.06-.98-.12-1.44-.12s-1.15.06-1.44.12c-.58.12-.87.29-.92.92-.17,2.31-.17,5.66-.17,9.06,0,3.06,0,6.75.17,9.06.06.63.35.81.92.92.29.06.98.12,1.44.12s1.15-.06,1.44-.12c.69-.12.87-.35.92-.92.12-.92.17-5.48.23-6.18s.17-.87,1.1-.92c1.39-.12,6.35-.12,7.56-.12,1.67,0,5.08,0,7.73.12.92.06,1.1.4,1.1,1.5-.12,4.96-.63,9.81-1.04,11.54-.81,3.69-2.02,4.56-6.46,5.02-3.06.35-9.06.58-12.58.58-3.75,0-9.29-.23-12.58-.58-4.44-.46-5.6-1.27-6.46-5.02-.63-2.77-1.21-8.25-1.21-15.01s.58-12.24,1.21-15.01c.87-3.92,2.25-4.56,6.46-5.02,3.06-.35,9.06-.58,12.58-.58s9.52.23,12.58.58Z"/>
        <path class="cls-4" d="M196.96,99.37c0,.35-.06.64-.29.87-.29.29-.75.46-1.62.52-1.62.12-4.21.17-6.46.17s-4.73,0-6.52-.17c-2.19-.23-2.83-.75-3.58-2.83l-3.35-9.41h-2.02v10.04c0,1.44-.58,1.96-1.79,2.08-1.15.12-3.81.23-6.75.23s-5.37-.12-6.52-.23c-1.21-.12-1.79-.64-1.85-2.08-.17-4.67-.17-11.02-.17-17.89s0-13.16.17-17.83c.06-1.44.63-1.96,1.85-2.08,2.65-.23,11.14-.29,17.6-.29,4.44,0,9.46.12,12.75.4,6.81.58,8.02,2.94,8.02,12.81,0,8.83-1.1,10.79-5.54,11.77l5.43,11.6c.58,1.27.63,1.85.63,2.31ZM178.95,77.09c.17-.69.23-1.62.23-2.65s-.06-1.96-.23-2.65c-.17-.92-.35-1.15-1.21-1.15h-4.1c-.4,0-.58.35-.58,1.15v5.31c0,.87.17,1.15.58,1.15h4.1c.87,0,1.04-.23,1.21-1.15Z"/>
        <path class="cls-4" d="M241.4,99.02c0,1.04-.52,1.62-1.67,1.73-1.15.12-4.39.23-7.04.23s-5.25-.06-6.41-.17c-1.9-.17-2.19-.46-2.54-2.71l-.52-3.35h-6.12l-.52,3.35c-.35,2.25-.63,2.54-2.54,2.71-1.15.12-3.75.17-6.41.17s-5.89-.12-7.04-.23c-1.15-.12-1.67-.69-1.67-1.73,0-.92.29-2.37.63-3.81l7.62-32.72c.29-1.33,1.04-1.79,2.42-1.85,1.39-.06,7.1-.17,10.56-.17s9.18.12,10.56.17c1.39.06,2.14.52,2.42,1.85l7.62,32.72c.35,1.44.63,2.89.63,3.81ZM218.08,85.23h4.16l-1.96-13.27h-.23l-1.96,13.27Z"/>
        <path class="cls-4" d="M260.62,100.7c-1.15.12-4.04.23-6.98.23s-5.54-.12-6.87-.23c-1.21-.12-1.79-.64-1.85-2.08-.17-4.67-.17-11.14-.17-17.89s0-13.22.17-17.89c.06-1.44.63-1.96,1.85-2.08,2.71-.23,11.2-.23,14.37-.23,2.94,0,13.74.06,15.35.23,1.21.12,1.96.64,2.02,2.08.06,1.15.06,2.77.06,4.04s0,2.71-.06,3.87c-.06,1.21-.4,1.62-1.44,1.62h-14.02c-.52,0-.69.23-.69,1.04v3.23c0,.81.17.92.69.92h12.75c.98,0,1.39.17,1.44,1.15.06,1.15.06,2.6.06,3.75s0,2.6-.06,3.75c-.06.98-.46,1.15-1.44,1.15h-12.75c-.52,0-.69.23-.69,1.04v10.22c0,1.44-.52,1.96-1.73,2.08Z"/>
        <path class="cls-4" d="M321.68,67.28c0,1.15,0,3.29-.06,4.44-.06,1.44-.87,2.08-2.31,2.08-1.79,0-5.89-.12-8.25-.12v7.04c0,6.87,0,13.22-.17,17.89-.06,1.44-.63,1.96-1.85,2.08-1.15.12-4.1.23-6.98.23s-5.83-.12-6.98-.23c-1.21-.12-1.79-.64-1.85-2.08-.17-4.67-.17-11.02-.17-17.89v-7.04c-2.37,0-6.46.12-8.25.12-1.44,0-2.25-.63-2.31-2.08-.06-1.15-.06-3.29-.06-4.44s0-3.29.06-4.44c.06-1.44.87-1.96,2.02-2.08,1.62-.17,11.14-.23,17.54-.23s15.93.12,17.54.23c1.15.12,1.96.64,2.02,2.08.06,1.15.06,3.29.06,4.44Z"/>
      </g>
      <g>
        <rect class="cls-4" x="0" y="13.39" width="88.64" height="88.64" rx="7.53" ry="7.53"/>
        <g class="cls-5">
          <path class="cls-2" d="M156.04-28.81v-.76h-21.38c-1.69,0-3.07-1.37-3.07-3.07v-21.38h-.76v21.38c0,1.69-1.37,3.07-3.07,3.07h-17.93c-1.69,0-3.07-1.37-3.07-3.07v-21.38h-.76v21.38c0,1.69-1.37,3.07-3.07,3.07h-17.94c-1.69,0-3.07-1.37-3.07-3.07v-21.38h-.76v21.38c0,1.69-1.37,3.07-3.07,3.07h-17.94c-1.69,0-3.07-1.37-3.07-3.07v-21.38h-.76v21.38c0,1.69-1.37,3.07-3.07,3.07h-17.94c-1.69,0-3.07-1.37-3.07-3.07v-21.38h-.76v21.38c0,1.69-1.37,3.07-3.07,3.07H10.53c-1.69,0-3.07-1.37-3.07-3.07v-21.38h-.76v21.38c0,1.69-1.37,3.07-3.07,3.07H-14.3c-1.69,0-3.07-1.37-3.07-3.07v-21.38h-.76v21.38c0,1.69-1.37,3.07-3.07,3.07h-17.94c-1.69,0-3.07-1.37-3.07-3.07v-21.38h-.76v21.38c0,1.69-1.37,3.07-3.07,3.07h-21.38v.76h21.38c1.69,0,3.07,1.37,3.07,3.07V-7.8c0,1.69-1.37,3.07-3.07,3.07h-21.38v.76h21.38c1.69,0,3.07,1.37,3.07,3.07v17.94c0,1.69-1.37,3.07-3.07,3.07h-21.38v.76h21.38c1.69,0,3.07,1.37,3.07,3.07v17.94c0,1.69-1.37,3.07-3.07,3.07h-21.38v.76h21.38c1.69,0,3.07,1.37,3.07,3.07v17.94c0,1.69-1.37,3.07-3.07,3.07h-21.38v.76h21.38c1.69,0,3.07,1.37,3.07,3.07v17.94c0,1.69-1.37,3.07-3.07,3.07h-21.38v.76h21.38c1.69,0,3.07,1.37,3.07,3.07v17.94c0,1.69-1.37,3.07-3.07,3.07h-21.38v.76h21.38c1.69,0,3.07,1.37,3.07,3.07v17.94c0,1.69-1.37,3.07-3.07,3.07h-21.38v.76s21.38,0,21.38,0c1.69,0,3.07,1.37,3.07,3.07v21.38h.76v-21.38c0-1.69,1.37-3.07,3.07-3.07h17.94c1.69,0,3.07,1.37,3.07,3.07v21.38h.76v-21.38c0-1.69,1.37-3.07,3.07-3.07H3.64c1.69,0,3.07,1.37,3.07,3.07v21.38h.76v-21.38c0-1.69,1.37-3.07,3.07-3.07h17.94c1.69,0,3.07,1.37,3.07,3.07v21.38h.76v-21.38c0-1.69,1.37-3.07,3.07-3.07h17.94c1.69,0,3.07,1.37,3.07,3.07v21.38h.76v-21.38c0-1.69,1.37-3.07,3.07-3.07h17.94c1.69,0,3.07,1.37,3.07,3.07v21.38h.76v-21.38c0-1.69,1.37-3.07,3.07-3.07h17.94c1.69,0,3.07,1.37,3.07,3.07v21.38h.76v-21.38c0-1.69,1.37-3.07,3.07-3.07h17.93c1.69,0,3.07,1.37,3.07,3.07v21.38h.76v-21.38c0-1.69,1.37-3.07,3.07-3.07h21.38v-.76s-21.38,0-21.38,0c-1.69,0-3.07-1.37-3.07-3.07v-17.94c0-1.69,1.37-3.07,3.07-3.07h21.38v-.76h-21.38c-1.69,0-3.07-1.37-3.07-3.07v-17.94c0-1.69,1.37-3.07,3.07-3.07h21.38v-.76h-21.38c-1.69,0-3.07-1.37-3.07-3.07v-17.94c0-1.69,1.37-3.07,3.07-3.07h21.38v-.76h-21.38c-1.69,0-3.07-1.37-3.07-3.07v-17.94c0-1.69,1.37-3.07,3.07-3.07h21.38v-.76h-21.38c-1.69,0-3.07-1.37-3.07-3.07v-17.94c0-1.69,1.37-3.07,3.07-3.07h21.38v-.76h-21.38c-1.69,0-3.07-1.37-3.07-3.07V-.91c0-1.69,1.37-3.07,3.07-3.07h21.38v-.76h-21.38c-1.69,0-3.07-1.37-3.07-3.07v-17.94c0-1.69,1.37-3.07,3.07-3.07h21.38ZM-21.19,144.23h-17.94c-1.69,0-3.07-1.37-3.07-3.07v-17.94c0-1.69,1.37-3.07,3.07-3.07h17.94c1.69,0,3.07,1.37,3.07,3.07v17.94c0,1.69-1.37,3.07-3.07,3.07ZM-21.19,119.4h-17.94c-1.69,0-3.07-1.37-3.07-3.07v-17.94c0-1.69,1.37-3.07,3.07-3.07h17.94c1.69,0,3.07,1.37,3.07,3.07v17.94c0,1.69-1.37,3.07-3.07,3.07ZM-21.19,94.57h-17.94c-1.69,0-3.07-1.37-3.07-3.07v-17.94c0-1.69,1.37-3.07,3.07-3.07h17.94c1.69,0,3.07,1.37,3.07,3.07v17.94c0,1.69-1.37,3.07-3.07,3.07ZM-21.19,69.74h-17.94c-1.69,0-3.07-1.37-3.07-3.07v-17.94c0-1.69,1.37-3.07,3.07-3.07h17.94c1.69,0,3.07,1.37,3.07,3.07v17.94c0,1.69-1.37,3.07-3.07,3.07ZM-21.19,44.92h-17.94c-1.69,0-3.07-1.37-3.07-3.07v-17.94c0-1.69,1.37-3.07,3.07-3.07h17.94c1.69,0,3.07,1.37,3.07,3.07v17.94c0,1.69-1.37,3.07-3.07,3.07ZM-21.19,20.09h-17.94c-1.69,0-3.07-1.37-3.07-3.07V-.91c0-1.69,1.37-3.07,3.07-3.07h17.94c1.69,0,3.07,1.37,3.07,3.07v17.94c0,1.69-1.37,3.07-3.07,3.07ZM-21.19-4.74h-17.94c-1.69,0-3.07-1.37-3.07-3.07v-17.94c0-1.69,1.37-3.07,3.07-3.07h17.94c1.69,0,3.07,1.37,3.07,3.07V-7.8c0,1.69-1.37,3.07-3.07,3.07ZM3.64,144.23H-14.3c-1.69,0-3.07-1.37-3.07-3.07v-17.94c0-1.69,1.37-3.07,3.07-3.07H3.64c1.69,0,3.07,1.37,3.07,3.07v17.94c0,1.69-1.37,3.07-3.07,3.07ZM3.64,119.4H-14.3c-1.69,0-3.07-1.37-3.07-3.07v-17.94c0-1.69,1.37-3.07,3.07-3.07H3.64c1.69,0,3.07,1.37,3.07,3.07v17.94c0,1.69-1.37,3.07-3.07,3.07ZM3.64,94.57H-14.3c-1.69,0-3.07-1.37-3.07-3.07v-17.94c0-1.69,1.37-3.07,3.07-3.07H3.64c1.69,0,3.07,1.37,3.07,3.07v17.94c0,1.69-1.37,3.07-3.07,3.07ZM3.64,69.74H-14.3c-1.69,0-3.07-1.37-3.07-3.07v-17.94c0-1.69,1.37-3.07,3.07-3.07H3.64c1.69,0,3.07,1.37,3.07,3.07v17.94c0,1.69-1.37,3.07-3.07,3.07ZM3.64,44.92H-14.3c-1.69,0-3.07-1.37-3.07-3.07v-17.94c0-1.69,1.37-3.07,3.07-3.07H3.64c1.69,0,3.07,1.37,3.07,3.07v17.94c0,1.69-1.37,3.07-3.07,3.07ZM3.64,20.09H-14.3c-1.69,0-3.07-1.37-3.07-3.07V-.91c0-1.69,1.37-3.07,3.07-3.07H3.64c1.69,0,3.07,1.37,3.07,3.07v17.94c0,1.69-1.37,3.07-3.07,3.07ZM3.64-4.74H-14.3c-1.69,0-3.07-1.37-3.07-3.07v-17.94c0-1.69,1.37-3.07,3.07-3.07H3.64c1.69,0,3.07,1.37,3.07,3.07V-7.8c0,1.69-1.37,3.07-3.07,3.07ZM28.47,144.23H10.53c-1.69,0-3.07-1.37-3.07-3.07v-17.94c0-1.69,1.37-3.07,3.07-3.07h17.94c1.69,0,3.07,1.37,3.07,3.07v17.94c0,1.69-1.37,3.07-3.07,3.07ZM28.47,119.4H10.53c-1.69,0-3.07-1.37-3.07-3.07v-17.94c0-1.69,1.37-3.07,3.07-3.07h17.94c1.69,0,3.07,1.37,3.07,3.07v17.94c0,1.69-1.37,3.07-3.07,3.07ZM28.47,94.57H10.53c-1.69,0-3.07-1.37-3.07-3.07v-17.94c0-1.69,1.37-3.07,3.07-3.07h17.94c1.69,0,3.07,1.37,3.07,3.07v17.94c0,1.69-1.37,3.07-3.07,3.07ZM28.47,69.74H10.53c-1.69,0-3.07-1.37-3.07-3.07v-17.94c0-1.69,1.37-3.07,3.07-3.07h17.94c1.69,0,3.07,1.37,3.07,3.07v17.94c0,1.69-1.37,3.07-3.07,3.07ZM28.47,44.92H10.53c-1.69,0-3.07-1.37-3.07-3.07v-17.94c0-1.69,1.37-3.07,3.07-3.07h17.94c1.69,0,3.07,1.37,3.07,3.07v17.94c0,1.69-1.37,3.07-3.07,3.07ZM28.47,20.09H10.53c-1.69,0-3.07-1.37-3.07-3.07V-.91c0-1.69,1.37-3.07,3.07-3.07h17.94c1.69,0,3.07,1.37,3.07,3.07v17.94c0,1.69-1.37,3.07-3.07,3.07ZM28.47-4.74H10.53c-1.69,0-3.07-1.37-3.07-3.07v-17.94c0-1.69,1.37-3.07,3.07-3.07h17.94c1.69,0,3.07,1.37,3.07,3.07V-7.8c0,1.69-1.37,3.07-3.07,3.07ZM53.29,144.23h-17.94c-1.69,0-3.07-1.37-3.07-3.07v-17.94c0-1.69,1.37-3.07,3.07-3.07h17.94c1.69,0,3.07,1.37,3.07,3.07v17.94c0,1.69-1.37,3.07-3.07,3.07ZM53.29,119.4h-17.94c-1.69,0-3.07-1.37-3.07-3.07v-17.94c0-1.69,1.37-3.07,3.07-3.07h17.94c1.69,0,3.07,1.37,3.07,3.07v17.94c0,1.69-1.37,3.07-3.07,3.07ZM53.29,94.57h-17.94c-1.69,0-3.07-1.37-3.07-3.07v-17.94c0-1.69,1.37-3.07,3.07-3.07h17.94c1.69,0,3.07,1.37,3.07,3.07v17.94c0,1.69-1.37,3.07-3.07,3.07ZM53.29,69.74h-17.94c-1.69,0-3.07-1.37-3.07-3.07v-17.94c0-1.69,1.37-3.07,3.07-3.07h17.94c1.69,0,3.07,1.37,3.07,3.07v17.94c0,1.69-1.37,3.07-3.07,3.07ZM53.29,44.92h-17.94c-1.69,0-3.07-1.37-3.07-3.07v-17.94c0-1.69,1.37-3.07,3.07-3.07h17.94c1.69,0,3.07,1.37,3.07,3.07v17.94c0,1.69-1.37,3.07-3.07,3.07ZM53.29,20.09h-17.94c-1.69,0-3.07-1.37-3.07-3.07V-.91c0-1.69,1.37-3.07,3.07-3.07h17.94c1.69,0,3.07,1.37,3.07,3.07v17.94c0,1.69-1.37,3.07-3.07,3.07ZM53.29-4.74h-17.94c-1.69,0-3.07-1.37-3.07-3.07v-17.94c0-1.69,1.37-3.07,3.07-3.07h17.94c1.69,0,3.07,1.37,3.07,3.07V-7.8c0,1.69-1.37,3.07-3.07,3.07ZM78.12,144.23h-17.94c-1.69,0-3.07-1.37-3.07-3.07v-17.94c0-1.69,1.37-3.07,3.07-3.07h17.94c1.69,0,3.07,1.37,3.07,3.07v17.94c0,1.69-1.37,3.07-3.07,3.07ZM78.12,119.4h-17.94c-1.69,0-3.07-1.37-3.07-3.07v-17.94c0-1.69,1.37-3.07,3.07-3.07h17.94c1.69,0,3.07,1.37,3.07,3.07v17.94c0,1.69-1.37,3.07-3.07,3.07ZM78.12,94.57h-17.94c-1.69,0-3.07-1.37-3.07-3.07v-17.94c0-1.69,1.37-3.07,3.07-3.07h17.94c1.69,0,3.07,1.37,3.07,3.07v17.94c0,1.69-1.37,3.07-3.07,3.07ZM78.12,69.74h-17.94c-1.69,0-3.07-1.37-3.07-3.07v-17.94c0-1.69,1.37-3.07,3.07-3.07h17.94c1.69,0,3.07,1.37,3.07,3.07v17.94c0,1.69-1.37,3.07-3.07,3.07ZM78.12,44.92h-17.94c-1.69,0-3.07-1.37-3.07-3.07v-17.94c0-1.69,1.37-3.07,3.07-3.07h17.94c1.69,0,3.07,1.37,3.07,3.07v17.94c0,1.69-1.37,3.07-3.07,3.07ZM78.12,20.09h-17.94c-1.69,0-3.07-1.37-3.07-3.07V-.91c0-1.69,1.37-3.07,3.07-3.07h17.94c1.69,0,3.07,1.37,3.07,3.07v17.94c0,1.69-1.37,3.07-3.07,3.07ZM78.12-4.74h-17.94c-1.69,0-3.07-1.37-3.07-3.07v-17.94c0-1.69,1.37-3.07,3.07-3.07h17.94c1.69,0,3.07,1.37,3.07,3.07V-7.8c0,1.69-1.37,3.07-3.07,3.07ZM102.95,144.23h-17.94c-1.69,0-3.07-1.37-3.07-3.07v-17.94c0-1.69,1.37-3.07,3.07-3.07h17.94c1.69,0,3.07,1.37,3.07,3.07v17.94c0,1.69-1.37,3.07-3.07,3.07ZM102.95,119.4h-17.94c-1.69,0-3.07-1.37-3.07-3.07v-17.94c0-1.69,1.37-3.07,3.07-3.07h17.94c1.69,0,3.07,1.37,3.07,3.07v17.94c0,1.69-1.37,3.07-3.07,3.07ZM102.95,94.57h-17.94c-1.69,0-3.07-1.37-3.07-3.07v-17.94c0-1.69,1.37-3.07,3.07-3.07h17.94c1.69,0,3.07,1.37,3.07,3.07v17.94c0,1.69-1.37,3.07-3.07,3.07ZM102.95,69.74h-17.94c-1.69,0-3.07-1.37-3.07-3.07v-17.94c0-1.69,1.37-3.07,3.07-3.07h17.94c1.69,0,3.07,1.37,3.07,3.07v17.94c0,1.69-1.37,3.07-3.07,3.07ZM102.95,44.92h-17.94c-1.69,0-3.07-1.37-3.07-3.07v-17.94c0-1.69,1.37-3.07,3.07-3.07h17.94c1.69,0,3.07,1.37,3.07,3.07v17.94c0,1.69-1.37,3.07-3.07,3.07ZM102.95,20.09h-17.94c-1.69,0-3.07-1.37-3.07-3.07V-.91c0-1.69,1.37-3.07,3.07-3.07h17.94c1.69,0,3.07,1.37,3.07,3.07v17.94c0,1.69-1.37,3.07-3.07,3.07ZM102.95-4.74h-17.94c-1.69,0-3.07-1.37-3.07-3.07v-17.94c0-1.69,1.37-3.07,3.07-3.07h17.94c1.69,0,3.07,1.37,3.07,3.07V-7.8c0,1.69-1.37,3.07-3.07,3.07ZM127.77,144.23h-17.93c-1.69,0-3.07-1.37-3.07-3.07v-17.94c0-1.69,1.37-3.07,3.07-3.07h17.93c1.69,0,3.07,1.37,3.07,3.07v17.94c0,1.69-1.37,3.07-3.07,3.07ZM127.77,119.4h-17.93c-1.69,0-3.07-1.37-3.07-3.07v-17.94c0-1.69,1.37-3.07,3.07-3.07h17.93c1.69,0,3.07,1.37,3.07,3.07v17.94c0,1.69-1.37,3.07-3.07,3.07ZM127.77,94.57h-17.93c-1.69,0-3.07-1.37-3.07-3.07v-17.94c0-1.69,1.37-3.07,3.07-3.07h17.93c1.69,0,3.07,1.37,3.07,3.07v17.94c0,1.69-1.37,3.07-3.07,3.07ZM127.77,69.74h-17.93c-1.69,0-3.07-1.37-3.07-3.07v-17.94c0-1.69,1.37-3.07,3.07-3.07h17.93c1.69,0,3.07,1.37,3.07,3.07v17.94c0,1.69-1.37,3.07-3.07,3.07ZM127.77,44.92h-17.93c-1.69,0-3.07-1.37-3.07-3.07v-17.94c0-1.69,1.37-3.07,3.07-3.07h17.93c1.69,0,3.07,1.37,3.07,3.07v17.94c0,1.69-1.37,3.07-3.07,3.07ZM127.77,20.09h-17.93c-1.69,0-3.07-1.37-3.07-3.07V-.91c0-1.69,1.37-3.07,3.07-3.07h17.93c1.69,0,3.07,1.37,3.07,3.07v17.94c0,1.69-1.37,3.07-3.07,3.07ZM127.77-4.74h-17.93c-1.69,0-3.07-1.37-3.07-3.07v-17.94c0-1.69,1.37-3.07,3.07-3.07h17.93c1.69,0,3.07,1.37,3.07,3.07V-7.8c0,1.69-1.37,3.07-3.07,3.07Z"/>
        </g>
        <path class="cls-3" d="M55.26,50.06v15.52c0,1.47,1.07,2.76,2.53,2.95,4.91.63,9.3,2.9,12.63,6.22,3.18,3.17,5.38,7.31,6.13,11.95.3,1.84-1.08,3.51-2.94,3.51h-15.66c-1.65,0-2.99-1.34-2.99-2.99v-15.6c0-1.65-1.34-2.99-2.99-2.99h-23.66c-2.77,0-4.01,3.4-1.94,5.25.31.28.61.56.91.86,3.18,3.17,5.38,7.31,6.13,11.95.3,1.84-1.08,3.51-2.94,3.51h-15.66c-1.65,0-2.99-1.34-2.99-2.99V28.19c0-1.65,1.34-2.99,2.99-2.99h15.9c1.65,0,2.99,1.34,2.99,2.99v23.95c0,2.73,3.38,4.05,5.2,2,.64-.72,1.33-1.41,2.06-2.04,3.15-2.73,7.1-4.57,11.45-5.14,1.47-.19,2.56-1.47,2.56-2.95v-15.82c0-1.65,1.34-2.99,2.99-2.99h15.9c1.65,0,2.99,1.34,2.99,2.99v15.9c0,1.65-1.34,2.99-2.99,2.99h-15.6c-1.65,0-2.99,1.34-2.99,2.99Z"/>
      </g>
    </g>
  </g>
</svg>