<?xml version="1.0" encoding="UTF-8"?>
<svg id="Layer_2" data-name="Layer 2" xmlns="http://www.w3.org/2000/svg" xmlns:xlink="http://www.w3.org/1999/xlink" viewBox="0 0 348.72 115.42">
  <defs>
    <style>
      .cls-1 {
        fill: none;
      }

      .cls-2 {
        fill: #2a2a42;
      }

      .cls-3 {
        fill: #3a3adb;
      }

      .cls-4 {
        fill: #fff;
      }

      .cls-5 {
        fill: #4f46e5;
      }

      .cls-6 {
        clip-path: url(#clippath);
      }
    </style>
    <clipPath id="clippath">
      <rect class="cls-1" y="10.37" width="94.68" height="94.68" rx="8.05" ry="8.05"/>
    </clipPath>
  </defs>
  <g id="Layer_1-2" data-name="Layer 1">
    <g>
      <rect class="cls-1" x="0" width="348.72" height="115.42"/>
      <g>
        <path class="cls-2" d="M162.47,52.66c0,.37-.06.68-.31.92-.31.31-.8.49-1.73.55-1.73.12-4.25.19-6.66.19s-5.67,0-7.58-.19c-2.34-.25-3.08-.74-3.88-3.02l-5.42-15.47v16.21c0,1.54-.55,2.1-1.85,2.22-1.23.12-4.31.25-7.46.25s-6.16-.12-7.4-.25c-1.29-.12-1.91-.68-1.97-2.22-.18-4.99-.18-11.77-.18-19.11s0-14.12.18-19.11c.06-1.54.68-2.1,1.97-2.22,1.23-.12,4.31-.25,7.4-.25s6.23.12,7.46.25c1.29.12,1.85.68,1.85,2.22v16.21l5.42-15.47c.8-2.28,1.54-2.77,3.88-3.02,1.91-.18,5.18-.18,7.58-.18s4.93.06,6.66.19c.92.06,1.42.25,1.73.55.25.25.31.55.31.92,0,.49-.12,1.11-.68,2.47l-7.21,17.44,7.21,17.44c.55,1.36.68,1.97.68,2.47Z"/>
        <path class="cls-2" d="M210.49,52.66c0,.37-.06.68-.31.92-.31.31-.8.49-1.73.55-1.73.12-4.5.19-6.9.19s-5.05,0-6.97-.19c-2.34-.25-3.02-.8-3.82-3.02l-3.58-10.05h-2.16v10.73c0,1.54-.62,2.1-1.91,2.22-1.23.12-4.07.25-7.21.25s-5.73-.12-6.97-.25c-1.29-.12-1.91-.68-1.97-2.22-.18-4.99-.18-11.77-.18-19.11s0-14.05.18-19.05c.06-1.54.68-2.1,1.97-2.22,2.84-.25,11.9-.31,18.8-.31,4.75,0,10.11.12,13.62.43,7.27.62,8.57,3.14,8.57,13.68,0,9.43-1.17,11.53-5.92,12.58l5.79,12.39c.62,1.36.68,1.97.68,2.47ZM191.26,28.87c.18-.74.25-1.73.25-2.84s-.06-2.1-.25-2.84c-.18-.99-.37-1.23-1.29-1.23h-4.38c-.43,0-.62.37-.62,1.23v5.67c0,.92.18,1.23.62,1.23h4.38c.92,0,1.11-.25,1.29-1.23Z"/>
        <path class="cls-2" d="M241.13,11.43c1.23-.12,4.25-.25,7.4-.25s6.16.12,7.4.25c1.29.12,1.91.68,1.97,2.22.18,5.18.25,16.03.25,22.44,0,15.29-2.59,18.68-21.57,18.68s-21.57-3.02-21.57-18.68c0-6.41.06-17.26.25-22.44.06-1.54.68-2.1,1.97-2.22,1.23-.12,4.31-.25,7.4-.25s6.16.12,7.4.25c1.29.12,1.85.68,1.85,2.22v28.29c0,1.42.25,1.6,2.71,1.6s2.71-.18,2.71-1.6V13.64c0-1.54.55-2.1,1.85-2.22Z"/>
        <path class="cls-2" d="M153.1,60.91c4.75.49,6.04,1.42,6.9,5.36.43,1.85,1.05,6.35,1.05,11.65,0,1.17-.12,1.54-1.11,1.6-2.84.12-6.47.12-8.26.12-1.29,0-6.66,0-8.14-.12-.99-.06-1.11-.25-1.17-.99s-.06-4.93-.18-5.92c-.06-.62-.25-.86-.99-.99-.31-.06-1.05-.12-1.54-.12s-1.23.06-1.54.12c-.62.12-.92.31-.99.99-.18,2.47-.18,6.04-.18,9.68,0,3.27,0,7.21.18,9.68.06.68.37.86.99.99.31.06,1.05.12,1.54.12s1.23-.06,1.54-.12c.74-.12.92-.37.99-.99.12-.99.18-5.86.25-6.6s.18-.92,1.17-.99c1.48-.12,6.78-.12,8.08-.12,1.79,0,5.42,0,8.26.12.99.06,1.17.43,1.17,1.6-.12,5.3-.68,10.48-1.11,12.33-.86,3.95-2.16,4.87-6.9,5.36-3.27.37-9.68.62-13.44.62-4.01,0-9.92-.25-13.44-.62-4.75-.49-5.98-1.36-6.9-5.36-.68-2.96-1.29-8.81-1.29-16.03s.62-13.07,1.29-16.03c.92-4.19,2.4-4.87,6.9-5.36,3.27-.37,9.68-.62,13.44-.62s10.17.25,13.44.62Z"/>
        <path class="cls-2" d="M210.37,102.21c0,.37-.06.68-.31.92-.31.31-.8.49-1.73.55-1.73.12-4.5.19-6.9.19s-5.05,0-6.97-.19c-2.34-.25-3.02-.8-3.82-3.02l-3.58-10.05h-2.16v10.73c0,1.54-.62,2.1-1.91,2.22-1.23.12-4.07.25-7.21.25s-5.73-.12-6.97-.25c-1.29-.12-1.91-.68-1.97-2.22-.18-4.99-.18-11.77-.18-19.11s0-14.05.18-19.05c.06-1.54.68-2.1,1.97-2.22,2.84-.25,11.9-.31,18.8-.31,4.75,0,10.11.12,13.62.43,7.27.62,8.57,3.14,8.57,13.68,0,9.43-1.17,11.53-5.92,12.58l5.79,12.39c.62,1.36.68,1.97.68,2.47ZM191.14,78.41c.18-.74.25-1.73.25-2.84s-.06-2.1-.25-2.84c-.18-.99-.37-1.23-1.29-1.23h-4.38c-.43,0-.62.37-.62,1.23v5.67c0,.92.18,1.23.62,1.23h4.38c.92,0,1.11-.25,1.29-1.23Z"/>
        <path class="cls-2" d="M257.84,101.84c0,1.11-.55,1.73-1.79,1.85-1.23.12-4.68.25-7.52.25s-5.61-.06-6.84-.18c-2.03-.18-2.34-.49-2.71-2.9l-.55-3.58h-6.53l-.55,3.58c-.37,2.4-.68,2.71-2.71,2.9-1.23.12-4.01.18-6.84.18s-6.29-.12-7.52-.25c-1.23-.12-1.79-.74-1.79-1.85,0-.99.31-2.53.68-4.07l8.14-34.95c.31-1.42,1.11-1.91,2.59-1.97,1.48-.06,7.58-.19,11.28-.19s9.8.12,11.28.19c1.48.06,2.28.55,2.59,1.97l8.14,34.95c.37,1.54.68,3.08.68,4.07ZM232.93,87.1h4.44l-2.1-14.18h-.25l-2.1,14.18Z"/>
        <path class="cls-2" d="M278.36,103.62c-1.23.12-4.31.25-7.46.25s-5.92-.12-7.34-.25c-1.29-.12-1.91-.68-1.97-2.22-.18-4.99-.18-11.9-.18-19.11s0-14.12.18-19.11c.06-1.54.68-2.1,1.97-2.22,2.9-.25,11.96-.25,15.35-.25,3.14,0,14.67.06,16.4.25,1.29.12,2.1.68,2.16,2.22.06,1.23.06,2.96.06,4.31s0,2.9-.06,4.13c-.06,1.29-.43,1.73-1.54,1.73h-14.98c-.55,0-.74.25-.74,1.11v3.45c0,.86.18.99.74.99h13.62c1.05,0,1.48.18,1.54,1.23.06,1.23.06,2.77.06,4.01s0,2.77-.06,4.01c-.06,1.05-.49,1.23-1.54,1.23h-13.62c-.55,0-.74.25-.74,1.11v10.91c0,1.54-.55,2.1-1.85,2.22Z"/>
        <path class="cls-2" d="M343.58,67.93c0,1.23,0,3.51-.06,4.75-.06,1.54-.92,2.22-2.47,2.22-1.91,0-6.29-.12-8.81-.12v7.52c0,7.34,0,14.12-.18,19.11-.06,1.54-.68,2.1-1.97,2.22-1.23.12-4.38.25-7.46.25s-6.23-.12-7.46-.25c-1.29-.12-1.91-.68-1.97-2.22-.18-4.99-.18-11.77-.18-19.11v-7.52c-2.53,0-6.9.12-8.81.12-1.54,0-2.4-.68-2.47-2.22-.06-1.23-.06-3.51-.06-4.75s0-3.51.06-4.75c.06-1.54.92-2.1,2.16-2.22,1.73-.19,11.9-.25,18.74-.25s17.01.12,18.74.25c1.23.12,2.1.68,2.16,2.22.06,1.23.06,3.51.06,4.75Z"/>
      </g>
      <g>
        <rect class="cls-5" y="10.37" width="94.68" height="94.68" rx="8.05" ry="8.05"/>
        <g class="cls-6">
          <path class="cls-3" d="M166.66-34.7v-.81h-22.84c-1.81,0-3.27-1.47-3.27-3.27v-22.84h-.81v22.84c0,1.81-1.47,3.27-3.27,3.27h-19.15c-1.81,0-3.27-1.47-3.27-3.27v-22.84h-.81v22.84c0,1.81-1.47,3.27-3.27,3.27h-19.16c-1.81,0-3.27-1.47-3.27-3.27v-22.84h-.81v22.84c0,1.81-1.47,3.27-3.27,3.27h-19.16c-1.81,0-3.27-1.47-3.27-3.27v-22.84h-.81v22.84c0,1.81-1.47,3.27-3.27,3.27h-19.16c-1.81,0-3.27-1.47-3.27-3.27v-22.84h-.81v22.84c0,1.81-1.47,3.27-3.27,3.27H11.25c-1.81,0-3.27-1.47-3.27-3.27v-22.84h-.81v22.84c0,1.81-1.47,3.27-3.27,3.27H-15.27c-1.81,0-3.27-1.47-3.27-3.27v-22.84h-.81v22.84c0,1.81-1.47,3.27-3.27,3.27h-19.16c-1.81,0-3.27-1.47-3.27-3.27v-22.84h-.81v22.84c0,1.81-1.47,3.27-3.27,3.27h-22.84v.81h22.84c1.81,0,3.27,1.47,3.27,3.27V-12.27c0,1.81-1.47,3.27-3.27,3.27h-22.84v.81h22.84c1.81,0,3.27,1.47,3.27,3.27V14.25c0,1.81-1.47,3.27-3.27,3.27h-22.84v.81h22.84c1.81,0,3.27,1.47,3.27,3.27v19.16c0,1.81-1.47,3.27-3.27,3.27h-22.84v.81h22.84c1.81,0,3.27,1.47,3.27,3.27v19.16c0,1.81-1.47,3.27-3.27,3.27h-22.84v.81h22.84c1.81,0,3.27,1.47,3.27,3.27v19.16c0,1.81-1.47,3.27-3.27,3.27h-22.84v.81h22.84c1.81,0,3.27,1.47,3.27,3.27v19.16c0,1.81-1.47,3.27-3.27,3.27h-22.84v.81h22.84c1.81,0,3.27,1.47,3.27,3.27v19.16c0,1.81-1.47,3.27-3.27,3.27h-22.84v.81s22.84,0,22.84,0c1.81,0,3.27,1.47,3.27,3.27v22.84h.81v-22.84c0-1.81,1.47-3.27,3.27-3.27h19.16c1.81,0,3.27,1.47,3.27,3.27v22.84h.81v-22.84c0-1.81,1.47-3.27,3.27-3.27H3.89c1.81,0,3.27,1.47,3.27,3.27v22.84h.81v-22.84c0-1.81,1.47-3.27,3.27-3.27h19.16c1.81,0,3.27,1.47,3.27,3.27v22.84h.81v-22.84c0-1.81,1.47-3.27,3.27-3.27h19.16c1.81,0,3.27,1.47,3.27,3.27v22.84h.81v-22.84c0-1.81,1.47-3.27,3.27-3.27h19.16c1.81,0,3.27,1.47,3.27,3.27v22.84h.81v-22.84c0-1.81,1.47-3.27,3.27-3.27h19.16c1.81,0,3.27,1.47,3.27,3.27v22.84h.81v-22.84c0-1.81,1.47-3.27,3.27-3.27h19.15c1.81,0,3.27,1.47,3.27,3.27v22.84h.81v-22.84c0-1.81,1.47-3.27,3.27-3.27h22.84v-.81s-22.84,0-22.84,0c-1.81,0-3.27-1.47-3.27-3.27v-19.16c0-1.81,1.47-3.27,3.27-3.27h22.84v-.81h-22.84c-1.81,0-3.27-1.47-3.27-3.27v-19.16c0-1.81,1.47-3.27,3.27-3.27h22.84v-.81h-22.84c-1.81,0-3.27-1.47-3.27-3.27v-19.16c0-1.81,1.47-3.27,3.27-3.27h22.84v-.81h-22.84c-1.81,0-3.27-1.47-3.27-3.27v-19.16c0-1.81,1.47-3.27,3.27-3.27h22.84v-.81h-22.84c-1.81,0-3.27-1.47-3.27-3.27v-19.16c0-1.81,1.47-3.27,3.27-3.27h22.84v-.81h-22.84c-1.81,0-3.27-1.47-3.27-3.27V-4.9c0-1.81,1.47-3.27,3.27-3.27h22.84v-.81h-22.84c-1.81,0-3.27-1.47-3.27-3.27v-19.16c0-1.81,1.47-3.27,3.27-3.27h22.84ZM-22.63,150.12h-19.16c-1.81,0-3.27-1.47-3.27-3.27v-19.16c0-1.81,1.47-3.27,3.27-3.27h19.16c1.81,0,3.27,1.47,3.27,3.27v19.16c0,1.81-1.47,3.27-3.27,3.27ZM-22.63,123.6h-19.16c-1.81,0-3.27-1.47-3.27-3.27v-19.16c0-1.81,1.47-3.27,3.27-3.27h19.16c1.81,0,3.27,1.47,3.27,3.27v19.16c0,1.81-1.47,3.27-3.27,3.27ZM-22.63,97.08h-19.16c-1.81,0-3.27-1.47-3.27-3.27v-19.16c0-1.81,1.47-3.27,3.27-3.27h19.16c1.81,0,3.27,1.47,3.27,3.27v19.16c0,1.81-1.47,3.27-3.27,3.27ZM-22.63,70.56h-19.16c-1.81,0-3.27-1.47-3.27-3.27v-19.16c0-1.81,1.47-3.27,3.27-3.27h19.16c1.81,0,3.27,1.47,3.27,3.27v19.16c0,1.81-1.47,3.27-3.27,3.27ZM-22.63,44.05h-19.16c-1.81,0-3.27-1.47-3.27-3.27v-19.16c0-1.81,1.47-3.27,3.27-3.27h19.16c1.81,0,3.27,1.47,3.27,3.27v19.16c0,1.81-1.47,3.27-3.27,3.27ZM-22.63,17.53h-19.16c-1.81,0-3.27-1.47-3.27-3.27V-4.9c0-1.81,1.47-3.27,3.27-3.27h19.16c1.81,0,3.27,1.47,3.27,3.27V14.25c0,1.81-1.47,3.27-3.27,3.27ZM-22.63-8.99h-19.16c-1.81,0-3.27-1.47-3.27-3.27v-19.16c0-1.81,1.47-3.27,3.27-3.27h19.16c1.81,0,3.27,1.47,3.27,3.27V-12.27c0,1.81-1.47,3.27-3.27,3.27ZM3.89,150.12H-15.27c-1.81,0-3.27-1.47-3.27-3.27v-19.16c0-1.81,1.47-3.27,3.27-3.27H3.89c1.81,0,3.27,1.47,3.27,3.27v19.16c0,1.81-1.47,3.27-3.27,3.27ZM3.89,123.6H-15.27c-1.81,0-3.27-1.47-3.27-3.27v-19.16c0-1.81,1.47-3.27,3.27-3.27H3.89c1.81,0,3.27,1.47,3.27,3.27v19.16c0,1.81-1.47,3.27-3.27,3.27ZM3.89,97.08H-15.27c-1.81,0-3.27-1.47-3.27-3.27v-19.16c0-1.81,1.47-3.27,3.27-3.27H3.89c1.81,0,3.27,1.47,3.27,3.27v19.16c0,1.81-1.47,3.27-3.27,3.27ZM3.89,70.56H-15.27c-1.81,0-3.27-1.47-3.27-3.27v-19.16c0-1.81,1.47-3.27,3.27-3.27H3.89c1.81,0,3.27,1.47,3.27,3.27v19.16c0,1.81-1.47,3.27-3.27,3.27ZM3.89,44.05H-15.27c-1.81,0-3.27-1.47-3.27-3.27v-19.16c0-1.81,1.47-3.27,3.27-3.27H3.89c1.81,0,3.27,1.47,3.27,3.27v19.16c0,1.81-1.47,3.27-3.27,3.27ZM3.89,17.53H-15.27c-1.81,0-3.27-1.47-3.27-3.27V-4.9c0-1.81,1.47-3.27,3.27-3.27H3.89c1.81,0,3.27,1.47,3.27,3.27V14.25c0,1.81-1.47,3.27-3.27,3.27ZM3.89-8.99H-15.27c-1.81,0-3.27-1.47-3.27-3.27v-19.16c0-1.81,1.47-3.27,3.27-3.27H3.89c1.81,0,3.27,1.47,3.27,3.27V-12.27c0,1.81-1.47,3.27-3.27,3.27ZM30.41,150.12H11.25c-1.81,0-3.27-1.47-3.27-3.27v-19.16c0-1.81,1.47-3.27,3.27-3.27h19.16c1.81,0,3.27,1.47,3.27,3.27v19.16c0,1.81-1.47,3.27-3.27,3.27ZM30.41,123.6H11.25c-1.81,0-3.27-1.47-3.27-3.27v-19.16c0-1.81,1.47-3.27,3.27-3.27h19.16c1.81,0,3.27,1.47,3.27,3.27v19.16c0,1.81-1.47,3.27-3.27,3.27ZM30.41,97.08H11.25c-1.81,0-3.27-1.47-3.27-3.27v-19.16c0-1.81,1.47-3.27,3.27-3.27h19.16c1.81,0,3.27,1.47,3.27,3.27v19.16c0,1.81-1.47,3.27-3.27,3.27ZM30.41,70.56H11.25c-1.81,0-3.27-1.47-3.27-3.27v-19.16c0-1.81,1.47-3.27,3.27-3.27h19.16c1.81,0,3.27,1.47,3.27,3.27v19.16c0,1.81-1.47,3.27-3.27,3.27ZM30.41,44.05H11.25c-1.81,0-3.27-1.47-3.27-3.27v-19.16c0-1.81,1.47-3.27,3.27-3.27h19.16c1.81,0,3.27,1.47,3.27,3.27v19.16c0,1.81-1.47,3.27-3.27,3.27ZM30.41,17.53H11.25c-1.81,0-3.27-1.47-3.27-3.27V-4.9c0-1.81,1.47-3.27,3.27-3.27h19.16c1.81,0,3.27,1.47,3.27,3.27V14.25c0,1.81-1.47,3.27-3.27,3.27ZM30.41-8.99H11.25c-1.81,0-3.27-1.47-3.27-3.27v-19.16c0-1.81,1.47-3.27,3.27-3.27h19.16c1.81,0,3.27,1.47,3.27,3.27V-12.27c0,1.81-1.47,3.27-3.27,3.27ZM56.92,150.12h-19.16c-1.81,0-3.27-1.47-3.27-3.27v-19.16c0-1.81,1.47-3.27,3.27-3.27h19.16c1.81,0,3.27,1.47,3.27,3.27v19.16c0,1.81-1.47,3.27-3.27,3.27ZM56.92,123.6h-19.16c-1.81,0-3.27-1.47-3.27-3.27v-19.16c0-1.81,1.47-3.27,3.27-3.27h19.16c1.81,0,3.27,1.47,3.27,3.27v19.16c0,1.81-1.47,3.27-3.27,3.27ZM56.92,97.08h-19.16c-1.81,0-3.27-1.47-3.27-3.27v-19.16c0-1.81,1.47-3.27,3.27-3.27h19.16c1.81,0,3.27,1.47,3.27,3.27v19.16c0,1.81-1.47,3.27-3.27,3.27ZM56.92,70.56h-19.16c-1.81,0-3.27-1.47-3.27-3.27v-19.16c0-1.81,1.47-3.27,3.27-3.27h19.16c1.81,0,3.27,1.47,3.27,3.27v19.16c0,1.81-1.47,3.27-3.27,3.27ZM56.92,44.05h-19.16c-1.81,0-3.27-1.47-3.27-3.27v-19.16c0-1.81,1.47-3.27,3.27-3.27h19.16c1.81,0,3.27,1.47,3.27,3.27v19.16c0,1.81-1.47,3.27-3.27,3.27ZM56.92,17.53h-19.16c-1.81,0-3.27-1.47-3.27-3.27V-4.9c0-1.81,1.47-3.27,3.27-3.27h19.16c1.81,0,3.27,1.47,3.27,3.27V14.25c0,1.81-1.47,3.27-3.27,3.27ZM56.92-8.99h-19.16c-1.81,0-3.27-1.47-3.27-3.27v-19.16c0-1.81,1.47-3.27,3.27-3.27h19.16c1.81,0,3.27,1.47,3.27,3.27V-12.27c0,1.81-1.47,3.27-3.27,3.27ZM83.44,150.12h-19.16c-1.81,0-3.27-1.47-3.27-3.27v-19.16c0-1.81,1.47-3.27,3.27-3.27h19.16c1.81,0,3.27,1.47,3.27,3.27v19.16c0,1.81-1.47,3.27-3.27,3.27ZM83.44,123.6h-19.16c-1.81,0-3.27-1.47-3.27-3.27v-19.16c0-1.81,1.47-3.27,3.27-3.27h19.16c1.81,0,3.27,1.47,3.27,3.27v19.16c0,1.81-1.47,3.27-3.27,3.27ZM83.44,97.08h-19.16c-1.81,0-3.27-1.47-3.27-3.27v-19.16c0-1.81,1.47-3.27,3.27-3.27h19.16c1.81,0,3.27,1.47,3.27,3.27v19.16c0,1.81-1.47,3.27-3.27,3.27ZM83.44,70.56h-19.16c-1.81,0-3.27-1.47-3.27-3.27v-19.16c0-1.81,1.47-3.27,3.27-3.27h19.16c1.81,0,3.27,1.47,3.27,3.27v19.16c0,1.81-1.47,3.27-3.27,3.27ZM83.44,44.05h-19.16c-1.81,0-3.27-1.47-3.27-3.27v-19.16c0-1.81,1.47-3.27,3.27-3.27h19.16c1.81,0,3.27,1.47,3.27,3.27v19.16c0,1.81-1.47,3.27-3.27,3.27ZM83.44,17.53h-19.16c-1.81,0-3.27-1.47-3.27-3.27V-4.9c0-1.81,1.47-3.27,3.27-3.27h19.16c1.81,0,3.27,1.47,3.27,3.27V14.25c0,1.81-1.47,3.27-3.27,3.27ZM83.44-8.99h-19.16c-1.81,0-3.27-1.47-3.27-3.27v-19.16c0-1.81,1.47-3.27,3.27-3.27h19.16c1.81,0,3.27,1.47,3.27,3.27V-12.27c0,1.81-1.47,3.27-3.27,3.27ZM109.96,150.12h-19.16c-1.81,0-3.27-1.47-3.27-3.27v-19.16c0-1.81,1.47-3.27,3.27-3.27h19.16c1.81,0,3.27,1.47,3.27,3.27v19.16c0,1.81-1.47,3.27-3.27,3.27ZM109.96,123.6h-19.16c-1.81,0-3.27-1.47-3.27-3.27v-19.16c0-1.81,1.47-3.27,3.27-3.27h19.16c1.81,0,3.27,1.47,3.27,3.27v19.16c0,1.81-1.47,3.27-3.27,3.27ZM109.96,97.08h-19.16c-1.81,0-3.27-1.47-3.27-3.27v-19.16c0-1.81,1.47-3.27,3.27-3.27h19.16c1.81,0,3.27,1.47,3.27,3.27v19.16c0,1.81-1.47,3.27-3.27,3.27ZM109.96,70.56h-19.16c-1.81,0-3.27-1.47-3.27-3.27v-19.16c0-1.81,1.47-3.27,3.27-3.27h19.16c1.81,0,3.27,1.47,3.27,3.27v19.16c0,1.81-1.47,3.27-3.27,3.27ZM109.96,44.05h-19.16c-1.81,0-3.27-1.47-3.27-3.27v-19.16c0-1.81,1.47-3.27,3.27-3.27h19.16c1.81,0,3.27,1.47,3.27,3.27v19.16c0,1.81-1.47,3.27-3.27,3.27ZM109.96,17.53h-19.16c-1.81,0-3.27-1.47-3.27-3.27V-4.9c0-1.81,1.47-3.27,3.27-3.27h19.16c1.81,0,3.27,1.47,3.27,3.27V14.25c0,1.81-1.47,3.27-3.27,3.27ZM109.96-8.99h-19.16c-1.81,0-3.27-1.47-3.27-3.27v-19.16c0-1.81,1.47-3.27,3.27-3.27h19.16c1.81,0,3.27,1.47,3.27,3.27V-12.27c0,1.81-1.47,3.27-3.27,3.27ZM136.47,150.12h-19.15c-1.81,0-3.27-1.47-3.27-3.27v-19.16c0-1.81,1.47-3.27,3.27-3.27h19.15c1.81,0,3.27,1.47,3.27,3.27v19.16c0,1.81-1.47,3.27-3.27,3.27ZM136.47,123.6h-19.15c-1.81,0-3.27-1.47-3.27-3.27v-19.16c0-1.81,1.47-3.27,3.27-3.27h19.15c1.81,0,3.27,1.47,3.27,3.27v19.16c0,1.81-1.47,3.27-3.27,3.27ZM136.47,97.08h-19.15c-1.81,0-3.27-1.47-3.27-3.27v-19.16c0-1.81,1.47-3.27,3.27-3.27h19.15c1.81,0,3.27,1.47,3.27,3.27v19.16c0,1.81-1.47,3.27-3.27,3.27ZM136.47,70.56h-19.15c-1.81,0-3.27-1.47-3.27-3.27v-19.16c0-1.81,1.47-3.27,3.27-3.27h19.15c1.81,0,3.27,1.47,3.27,3.27v19.16c0,1.81-1.47,3.27-3.27,3.27ZM136.47,44.05h-19.15c-1.81,0-3.27-1.47-3.27-3.27v-19.16c0-1.81,1.47-3.27,3.27-3.27h19.15c1.81,0,3.27,1.47,3.27,3.27v19.16c0,1.81-1.47,3.27-3.27,3.27ZM136.47,17.53h-19.15c-1.81,0-3.27-1.47-3.27-3.27V-4.9c0-1.81,1.47-3.27,3.27-3.27h19.15c1.81,0,3.27,1.47,3.27,3.27V14.25c0,1.81-1.47,3.27-3.27,3.27ZM136.47-8.99h-19.15c-1.81,0-3.27-1.47-3.27-3.27v-19.16c0-1.81,1.47-3.27,3.27-3.27h19.15c1.81,0,3.27,1.47,3.27,3.27V-12.27c0,1.81-1.47,3.27-3.27,3.27Z"/>
        </g>
        <path class="cls-4" d="M59.02,49.54v16.57c0,1.57,1.14,2.95,2.7,3.15,5.24.67,9.94,3.09,13.49,6.65,3.39,3.38,5.75,7.81,6.55,12.76.32,1.96-1.16,3.75-3.14,3.75h-16.72c-1.76,0-3.19-1.43-3.19-3.19v-16.66c0-1.76-1.43-3.19-3.19-3.19h-25.27c-2.96,0-4.29,3.64-2.08,5.61.33.3.66.6.97.92,3.39,3.38,5.75,7.81,6.55,12.76.32,1.96-1.16,3.75-3.14,3.75H15.82c-1.76,0-3.19-1.43-3.19-3.19V26.18c0-1.76,1.43-3.19,3.19-3.19h16.98c1.76,0,3.19,1.43,3.19,3.19v25.58c0,2.92,3.62,4.32,5.55,2.14.69-.77,1.42-1.5,2.2-2.18,3.36-2.92,7.58-4.88,12.22-5.49,1.57-.21,2.74-1.57,2.74-3.15v-16.9c0-1.76,1.43-3.19,3.19-3.19h16.98c1.76,0,3.19,1.43,3.19,3.19v16.98c0,1.76-1.43,3.19-3.19,3.19h-16.66c-1.76,0-3.19,1.43-3.19,3.19Z"/>
      </g>
    </g>
  </g>
</svg>