<?xml version="1.0" encoding="UTF-8"?>
<svg id="Layer_2" data-name="Layer 2" xmlns="http://www.w3.org/2000/svg" xmlns:xlink="http://www.w3.org/1999/xlink" viewBox="0 0 88.64 88.64">
  <defs>
    <style>
      .cls-1 {
        fill: none;
      }

      .cls-2 {
        fill: #3a3adb;
      }

      .cls-3 {
        fill: #fff;
      }

      .cls-4 {
        fill: #4f46e5;
      }

      .cls-5 {
        clip-path: url(#clippath);
      }
    </style>
    <clipPath id="clippath">
      <rect class="cls-1" x="0" width="88.64" height="88.64" rx="7.53" ry="7.53"/>
    </clipPath>
  </defs>
  <g id="Layer_1-2" data-name="Layer 1">
    <g>
      <rect class="cls-4" x="0" width="88.64" height="88.64" rx="7.53" ry="7.53"/>
      <g class="cls-5">
        <path class="cls-2" d="M156.04-42.19v-.76h-21.38c-1.69,0-3.07-1.37-3.07-3.07v-21.38h-.76v21.38c0,1.69-1.37,3.07-3.07,3.07h-17.93c-1.69,0-3.07-1.37-3.07-3.07v-21.38h-.76v21.38c0,1.69-1.37,3.07-3.07,3.07h-17.94c-1.69,0-3.07-1.37-3.07-3.07v-21.38h-.76v21.38c0,1.69-1.37,3.07-3.07,3.07h-17.94c-1.69,0-3.07-1.37-3.07-3.07v-21.38h-.76v21.38c0,1.69-1.37,3.07-3.07,3.07h-17.94c-1.69,0-3.07-1.37-3.07-3.07v-21.38h-.76v21.38c0,1.69-1.37,3.07-3.07,3.07H10.53c-1.69,0-3.07-1.37-3.07-3.07v-21.38h-.76v21.38c0,1.69-1.37,3.07-3.07,3.07H-14.3c-1.69,0-3.07-1.37-3.07-3.07v-21.38h-.76v21.38c0,1.69-1.37,3.07-3.07,3.07h-17.94c-1.69,0-3.07-1.37-3.07-3.07v-21.38h-.76v21.38c0,1.69-1.37,3.07-3.07,3.07h-21.38v.76h21.38c1.69,0,3.07,1.37,3.07,3.07v17.94c0,1.69-1.37,3.07-3.07,3.07h-21.38v.76h21.38c1.69,0,3.07,1.37,3.07,3.07V3.64c0,1.69-1.37,3.07-3.07,3.07h-21.38v.76h21.38c1.69,0,3.07,1.37,3.07,3.07v17.94c0,1.69-1.37,3.07-3.07,3.07h-21.38v.76h21.38c1.69,0,3.07,1.37,3.07,3.07v17.94c0,1.69-1.37,3.07-3.07,3.07h-21.38v.76h21.38c1.69,0,3.07,1.37,3.07,3.07v17.94c0,1.69-1.37,3.07-3.07,3.07h-21.38v.76h21.38c1.69,0,3.07,1.37,3.07,3.07v17.94c0,1.69-1.37,3.07-3.07,3.07h-21.38v.76h21.38c1.69,0,3.07,1.37,3.07,3.07v17.94c0,1.69-1.37,3.07-3.07,3.07h-21.38v.76s21.38,0,21.38,0c1.69,0,3.07,1.37,3.07,3.07v21.38h.76v-21.38c0-1.69,1.37-3.07,3.07-3.07h17.94c1.69,0,3.07,1.37,3.07,3.07v21.38h.76v-21.38c0-1.69,1.37-3.07,3.07-3.07H3.64c1.69,0,3.07,1.37,3.07,3.07v21.38h.76v-21.38c0-1.69,1.37-3.07,3.07-3.07h17.94c1.69,0,3.07,1.37,3.07,3.07v21.38h.76v-21.38c0-1.69,1.37-3.07,3.07-3.07h17.94c1.69,0,3.07,1.37,3.07,3.07v21.38h.76v-21.38c0-1.69,1.37-3.07,3.07-3.07h17.94c1.69,0,3.07,1.37,3.07,3.07v21.38h.76v-21.38c0-1.69,1.37-3.07,3.07-3.07h17.94c1.69,0,3.07,1.37,3.07,3.07v21.38h.76v-21.38c0-1.69,1.37-3.07,3.07-3.07h17.93c1.69,0,3.07,1.37,3.07,3.07v21.38h.76v-21.38c0-1.69,1.37-3.07,3.07-3.07h21.38v-.76s-21.38,0-21.38,0c-1.69,0-3.07-1.37-3.07-3.07v-17.94c0-1.69,1.37-3.07,3.07-3.07h21.38v-.76h-21.38c-1.69,0-3.07-1.37-3.07-3.07v-17.94c0-1.69,1.37-3.07,3.07-3.07h21.38v-.76h-21.38c-1.69,0-3.07-1.37-3.07-3.07v-17.94c0-1.69,1.37-3.07,3.07-3.07h21.38v-.76h-21.38c-1.69,0-3.07-1.37-3.07-3.07v-17.94c0-1.69,1.37-3.07,3.07-3.07h21.38v-.76h-21.38c-1.69,0-3.07-1.37-3.07-3.07V10.53c0-1.69,1.37-3.07,3.07-3.07h21.38v-.76h-21.38c-1.69,0-3.07-1.37-3.07-3.07V-14.3c0-1.69,1.37-3.07,3.07-3.07h21.38v-.76h-21.38c-1.69,0-3.07-1.37-3.07-3.07v-17.94c0-1.69,1.37-3.07,3.07-3.07h21.38ZM-21.19,130.84h-17.94c-1.69,0-3.07-1.37-3.07-3.07v-17.94c0-1.69,1.37-3.07,3.07-3.07h17.94c1.69,0,3.07,1.37,3.07,3.07v17.94c0,1.69-1.37,3.07-3.07,3.07ZM-21.19,106.01h-17.94c-1.69,0-3.07-1.37-3.07-3.07v-17.94c0-1.69,1.37-3.07,3.07-3.07h17.94c1.69,0,3.07,1.37,3.07,3.07v17.94c0,1.69-1.37,3.07-3.07,3.07ZM-21.19,81.18h-17.94c-1.69,0-3.07-1.37-3.07-3.07v-17.94c0-1.69,1.37-3.07,3.07-3.07h17.94c1.69,0,3.07,1.37,3.07,3.07v17.94c0,1.69-1.37,3.07-3.07,3.07ZM-21.19,56.36h-17.94c-1.69,0-3.07-1.37-3.07-3.07v-17.94c0-1.69,1.37-3.07,3.07-3.07h17.94c1.69,0,3.07,1.37,3.07,3.07v17.94c0,1.69-1.37,3.07-3.07,3.07ZM-21.19,31.53h-17.94c-1.69,0-3.07-1.37-3.07-3.07V10.53c0-1.69,1.37-3.07,3.07-3.07h17.94c1.69,0,3.07,1.37,3.07,3.07v17.94c0,1.69-1.37,3.07-3.07,3.07ZM-21.19,6.7h-17.94c-1.69,0-3.07-1.37-3.07-3.07V-14.3c0-1.69,1.37-3.07,3.07-3.07h17.94c1.69,0,3.07,1.37,3.07,3.07V3.64c0,1.69-1.37,3.07-3.07,3.07ZM-21.19-18.13h-17.94c-1.69,0-3.07-1.37-3.07-3.07v-17.94c0-1.69,1.37-3.07,3.07-3.07h17.94c1.69,0,3.07,1.37,3.07,3.07v17.94c0,1.69-1.37,3.07-3.07,3.07ZM3.64,130.84H-14.3c-1.69,0-3.07-1.37-3.07-3.07v-17.94c0-1.69,1.37-3.07,3.07-3.07H3.64c1.69,0,3.07,1.37,3.07,3.07v17.94c0,1.69-1.37,3.07-3.07,3.07ZM3.64,106.01H-14.3c-1.69,0-3.07-1.37-3.07-3.07v-17.94c0-1.69,1.37-3.07,3.07-3.07H3.64c1.69,0,3.07,1.37,3.07,3.07v17.94c0,1.69-1.37,3.07-3.07,3.07ZM3.64,81.18H-14.3c-1.69,0-3.07-1.37-3.07-3.07v-17.94c0-1.69,1.37-3.07,3.07-3.07H3.64c1.69,0,3.07,1.37,3.07,3.07v17.94c0,1.69-1.37,3.07-3.07,3.07ZM3.64,56.36H-14.3c-1.69,0-3.07-1.37-3.07-3.07v-17.94c0-1.69,1.37-3.07,3.07-3.07H3.64c1.69,0,3.07,1.37,3.07,3.07v17.94c0,1.69-1.37,3.07-3.07,3.07ZM3.64,31.53H-14.3c-1.69,0-3.07-1.37-3.07-3.07V10.53c0-1.69,1.37-3.07,3.07-3.07H3.64c1.69,0,3.07,1.37,3.07,3.07v17.94c0,1.69-1.37,3.07-3.07,3.07ZM3.64,6.7H-14.3c-1.69,0-3.07-1.37-3.07-3.07V-14.3c0-1.69,1.37-3.07,3.07-3.07H3.64c1.69,0,3.07,1.37,3.07,3.07V3.64c0,1.69-1.37,3.07-3.07,3.07ZM3.64-18.13H-14.3c-1.69,0-3.07-1.37-3.07-3.07v-17.94c0-1.69,1.37-3.07,3.07-3.07H3.64c1.69,0,3.07,1.37,3.07,3.07v17.94c0,1.69-1.37,3.07-3.07,3.07ZM28.47,130.84H10.53c-1.69,0-3.07-1.37-3.07-3.07v-17.94c0-1.69,1.37-3.07,3.07-3.07h17.94c1.69,0,3.07,1.37,3.07,3.07v17.94c0,1.69-1.37,3.07-3.07,3.07ZM28.47,106.01H10.53c-1.69,0-3.07-1.37-3.07-3.07v-17.94c0-1.69,1.37-3.07,3.07-3.07h17.94c1.69,0,3.07,1.37,3.07,3.07v17.94c0,1.69-1.37,3.07-3.07,3.07ZM28.47,81.18H10.53c-1.69,0-3.07-1.37-3.07-3.07v-17.94c0-1.69,1.37-3.07,3.07-3.07h17.94c1.69,0,3.07,1.37,3.07,3.07v17.94c0,1.69-1.37,3.07-3.07,3.07ZM28.47,56.36H10.53c-1.69,0-3.07-1.37-3.07-3.07v-17.94c0-1.69,1.37-3.07,3.07-3.07h17.94c1.69,0,3.07,1.37,3.07,3.07v17.94c0,1.69-1.37,3.07-3.07,3.07ZM28.47,31.53H10.53c-1.69,0-3.07-1.37-3.07-3.07V10.53c0-1.69,1.37-3.07,3.07-3.07h17.94c1.69,0,3.07,1.37,3.07,3.07v17.94c0,1.69-1.37,3.07-3.07,3.07ZM28.47,6.7H10.53c-1.69,0-3.07-1.37-3.07-3.07V-14.3c0-1.69,1.37-3.07,3.07-3.07h17.94c1.69,0,3.07,1.37,3.07,3.07V3.64c0,1.69-1.37,3.07-3.07,3.07ZM28.47-18.13H10.53c-1.69,0-3.07-1.37-3.07-3.07v-17.94c0-1.69,1.37-3.07,3.07-3.07h17.94c1.69,0,3.07,1.37,3.07,3.07v17.94c0,1.69-1.37,3.07-3.07,3.07ZM53.29,130.84h-17.94c-1.69,0-3.07-1.37-3.07-3.07v-17.94c0-1.69,1.37-3.07,3.07-3.07h17.94c1.69,0,3.07,1.37,3.07,3.07v17.94c0,1.69-1.37,3.07-3.07,3.07ZM53.29,106.01h-17.94c-1.69,0-3.07-1.37-3.07-3.07v-17.94c0-1.69,1.37-3.07,3.07-3.07h17.94c1.69,0,3.07,1.37,3.07,3.07v17.94c0,1.69-1.37,3.07-3.07,3.07ZM53.29,81.18h-17.94c-1.69,0-3.07-1.37-3.07-3.07v-17.94c0-1.69,1.37-3.07,3.07-3.07h17.94c1.69,0,3.07,1.37,3.07,3.07v17.94c0,1.69-1.37,3.07-3.07,3.07ZM53.29,56.36h-17.94c-1.69,0-3.07-1.37-3.07-3.07v-17.94c0-1.69,1.37-3.07,3.07-3.07h17.94c1.69,0,3.07,1.37,3.07,3.07v17.94c0,1.69-1.37,3.07-3.07,3.07ZM53.29,31.53h-17.94c-1.69,0-3.07-1.37-3.07-3.07V10.53c0-1.69,1.37-3.07,3.07-3.07h17.94c1.69,0,3.07,1.37,3.07,3.07v17.94c0,1.69-1.37,3.07-3.07,3.07ZM53.29,6.7h-17.94c-1.69,0-3.07-1.37-3.07-3.07V-14.3c0-1.69,1.37-3.07,3.07-3.07h17.94c1.69,0,3.07,1.37,3.07,3.07V3.64c0,1.69-1.37,3.07-3.07,3.07ZM53.29-18.13h-17.94c-1.69,0-3.07-1.37-3.07-3.07v-17.94c0-1.69,1.37-3.07,3.07-3.07h17.94c1.69,0,3.07,1.37,3.07,3.07v17.94c0,1.69-1.37,3.07-3.07,3.07ZM78.12,130.84h-17.94c-1.69,0-3.07-1.37-3.07-3.07v-17.94c0-1.69,1.37-3.07,3.07-3.07h17.94c1.69,0,3.07,1.37,3.07,3.07v17.94c0,1.69-1.37,3.07-3.07,3.07ZM78.12,106.01h-17.94c-1.69,0-3.07-1.37-3.07-3.07v-17.94c0-1.69,1.37-3.07,3.07-3.07h17.94c1.69,0,3.07,1.37,3.07,3.07v17.94c0,1.69-1.37,3.07-3.07,3.07ZM78.12,81.18h-17.94c-1.69,0-3.07-1.37-3.07-3.07v-17.94c0-1.69,1.37-3.07,3.07-3.07h17.94c1.69,0,3.07,1.37,3.07,3.07v17.94c0,1.69-1.37,3.07-3.07,3.07ZM78.12,56.36h-17.94c-1.69,0-3.07-1.37-3.07-3.07v-17.94c0-1.69,1.37-3.07,3.07-3.07h17.94c1.69,0,3.07,1.37,3.07,3.07v17.94c0,1.69-1.37,3.07-3.07,3.07ZM78.12,31.53h-17.94c-1.69,0-3.07-1.37-3.07-3.07V10.53c0-1.69,1.37-3.07,3.07-3.07h17.94c1.69,0,3.07,1.37,3.07,3.07v17.94c0,1.69-1.37,3.07-3.07,3.07ZM78.12,6.7h-17.94c-1.69,0-3.07-1.37-3.07-3.07V-14.3c0-1.69,1.37-3.07,3.07-3.07h17.94c1.69,0,3.07,1.37,3.07,3.07V3.64c0,1.69-1.37,3.07-3.07,3.07ZM78.12-18.13h-17.94c-1.69,0-3.07-1.37-3.07-3.07v-17.94c0-1.69,1.37-3.07,3.07-3.07h17.94c1.69,0,3.07,1.37,3.07,3.07v17.94c0,1.69-1.37,3.07-3.07,3.07ZM102.95,130.84h-17.94c-1.69,0-3.07-1.37-3.07-3.07v-17.94c0-1.69,1.37-3.07,3.07-3.07h17.94c1.69,0,3.07,1.37,3.07,3.07v17.94c0,1.69-1.37,3.07-3.07,3.07ZM102.95,106.01h-17.94c-1.69,0-3.07-1.37-3.07-3.07v-17.94c0-1.69,1.37-3.07,3.07-3.07h17.94c1.69,0,3.07,1.37,3.07,3.07v17.94c0,1.69-1.37,3.07-3.07,3.07ZM102.95,81.18h-17.94c-1.69,0-3.07-1.37-3.07-3.07v-17.94c0-1.69,1.37-3.07,3.07-3.07h17.94c1.69,0,3.07,1.37,3.07,3.07v17.94c0,1.69-1.37,3.07-3.07,3.07ZM102.95,56.36h-17.94c-1.69,0-3.07-1.37-3.07-3.07v-17.94c0-1.69,1.37-3.07,3.07-3.07h17.94c1.69,0,3.07,1.37,3.07,3.07v17.94c0,1.69-1.37,3.07-3.07,3.07ZM102.95,31.53h-17.94c-1.69,0-3.07-1.37-3.07-3.07V10.53c0-1.69,1.37-3.07,3.07-3.07h17.94c1.69,0,3.07,1.37,3.07,3.07v17.94c0,1.69-1.37,3.07-3.07,3.07ZM102.95,6.7h-17.94c-1.69,0-3.07-1.37-3.07-3.07V-14.3c0-1.69,1.37-3.07,3.07-3.07h17.94c1.69,0,3.07,1.37,3.07,3.07V3.64c0,1.69-1.37,3.07-3.07,3.07ZM102.95-18.13h-17.94c-1.69,0-3.07-1.37-3.07-3.07v-17.94c0-1.69,1.37-3.07,3.07-3.07h17.94c1.69,0,3.07,1.37,3.07,3.07v17.94c0,1.69-1.37,3.07-3.07,3.07ZM127.77,130.84h-17.93c-1.69,0-3.07-1.37-3.07-3.07v-17.94c0-1.69,1.37-3.07,3.07-3.07h17.93c1.69,0,3.07,1.37,3.07,3.07v17.94c0,1.69-1.37,3.07-3.07,3.07ZM127.77,106.01h-17.93c-1.69,0-3.07-1.37-3.07-3.07v-17.94c0-1.69,1.37-3.07,3.07-3.07h17.93c1.69,0,3.07,1.37,3.07,3.07v17.94c0,1.69-1.37,3.07-3.07,3.07ZM127.77,81.18h-17.93c-1.69,0-3.07-1.37-3.07-3.07v-17.94c0-1.69,1.37-3.07,3.07-3.07h17.93c1.69,0,3.07,1.37,3.07,3.07v17.94c0,1.69-1.37,3.07-3.07,3.07ZM127.77,56.36h-17.93c-1.69,0-3.07-1.37-3.07-3.07v-17.94c0-1.69,1.37-3.07,3.07-3.07h17.93c1.69,0,3.07,1.37,3.07,3.07v17.94c0,1.69-1.37,3.07-3.07,3.07ZM127.77,31.53h-17.93c-1.69,0-3.07-1.37-3.07-3.07V10.53c0-1.69,1.37-3.07,3.07-3.07h17.93c1.69,0,3.07,1.37,3.07,3.07v17.94c0,1.69-1.37,3.07-3.07,3.07ZM127.77,6.7h-17.93c-1.69,0-3.07-1.37-3.07-3.07V-14.3c0-1.69,1.37-3.07,3.07-3.07h17.93c1.69,0,3.07,1.37,3.07,3.07V3.64c0,1.69-1.37,3.07-3.07,3.07ZM127.77-18.13h-17.93c-1.69,0-3.07-1.37-3.07-3.07v-17.94c0-1.69,1.37-3.07,3.07-3.07h17.93c1.69,0,3.07,1.37,3.07,3.07v17.94c0,1.69-1.37,3.07-3.07,3.07Z"/>
      </g>
      <path class="cls-3" d="M55.26,36.67v15.52c0,1.47,1.07,2.76,2.53,2.95,4.91.63,9.3,2.9,12.63,6.22,3.18,3.17,5.38,7.31,6.13,11.95.3,1.84-1.08,3.51-2.94,3.51h-15.66c-1.65,0-2.99-1.34-2.99-2.99v-15.6c0-1.65-1.34-2.99-2.99-2.99h-23.66c-2.77,0-4.01,3.4-1.94,5.25.31.28.61.56.91.86,3.18,3.17,5.38,7.31,6.13,11.95.3,1.84-1.08,3.51-2.94,3.51h-15.66c-1.65,0-2.99-1.34-2.99-2.99V14.8c0-1.65,1.34-2.99,2.99-2.99h15.9c1.65,0,2.99,1.34,2.99,2.99v23.95c0,2.73,3.38,4.05,5.2,2,.64-.72,1.33-1.41,2.06-2.04,3.15-2.73,7.1-4.57,11.45-5.14,1.47-.19,2.56-1.47,2.56-2.95v-15.82c0-1.65,1.34-2.99,2.99-2.99h15.9c1.65,0,2.99,1.34,2.99,2.99v15.9c0,1.65-1.34,2.99-2.99,2.99h-15.6c-1.65,0-2.99,1.34-2.99,2.99Z"/>
    </g>
  </g>
</svg>