<?xml version="1.0" encoding="UTF-8"?>
<svg id="Layer_2" data-name="Layer 2" xmlns="http://www.w3.org/2000/svg" xmlns:xlink="http://www.w3.org/1999/xlink" viewBox="0 0 83.34 83.34">
  <defs>
    <style>
      .cls-1 {
        fill: none;
      }

      .cls-2 {
        fill: #3a3adb;
      }

      .cls-3 {
        fill: #fff;
      }

      .cls-4 {
        fill: #4f46e5;
      }

      .cls-5 {
        clip-path: url(#clippath);
      }
    </style>
    <clipPath id="clippath">
      <rect class="cls-1" width="83.34" height="83.34" rx="7.08" ry="7.08"/>
    </clipPath>
  </defs>
  <g id="Layer_1-2" data-name="Layer 1">
    <rect class="cls-4" width="83.34" height="83.34" rx="7.08" ry="7.08"/>
    <g class="cls-5">
      <path class="cls-2" d="M103.27-6.03v-.42h-11.79c-.93,0-1.69-.76-1.69-1.69v-11.79h-.42v11.79c0,.93-.76,1.69-1.69,1.69h-9.89c-.93,0-1.69-.76-1.69-1.69v-11.79h-.42v11.79c0,.93-.76,1.69-1.69,1.69h-9.89c-.93,0-1.69-.76-1.69-1.69v-11.79h-.42v11.79c0,.93-.76,1.69-1.69,1.69h-9.89c-.93,0-1.69-.76-1.69-1.69v-11.79h-.42v11.79c0,.93-.76,1.69-1.69,1.69h-9.89c-.93,0-1.69-.76-1.69-1.69v-11.79h-.42v11.79c0,.93-.76,1.69-1.69,1.69h-9.89c-.93,0-1.69-.76-1.69-1.69v-11.79h-.42v11.79c0,.93-.76,1.69-1.69,1.69h-9.89c-.93,0-1.69-.76-1.69-1.69v-11.79h-.42v11.79c0,.93-.76,1.69-1.69,1.69H-4.34c-.93,0-1.69-.76-1.69-1.69v-11.79h-.42v11.79c0,.93-.76,1.69-1.69,1.69h-11.79v.42h11.79c.93,0,1.69.76,1.69,1.69V5.55c0,.93-.76,1.69-1.69,1.69h-11.79v.42h11.79c.93,0,1.69.76,1.69,1.69v9.89c0,.93-.76,1.69-1.69,1.69h-11.79v.42h11.79c.93,0,1.69.76,1.69,1.69v9.89c0,.93-.76,1.69-1.69,1.69h-11.79v.42h11.79c.93,0,1.69.76,1.69,1.69v9.89c0,.93-.76,1.69-1.69,1.69h-11.79v.42h11.79c.93,0,1.69.76,1.69,1.69v9.89c0,.93-.76,1.69-1.69,1.69h-11.79v.42h11.79c.93,0,1.69.76,1.69,1.69v9.89c0,.93-.76,1.69-1.69,1.69h-11.79v.42h11.79c.93,0,1.69.76,1.69,1.69v9.89c0,.93-.76,1.69-1.69,1.69h-11.79v.42s11.79,0,11.79,0c.93,0,1.69.76,1.69,1.69v11.79h.42v-11.79c0-.93.76-1.69,1.69-1.69H5.55c.93,0,1.69.76,1.69,1.69v11.79h.42v-11.79c0-.93.76-1.69,1.69-1.69h9.89c.93,0,1.69.76,1.69,1.69v11.79h.42v-11.79c0-.93.76-1.69,1.69-1.69h9.89c.93,0,1.69.76,1.69,1.69v11.79h.42v-11.79c0-.93.76-1.69,1.69-1.69h9.89c.93,0,1.69.76,1.69,1.69v11.79h.42v-11.79c0-.93.76-1.69,1.69-1.69h9.89c.93,0,1.69.76,1.69,1.69v11.79h.42v-11.79c0-.93.76-1.69,1.69-1.69h9.89c.93,0,1.69.76,1.69,1.69v11.79h.42v-11.79c0-.93.76-1.69,1.69-1.69h9.89c.93,0,1.69.76,1.69,1.69v11.79h.42v-11.79c0-.93.76-1.69,1.69-1.69h11.79v-.42s-11.79,0-11.79,0c-.93,0-1.69-.76-1.69-1.69v-9.89c0-.93.76-1.69,1.69-1.69h11.79v-.42h-11.79c-.93,0-1.69-.76-1.69-1.69v-9.89c0-.93.76-1.69,1.69-1.69h11.79v-.42h-11.79c-.93,0-1.69-.76-1.69-1.69v-9.89c0-.93.76-1.69,1.69-1.69h11.79v-.42h-11.79c-.93,0-1.69-.76-1.69-1.69v-9.89c0-.93.76-1.69,1.69-1.69h11.79v-.42h-11.79c-.93,0-1.69-.76-1.69-1.69v-9.89c0-.93.76-1.69,1.69-1.69h11.79v-.42h-11.79c-.93,0-1.69-.76-1.69-1.69v-9.89c0-.93.76-1.69,1.69-1.69h11.79v-.42h-11.79c-.93,0-1.69-.76-1.69-1.69V-4.34c0-.93.76-1.69,1.69-1.69h11.79ZM5.55,89.38H-4.34c-.93,0-1.69-.76-1.69-1.69v-9.89c0-.93.76-1.69,1.69-1.69H5.55c.93,0,1.69.76,1.69,1.69v9.89c0,.93-.76,1.69-1.69,1.69ZM5.55,75.69H-4.34c-.93,0-1.69-.76-1.69-1.69v-9.89c0-.93.76-1.69,1.69-1.69H5.55c.93,0,1.69.76,1.69,1.69v9.89c0,.93-.76,1.69-1.69,1.69ZM5.55,62H-4.34c-.93,0-1.69-.76-1.69-1.69v-9.89c0-.93.76-1.69,1.69-1.69H5.55c.93,0,1.69.76,1.69,1.69v9.89c0,.93-.76,1.69-1.69,1.69ZM5.55,48.31H-4.34c-.93,0-1.69-.76-1.69-1.69v-9.89c0-.93.76-1.69,1.69-1.69H5.55c.93,0,1.69.76,1.69,1.69v9.89c0,.93-.76,1.69-1.69,1.69ZM5.55,34.62H-4.34c-.93,0-1.69-.76-1.69-1.69v-9.89c0-.93.76-1.69,1.69-1.69H5.55c.93,0,1.69.76,1.69,1.69v9.89c0,.93-.76,1.69-1.69,1.69ZM5.55,20.93H-4.34c-.93,0-1.69-.76-1.69-1.69v-9.89c0-.93.76-1.69,1.69-1.69H5.55c.93,0,1.69.76,1.69,1.69v9.89c0,.93-.76,1.69-1.69,1.69ZM5.55,7.24H-4.34c-.93,0-1.69-.76-1.69-1.69V-4.34c0-.93.76-1.69,1.69-1.69H5.55c.93,0,1.69.76,1.69,1.69V5.55c0,.93-.76,1.69-1.69,1.69ZM19.24,89.38h-9.89c-.93,0-1.69-.76-1.69-1.69v-9.89c0-.93.76-1.69,1.69-1.69h9.89c.93,0,1.69.76,1.69,1.69v9.89c0,.93-.76,1.69-1.69,1.69ZM19.24,75.69h-9.89c-.93,0-1.69-.76-1.69-1.69v-9.89c0-.93.76-1.69,1.69-1.69h9.89c.93,0,1.69.76,1.69,1.69v9.89c0,.93-.76,1.69-1.69,1.69ZM19.24,62h-9.89c-.93,0-1.69-.76-1.69-1.69v-9.89c0-.93.76-1.69,1.69-1.69h9.89c.93,0,1.69.76,1.69,1.69v9.89c0,.93-.76,1.69-1.69,1.69ZM19.24,48.31h-9.89c-.93,0-1.69-.76-1.69-1.69v-9.89c0-.93.76-1.69,1.69-1.69h9.89c.93,0,1.69.76,1.69,1.69v9.89c0,.93-.76,1.69-1.69,1.69ZM19.24,34.62h-9.89c-.93,0-1.69-.76-1.69-1.69v-9.89c0-.93.76-1.69,1.69-1.69h9.89c.93,0,1.69.76,1.69,1.69v9.89c0,.93-.76,1.69-1.69,1.69ZM19.24,20.93h-9.89c-.93,0-1.69-.76-1.69-1.69v-9.89c0-.93.76-1.69,1.69-1.69h9.89c.93,0,1.69.76,1.69,1.69v9.89c0,.93-.76,1.69-1.69,1.69ZM19.24,7.24h-9.89c-.93,0-1.69-.76-1.69-1.69V-4.34c0-.93.76-1.69,1.69-1.69h9.89c.93,0,1.69.76,1.69,1.69V5.55c0,.93-.76,1.69-1.69,1.69ZM32.93,89.38h-9.89c-.93,0-1.69-.76-1.69-1.69v-9.89c0-.93.76-1.69,1.69-1.69h9.89c.93,0,1.69.76,1.69,1.69v9.89c0,.93-.76,1.69-1.69,1.69ZM32.93,75.69h-9.89c-.93,0-1.69-.76-1.69-1.69v-9.89c0-.93.76-1.69,1.69-1.69h9.89c.93,0,1.69.76,1.69,1.69v9.89c0,.93-.76,1.69-1.69,1.69ZM32.93,62h-9.89c-.93,0-1.69-.76-1.69-1.69v-9.89c0-.93.76-1.69,1.69-1.69h9.89c.93,0,1.69.76,1.69,1.69v9.89c0,.93-.76,1.69-1.69,1.69ZM32.93,48.31h-9.89c-.93,0-1.69-.76-1.69-1.69v-9.89c0-.93.76-1.69,1.69-1.69h9.89c.93,0,1.69.76,1.69,1.69v9.89c0,.93-.76,1.69-1.69,1.69ZM32.93,34.62h-9.89c-.93,0-1.69-.76-1.69-1.69v-9.89c0-.93.76-1.69,1.69-1.69h9.89c.93,0,1.69.76,1.69,1.69v9.89c0,.93-.76,1.69-1.69,1.69ZM32.93,20.93h-9.89c-.93,0-1.69-.76-1.69-1.69v-9.89c0-.93.76-1.69,1.69-1.69h9.89c.93,0,1.69.76,1.69,1.69v9.89c0,.93-.76,1.69-1.69,1.69ZM32.93,7.24h-9.89c-.93,0-1.69-.76-1.69-1.69V-4.34c0-.93.76-1.69,1.69-1.69h9.89c.93,0,1.69.76,1.69,1.69V5.55c0,.93-.76,1.69-1.69,1.69ZM46.62,89.38h-9.89c-.93,0-1.69-.76-1.69-1.69v-9.89c0-.93.76-1.69,1.69-1.69h9.89c.93,0,1.69.76,1.69,1.69v9.89c0,.93-.76,1.69-1.69,1.69ZM46.62,75.69h-9.89c-.93,0-1.69-.76-1.69-1.69v-9.89c0-.93.76-1.69,1.69-1.69h9.89c.93,0,1.69.76,1.69,1.69v9.89c0,.93-.76,1.69-1.69,1.69ZM46.62,62h-9.89c-.93,0-1.69-.76-1.69-1.69v-9.89c0-.93.76-1.69,1.69-1.69h9.89c.93,0,1.69.76,1.69,1.69v9.89c0,.93-.76,1.69-1.69,1.69ZM46.62,48.31h-9.89c-.93,0-1.69-.76-1.69-1.69v-9.89c0-.93.76-1.69,1.69-1.69h9.89c.93,0,1.69.76,1.69,1.69v9.89c0,.93-.76,1.69-1.69,1.69ZM46.62,34.62h-9.89c-.93,0-1.69-.76-1.69-1.69v-9.89c0-.93.76-1.69,1.69-1.69h9.89c.93,0,1.69.76,1.69,1.69v9.89c0,.93-.76,1.69-1.69,1.69ZM46.62,20.93h-9.89c-.93,0-1.69-.76-1.69-1.69v-9.89c0-.93.76-1.69,1.69-1.69h9.89c.93,0,1.69.76,1.69,1.69v9.89c0,.93-.76,1.69-1.69,1.69ZM46.62,7.24h-9.89c-.93,0-1.69-.76-1.69-1.69V-4.34c0-.93.76-1.69,1.69-1.69h9.89c.93,0,1.69.76,1.69,1.69V5.55c0,.93-.76,1.69-1.69,1.69ZM60.31,89.38h-9.89c-.93,0-1.69-.76-1.69-1.69v-9.89c0-.93.76-1.69,1.69-1.69h9.89c.93,0,1.69.76,1.69,1.69v9.89c0,.93-.76,1.69-1.69,1.69ZM60.31,75.69h-9.89c-.93,0-1.69-.76-1.69-1.69v-9.89c0-.93.76-1.69,1.69-1.69h9.89c.93,0,1.69.76,1.69,1.69v9.89c0,.93-.76,1.69-1.69,1.69ZM60.31,62h-9.89c-.93,0-1.69-.76-1.69-1.69v-9.89c0-.93.76-1.69,1.69-1.69h9.89c.93,0,1.69.76,1.69,1.69v9.89c0,.93-.76,1.69-1.69,1.69ZM60.31,48.31h-9.89c-.93,0-1.69-.76-1.69-1.69v-9.89c0-.93.76-1.69,1.69-1.69h9.89c.93,0,1.69.76,1.69,1.69v9.89c0,.93-.76,1.69-1.69,1.69ZM60.31,34.62h-9.89c-.93,0-1.69-.76-1.69-1.69v-9.89c0-.93.76-1.69,1.69-1.69h9.89c.93,0,1.69.76,1.69,1.69v9.89c0,.93-.76,1.69-1.69,1.69ZM60.31,20.93h-9.89c-.93,0-1.69-.76-1.69-1.69v-9.89c0-.93.76-1.69,1.69-1.69h9.89c.93,0,1.69.76,1.69,1.69v9.89c0,.93-.76,1.69-1.69,1.69ZM60.31,7.24h-9.89c-.93,0-1.69-.76-1.69-1.69V-4.34c0-.93.76-1.69,1.69-1.69h9.89c.93,0,1.69.76,1.69,1.69V5.55c0,.93-.76,1.69-1.69,1.69ZM74,89.38h-9.89c-.93,0-1.69-.76-1.69-1.69v-9.89c0-.93.76-1.69,1.69-1.69h9.89c.93,0,1.69.76,1.69,1.69v9.89c0,.93-.76,1.69-1.69,1.69ZM74,75.69h-9.89c-.93,0-1.69-.76-1.69-1.69v-9.89c0-.93.76-1.69,1.69-1.69h9.89c.93,0,1.69.76,1.69,1.69v9.89c0,.93-.76,1.69-1.69,1.69ZM74,62h-9.89c-.93,0-1.69-.76-1.69-1.69v-9.89c0-.93.76-1.69,1.69-1.69h9.89c.93,0,1.69.76,1.69,1.69v9.89c0,.93-.76,1.69-1.69,1.69ZM74,48.31h-9.89c-.93,0-1.69-.76-1.69-1.69v-9.89c0-.93.76-1.69,1.69-1.69h9.89c.93,0,1.69.76,1.69,1.69v9.89c0,.93-.76,1.69-1.69,1.69ZM74,34.62h-9.89c-.93,0-1.69-.76-1.69-1.69v-9.89c0-.93.76-1.69,1.69-1.69h9.89c.93,0,1.69.76,1.69,1.69v9.89c0,.93-.76,1.69-1.69,1.69ZM74,20.93h-9.89c-.93,0-1.69-.76-1.69-1.69v-9.89c0-.93.76-1.69,1.69-1.69h9.89c.93,0,1.69.76,1.69,1.69v9.89c0,.93-.76,1.69-1.69,1.69ZM74,7.24h-9.89c-.93,0-1.69-.76-1.69-1.69V-4.34c0-.93.76-1.69,1.69-1.69h9.89c.93,0,1.69.76,1.69,1.69V5.55c0,.93-.76,1.69-1.69,1.69ZM87.68,89.38h-9.89c-.93,0-1.69-.76-1.69-1.69v-9.89c0-.93.76-1.69,1.69-1.69h9.89c.93,0,1.69.76,1.69,1.69v9.89c0,.93-.76,1.69-1.69,1.69ZM87.68,75.69h-9.89c-.93,0-1.69-.76-1.69-1.69v-9.89c0-.93.76-1.69,1.69-1.69h9.89c.93,0,1.69.76,1.69,1.69v9.89c0,.93-.76,1.69-1.69,1.69ZM87.68,62h-9.89c-.93,0-1.69-.76-1.69-1.69v-9.89c0-.93.76-1.69,1.69-1.69h9.89c.93,0,1.69.76,1.69,1.69v9.89c0,.93-.76,1.69-1.69,1.69ZM87.68,48.31h-9.89c-.93,0-1.69-.76-1.69-1.69v-9.89c0-.93.76-1.69,1.69-1.69h9.89c.93,0,1.69.76,1.69,1.69v9.89c0,.93-.76,1.69-1.69,1.69ZM87.68,34.62h-9.89c-.93,0-1.69-.76-1.69-1.69v-9.89c0-.93.76-1.69,1.69-1.69h9.89c.93,0,1.69.76,1.69,1.69v9.89c0,.93-.76,1.69-1.69,1.69ZM87.68,20.93h-9.89c-.93,0-1.69-.76-1.69-1.69v-9.89c0-.93.76-1.69,1.69-1.69h9.89c.93,0,1.69.76,1.69,1.69v9.89c0,.93-.76,1.69-1.69,1.69ZM87.68,7.24h-9.89c-.93,0-1.69-.76-1.69-1.69V-4.34c0-.93.76-1.69,1.69-1.69h9.89c.93,0,1.69.76,1.69,1.69V5.55c0,.93-.76,1.69-1.69,1.69Z"/>
    </g>
    <path class="cls-3" d="M51.95,33.27v16.9c0,.82.63,1.51,1.45,1.58,4.99.42,9.47,2.61,12.81,5.95,3.34,3.34,5.54,7.83,5.95,12.82.08.93-.67,1.72-1.6,1.72h-17.29c-.88,0-1.6-.72-1.6-1.6v-17.08c0-.88-.72-1.6-1.6-1.6h-27.03c-1.61,0-2.2,2.09-.84,2.96,1.25.8,2.41,1.74,3.46,2.78,3.34,3.34,5.54,7.83,5.95,12.82.08.93-.67,1.72-1.6,1.72H12.71c-.88,0-1.6-.72-1.6-1.6v-37.64c0-.88.72-1.6,1.6-1.6h7.04c1.61,0,2.2-2.09.84-2.96-1.25-.8-2.41-1.74-3.46-2.78-3.34-3.34-5.54-7.83-5.95-12.82-.08-.93.67-1.72,1.6-1.72h17.29c.88,0,1.6.72,1.6,1.6v27.31c0,1.61,2.09,2.2,2.95.85,3.36-5.24,9.04-8.86,15.59-9.41.83-.07,1.46-.76,1.46-1.59V12.71c0-.88.72-1.6,1.6-1.6h17.36c.88,0,1.6.72,1.6,1.6v17.36c0,.88-.72,1.6-1.6,1.6h-17.08c-.88,0-1.6.72-1.6,1.6Z"/>
  </g>
</svg>