<?xml version="1.0" encoding="UTF-8"?>
<svg id="Layer_2" data-name="Layer 2" xmlns="http://www.w3.org/2000/svg" viewBox="0 0 221.36 212.25">
  <defs>
    <style>
      .cls-1 {
        fill: #9000f7;
      }

      .cls-2 {
        fill: #18c971;
      }

      .cls-3 {
        fill: #ff4576;
      }

      .cls-4 {
        fill: #219ff4;
      }
    </style>
  </defs>
  <g id="Layer_1-2" data-name="Layer 1">
    <g>
      <circle class="cls-2" cx="171.04" cy="50.33" r="50.33"/>
      <path class="cls-3" d="M10.73,108.57h92.5c3.08,0,5.58,2.5,5.58,5.58v92.51c0,4.97-6.01,7.46-9.53,3.95L6.79,118.1c-3.52-3.52-1.03-9.53,3.95-9.53Z"/>
      <rect class="cls-4" x="120.71" y="110.55" width="100.65" height="100.65" rx="5.25" ry="5.25"/>
      <path class="cls-1" d="M.98,54l24.82,42.99c1.31,2.27,3.73,3.67,6.35,3.67h49.64c2.62,0,5.04-1.4,6.35-3.67l24.82-42.99c1.31-2.27,1.31-5.07,0-7.34L88.15,3.67C86.84,1.4,84.42,0,81.8,0h-49.64c-2.62,0-5.04,1.4-6.35,3.67L.98,46.66c-1.31,2.27-1.31,5.07,0,7.34Z"/>
    </g>
  </g>
</svg>