<?xml version="1.0" encoding="UTF-8"?>
<svg id="Layer_2" data-name="Layer 2" xmlns="http://www.w3.org/2000/svg" viewBox="0 0 88.64 88.64">
  <defs>
    <style>
      .cls-1 { fill: none; }
      .cls-2 { fill: #3a3adb; }
      .cls-3 { fill: #fff; }
      .cls-4 { fill: #4f46e5; }
    </style>
    <clipPath id="clippath">
      <rect class="cls-1" width="88.64" height="88.64" rx="7.53" ry="7.53"/>
    </clipPath>
  </defs>
  <g id="Layer_1-2" data-name="Layer 1">
    <g>
      <rect class="cls-4" width="88.64" height="88.64" rx="7.53" ry="7.53"/>
      <g clip-path="url(#clippath)">
        <path class="cls-2" d="M156.04-42.19v-.76h-21.38c-1.69,0-3.07-1.37-3.07-3.07v-21.38h-.76v21.38c0,1.69-1.37,3.07-3.07,3.07h-17.93c-1.69,0-3.07-1.37-3.07-3.07v-21.38h-.76v21.38c0,1.69-1.37,3.07-3.07,3.07h-17.94c-1.69,0-3.07-1.37-3.07-3.07v-21.38h-.76v21.38c0,1.69-1.37,3.07-3.07,3.07h-17.94c-1.69,0-3.07-1.37-3.07-3.07v-21.38h-.76v21.38c0,1.69-1.37,3.07-3.07,3.07h-17.94c-1.69,0-3.07-1.37-3.07-3.07v-21.38h-.76v21.38c0,1.69-1.37,3.07-3.07,3.07H10.53c-1.69,0-3.07-1.37-3.07-3.07v-21.38h-.76v21.38c0,1.69-1.37,3.07-3.07,3.07H-14.3c-1.69,0-3.07-1.37-3.07-3.07v-21.38h-.76v21.38c0,1.69-1.37,3.07-3.07,3.07h-17.94c-1.69,0-3.07-1.37-3.07-3.07v-21.38h-.76v21.38c0,1.69-1.37,3.07-3.07,3.07h-21.38v.76h21.38c1.69,0,3.07,1.37,3.07,3.07v17.94c0,1.69-1.37,3.07-3.07,3.07h-21.38v.76h21.38c1.69,0,3.07,1.37,3.07,3.07V3.64c0,1.69-1.37,3.07-3.07,3.07h-21.38v.76h21.38c1.69,0,3.07,1.37,3.07,3.07v17.94c0,1.69-1.37,3.07-3.07,3.07h-21.38v.76h21.38c1.69,0,3.07,1.37,3.07,3.07v17.94c0,1.69-1.37,3.07-3.07,3.07h-21.38v.76h21.38c1.69,0,3.07,1.37,3.07,3.07v17.94c0,1.69-1.37,3.07-3.07,3.07h-21.38v.76h21.38c1.69,0,3.07,1.37,3.07,3.07v17.94c0,1.69-1.37,3.07-3.07,3.07h-21.38v.76h21.38c1.69,0,3.07,1.37,3.07,3.07v17.94c0,1.69-1.37,3.07-3.07,3.07h-21.38v.76s21.38,0,21.38,0c1.69,0,3.07,1.37,3.07,3.07v21.38h.76v-21.38c0-1.69,1.37-3.07,3.07-3.07h17.94c1.69,0,3.07,1.37,3.07,3.07v21.38h.76v-21.38c0-1.69,1.37-3.07,3.07-3.07H3.64c1.69,0,3.07,1.37,3.07,3.07v21.38h.76v-21.38c0-1.69,1.37-3.07,3.07-3.07h17.94c1.69,0,3.07,1.37,3.07,3.07v21.38h.76v-21.38c0-1.69,1.37-3.07,3.07-3.07h17.94c1.69,0,3.07,1.37,3.07,3.07v21.38h.76v-21.38c0-1.69,1.37-3.07,3.07-3.07h17.94c1.69,0,3.07,1.37,3.07,3.07v21.38h.76v-21.38c0-1.69,1.37-3.07,3.07-3.07h17.94c1.69,0,3.07,1.37,3.07,3.07v21.38h.76v-21.38c0-1.69,1.37-3.07,3.07-3.07h17.93c1.69,0,3.07,1.37,3.07,3.07v21.38h.76v-21.38c0-1.69,1.37-3.07,3.07-3.07h21.38v-.76s-21.38,0-21.38,0c-1.69,0-3.07-1.37-3.07-3.07v-17.94c0-1.69,1.37-3.07,3.07-3.07h21.38v-.76h-21.38c-1.69,0-3.07-1.37-3.07-3.07v-17.94c0-1.69,1.37-3.07,3.07-3.07h21.38v-.76h-21.38c-1.69,0-3.07-1.37-3.07-3.07v-17.94c0-1.69,1.37-3.07,3.07-3.07h21.38v-.76h-21.38c-1.69,0-3.07-1.37-3.07-3.07v-17.94c0-1.69,1.37-3.07,3.07-3.07h21.38v-.76h-21.38c-1.69,0-3.07-1.37-3.07-3.07V10.53c0-1.69,1.37-3.07,3.07-3.07h21.38v-.76h-21.38c-1.69,0-3.07-1.37-3.07-3.07V-14.3c0-1.69,1.37-3.07,3.07-3.07h21.38v-.76h-21.38c-1.69,0-3.07-1.37-3.07-3.07v-17.94c0-1.69,1.37-3.07,3.07-3.07h21.38Z"/>
      </g>
      <path class="cls-3" d="M53.46,37.93v12.96c0,1.23.89,2.31,2.11,2.46,4.1.53,7.77,2.42,10.55,5.2,2.65,2.65,4.49,6.11,5.12,9.98.25,1.53-.91,2.94-2.46,2.94h-13.08c-1.38,0-2.5-1.12-2.5-2.5v-13.03c0-1.38-1.12-2.5-2.5-2.5h-19.76c-2.32,0-3.35,2.84-1.62,4.39.26.23.51.47.76.72,2.65,2.65,4.49,6.11,5.12,9.98.25,1.53-.91,2.94-2.46,2.94h-13.08c-1.38,0-2.5-1.12-2.5-2.5V19.66c0-1.38,1.12-2.5,2.5-2.5h13.28c1.38,0,2.5,1.12,2.5,2.5v20.01c0,2.28,2.83,3.38,4.34,1.67.54-.6,1.11-1.17,1.72-1.7,2.63-2.28,5.93-3.82,9.56-4.3,1.23-.16,2.14-1.22,2.14-2.47v-13.21c0-1.38,1.12-2.5,2.5-2.5h13.28c1.38,0,2.5,1.12,2.5,2.5v13.28c0,1.38-1.12,2.5-2.5,2.5h-13.03c-1.38,0-2.5,1.12-2.5,2.5Z"/>
    </g>
  </g>
</svg>
