<?xml version="1.0" encoding="UTF-8"?>
<svg id="Layer_2" data-name="Layer 2" xmlns="http://www.w3.org/2000/svg" xmlns:xlink="http://www.w3.org/1999/xlink" viewBox="0 0 348.72 115.42">
  <defs>
    <style>
      .cls-1 {
        fill: none;
      }

      .cls-2 {
        fill: #eef2ff;
      }

      .cls-3 {
        fill: #3a3adb;
      }

      .cls-4 {
        fill: #fff;
      }

      .cls-5 {
        fill: #4f46e5;
      }

      .cls-6 {
        clip-path: url(#clippath);
      }
    </style>
    <clipPath id="clippath">
      <rect class="cls-1" x="0" y="8.79" width="97.84" height="97.84" rx="8.31" ry="8.31"/>
    </clipPath>
  </defs>
  <g id="Layer_2-2" data-name="Layer 2">
    <g>
      <rect class="cls-1" width="348.72" height="115.42"/>
      <g>
        <path class="cls-2" d="M163.63,52.98c0,.35-.06.64-.29.87-.29.29-.75.46-1.62.52-1.62.12-3.99.17-6.24.17s-5.32,0-7.11-.17c-2.2-.23-2.89-.69-3.64-2.83l-5.08-14.5v15.2c0,1.44-.52,1.96-1.73,2.08-1.16.12-4.04.23-6.99.23s-5.78-.12-6.93-.23c-1.21-.12-1.79-.64-1.85-2.08-.17-4.68-.17-11.04-.17-17.91s0-13.23.17-17.91c.06-1.44.64-1.96,1.85-2.08,1.16-.12,4.04-.23,6.93-.23s5.84.12,6.99.23c1.21.12,1.73.64,1.73,2.08v15.2l5.08-14.5c.75-2.14,1.44-2.6,3.64-2.83,1.79-.17,4.85-.17,7.11-.17s4.62.06,6.24.17c.87.06,1.33.23,1.62.52.23.23.29.52.29.87,0,.46-.12,1.04-.64,2.31l-6.76,16.35,6.76,16.35c.52,1.27.64,1.85.64,2.31Z"/>
        <path class="cls-2" d="M208.64,52.98c0,.35-.06.64-.29.87-.29.29-.75.46-1.62.52-1.62.12-4.22.17-6.47.17s-4.74,0-6.53-.17c-2.2-.23-2.83-.75-3.58-2.83l-3.35-9.42h-2.02v10.05c0,1.44-.58,1.96-1.79,2.08-1.16.12-3.81.23-6.76.23s-5.37-.12-6.53-.23c-1.21-.12-1.79-.64-1.85-2.08-.17-4.68-.17-11.04-.17-17.91s0-13.17.17-17.85c.06-1.44.64-1.96,1.85-2.08,2.66-.23,11.15-.29,17.62-.29,4.45,0,9.48.12,12.77.4,6.82.58,8.03,2.95,8.03,12.83,0,8.84-1.1,10.81-5.55,11.79l5.43,11.61c.58,1.27.64,1.85.64,2.31ZM190.62,30.68c.17-.69.23-1.62.23-2.66s-.06-1.96-.23-2.66c-.17-.92-.35-1.16-1.21-1.16h-4.1c-.4,0-.58.35-.58,1.16v5.32c0,.87.17,1.16.58,1.16h4.1c.87,0,1.04-.23,1.21-1.16Z"/>
        <path class="cls-2" d="M237.36,14.32c1.16-.12,3.99-.23,6.93-.23s5.78.12,6.93.23c1.21.12,1.79.64,1.85,2.08.17,4.85.23,15.02.23,21.03,0,14.33-2.43,17.51-20.22,17.51s-20.22-2.83-20.22-17.51c0-6.01.06-16.18.23-21.03.06-1.44.64-1.96,1.85-2.08,1.16-.12,4.04-.23,6.93-.23s5.78.12,6.93.23c1.21.12,1.73.64,1.73,2.08v26.52c0,1.33.23,1.5,2.54,1.5s2.54-.17,2.54-1.5v-26.52c0-1.44.52-1.96,1.73-2.08Z"/>
        <path class="cls-2" d="M154.85,60.71c4.45.46,5.66,1.33,6.47,5.03.4,1.73.98,5.95.98,10.92,0,1.1-.12,1.44-1.04,1.5-2.66.12-6.07.12-7.74.12-1.21,0-6.24,0-7.63-.12-.92-.06-1.04-.23-1.1-.92s-.06-4.62-.17-5.55c-.06-.58-.23-.81-.92-.92-.29-.06-.98-.12-1.44-.12s-1.16.06-1.44.12c-.58.12-.87.29-.92.92-.17,2.31-.17,5.66-.17,9.07,0,3.06,0,6.76.17,9.07.06.64.35.81.92.92.29.06.98.12,1.44.12s1.16-.06,1.44-.12c.69-.12.87-.35.92-.92.12-.92.17-5.49.23-6.18s.17-.87,1.1-.92c1.39-.12,6.36-.12,7.57-.12,1.68,0,5.08,0,7.74.12.92.06,1.1.4,1.1,1.5-.12,4.97-.64,9.82-1.04,11.56-.81,3.7-2.02,4.56-6.47,5.03-3.06.35-9.07.58-12.6.58-3.76,0-9.3-.23-12.6-.58-4.45-.46-5.6-1.27-6.47-5.03-.64-2.77-1.21-8.26-1.21-15.02s.58-12.25,1.21-15.02c.87-3.93,2.25-4.56,6.47-5.03,3.06-.35,9.07-.58,12.6-.58s9.53.23,12.6.58Z"/>
        <path class="cls-2" d="M208.53,99.42c0,.35-.06.64-.29.87-.29.29-.75.46-1.62.52-1.62.12-4.22.17-6.47.17s-4.74,0-6.53-.17c-2.2-.23-2.83-.75-3.58-2.83l-3.35-9.42h-2.02v10.05c0,1.44-.58,1.96-1.79,2.08-1.16.12-3.81.23-6.76.23s-5.37-.12-6.53-.23c-1.21-.12-1.79-.64-1.85-2.08-.17-4.68-.17-11.04-.17-17.91s0-13.17.17-17.85c.06-1.44.64-1.96,1.85-2.08,2.66-.23,11.15-.29,17.62-.29,4.45,0,9.48.12,12.77.4,6.82.58,8.03,2.95,8.03,12.83,0,8.84-1.1,10.81-5.55,11.79l5.43,11.61c.58,1.27.64,1.85.64,2.31ZM190.5,77.12c.17-.69.23-1.62.23-2.66s-.06-1.96-.23-2.66c-.17-.92-.35-1.16-1.21-1.16h-4.1c-.4,0-.58.35-.58,1.16v5.32c0,.87.17,1.16.58,1.16h4.1c.87,0,1.04-.23,1.21-1.16Z"/>
        <path class="cls-2" d="M253.02,99.07c0,1.04-.52,1.62-1.68,1.73-1.16.12-4.39.23-7.05.23s-5.26-.06-6.41-.17c-1.91-.17-2.2-.46-2.54-2.72l-.52-3.35h-6.12l-.52,3.35c-.35,2.25-.64,2.54-2.54,2.72-1.16.12-3.76.17-6.41.17s-5.89-.12-7.05-.23c-1.16-.12-1.68-.69-1.68-1.73,0-.92.29-2.37.64-3.81l7.63-32.76c.29-1.33,1.04-1.79,2.43-1.85,1.39-.06,7.11-.17,10.57-.17s9.19.12,10.57.17c1.39.06,2.14.52,2.43,1.85l7.63,32.76c.35,1.44.64,2.89.64,3.81ZM229.68,85.26h4.16l-1.96-13.29h-.23l-1.96,13.29Z"/>
        <path class="cls-2" d="M272.26,100.75c-1.16.12-4.04.23-6.99.23s-5.55-.12-6.88-.23c-1.21-.12-1.79-.64-1.85-2.08-.17-4.68-.17-11.15-.17-17.91s0-13.23.17-17.91c.06-1.44.64-1.96,1.85-2.08,2.72-.23,11.21-.23,14.39-.23,2.95,0,13.75.06,15.37.23,1.21.12,1.96.64,2.02,2.08.06,1.16.06,2.77.06,4.04s0,2.72-.06,3.87c-.06,1.21-.4,1.62-1.44,1.62h-14.04c-.52,0-.69.23-.69,1.04v3.24c0,.81.17.92.69.92h12.77c.98,0,1.39.17,1.44,1.16.06,1.16.06,2.6.06,3.76s0,2.6-.06,3.76c-.06.98-.46,1.16-1.44,1.16h-12.77c-.52,0-.69.23-.69,1.04v10.23c0,1.44-.52,1.96-1.73,2.08Z"/>
        <path class="cls-2" d="M333.4,67.29c0,1.16,0,3.29-.06,4.45-.06,1.44-.87,2.08-2.31,2.08-1.79,0-5.89-.12-8.26-.12v7.05c0,6.88,0,13.23-.17,17.91-.06,1.44-.64,1.96-1.85,2.08-1.16.12-4.1.23-6.99.23s-5.84-.12-6.99-.23c-1.21-.12-1.79-.64-1.85-2.08-.17-4.68-.17-11.04-.17-17.91v-7.05c-2.37,0-6.47.12-8.26.12-1.44,0-2.25-.64-2.31-2.08-.06-1.16-.06-3.29-.06-4.45s0-3.29.06-4.45c.06-1.44.87-1.96,2.02-2.08,1.62-.17,11.15-.23,17.57-.23s15.95.12,17.57.23c1.16.12,1.96.64,2.02,2.08.06,1.16.06,3.29.06,4.45Z"/>
      </g>
      <g>
        <rect class="cls-5" x="0" y="8.79" width="97.84" height="97.84" rx="8.31" ry="8.31"/>
        <g class="cls-6">
          <path class="cls-3" d="M172.23-37.78v-.84h-23.6c-1.87,0-3.38-1.51-3.38-3.38v-23.6h-.84v23.6c0,1.87-1.51,3.38-3.38,3.38h-19.79c-1.87,0-3.38-1.51-3.38-3.38v-23.6h-.84v23.6c0,1.87-1.51,3.38-3.38,3.38h-19.8c-1.87,0-3.38-1.51-3.38-3.38v-23.6h-.84v23.6c0,1.87-1.51,3.38-3.38,3.38h-19.8c-1.87,0-3.38-1.51-3.38-3.38v-23.6h-.84v23.6c0,1.87-1.51,3.38-3.38,3.38h-19.8c-1.87,0-3.38-1.51-3.38-3.38v-23.6h-.84v23.6c0,1.87-1.51,3.38-3.38,3.38H11.62c-1.87,0-3.38-1.51-3.38-3.38v-23.6h-.84v23.6c0,1.87-1.51,3.38-3.38,3.38H-15.78c-1.87,0-3.38-1.51-3.38-3.38v-23.6h-.84v23.6c0,1.87-1.51,3.38-3.38,3.38h-19.8c-1.87,0-3.38-1.51-3.38-3.38v-23.6h-.84v23.6c0,1.87-1.51,3.38-3.38,3.38h-23.6v.84h23.6c1.87,0,3.38,1.51,3.38,3.38V-14.6c0,1.87-1.51,3.38-3.38,3.38h-23.6v.84h23.6c1.87,0,3.38,1.51,3.38,3.38V12.8c0,1.87-1.51,3.38-3.38,3.38h-23.6v.84h23.6c1.87,0,3.38,1.51,3.38,3.38v19.8c0,1.87-1.51,3.38-3.38,3.38h-23.6v.84h23.6c1.87,0,3.38,1.51,3.38,3.38v19.8c0,1.87-1.51,3.38-3.38,3.38h-23.6v.84h23.6c1.87,0,3.38,1.51,3.38,3.38v19.8c0,1.87-1.51,3.38-3.38,3.38h-23.6v.84h23.6c1.87,0,3.38,1.51,3.38,3.38v19.8c0,1.87-1.51,3.38-3.38,3.38h-23.6v.84h23.6c1.87,0,3.38,1.51,3.38,3.38v19.8c0,1.87-1.51,3.38-3.38,3.38h-23.6v.84s23.6,0,23.6,0c1.87,0,3.38,1.51,3.38,3.38v23.6h.84v-23.6c0-1.87,1.51-3.38,3.38-3.38h19.8c1.87,0,3.38,1.51,3.38,3.38v23.6h.84v-23.6c0-1.87,1.51-3.38,3.38-3.38H4.02c1.87,0,3.38,1.51,3.38,3.38v23.6h.84v-23.6c0-1.87,1.51-3.38,3.38-3.38h19.8c1.87,0,3.38,1.51,3.38,3.38v23.6h.84v-23.6c0-1.87,1.51-3.38,3.38-3.38h19.8c1.87,0,3.38,1.51,3.38,3.38v23.6h.84v-23.6c0-1.87,1.51-3.38,3.38-3.38h19.8c1.87,0,3.38,1.51,3.38,3.38v23.6h.84v-23.6c0-1.87,1.51-3.38,3.38-3.38h19.8c1.87,0,3.38,1.51,3.38,3.38v23.6h.84v-23.6c0-1.87,1.51-3.38,3.38-3.38h19.79c1.87,0,3.38,1.51,3.38,3.38v23.6h.84v-23.6c0-1.87,1.51-3.38,3.38-3.38h23.6v-.84s-23.6,0-23.6,0c-1.87,0-3.38-1.51-3.38-3.38v-19.8c0-1.87,1.51-3.38,3.38-3.38h23.6v-.84h-23.6c-1.87,0-3.38-1.51-3.38-3.38v-19.8c0-1.87,1.51-3.38,3.38-3.38h23.6v-.84h-23.6c-1.87,0-3.38-1.51-3.38-3.38v-19.8c0-1.87,1.51-3.38,3.38-3.38h23.6v-.84h-23.6c-1.87,0-3.38-1.51-3.38-3.38v-19.8c0-1.87,1.51-3.38,3.38-3.38h23.6v-.84h-23.6c-1.87,0-3.38-1.51-3.38-3.38v-19.8c0-1.87,1.51-3.38,3.38-3.38h23.6v-.84h-23.6c-1.87,0-3.38-1.51-3.38-3.38V-7c0-1.87,1.51-3.38,3.38-3.38h23.6v-.84h-23.6c-1.87,0-3.38-1.51-3.38-3.38v-19.8c0-1.87,1.51-3.38,3.38-3.38h23.6ZM-23.39,153.2h-19.8c-1.87,0-3.38-1.51-3.38-3.38v-19.8c0-1.87,1.51-3.38,3.38-3.38h19.8c1.87,0,3.38,1.51,3.38,3.38v19.8c0,1.87-1.51,3.38-3.38,3.38ZM-23.39,125.8h-19.8c-1.87,0-3.38-1.51-3.38-3.38v-19.8c0-1.87,1.51-3.38,3.38-3.38h19.8c1.87,0,3.38,1.51,3.38,3.38v19.8c0,1.87-1.51,3.38-3.38,3.38ZM-23.39,98.4h-19.8c-1.87,0-3.38-1.51-3.38-3.38v-19.8c0-1.87,1.51-3.38,3.38-3.38h19.8c1.87,0,3.38,1.51,3.38,3.38v19.8c0,1.87-1.51,3.38-3.38,3.38ZM-23.39,70.99h-19.8c-1.87,0-3.38-1.51-3.38-3.38v-19.8c0-1.87,1.51-3.38,3.38-3.38h19.8c1.87,0,3.38,1.51,3.38,3.38v19.8c0,1.87-1.51,3.38-3.38,3.38ZM-23.39,43.59h-19.8c-1.87,0-3.38-1.51-3.38-3.38v-19.8c0-1.87,1.51-3.38,3.38-3.38h19.8c1.87,0,3.38,1.51,3.38,3.38v19.8c0,1.87-1.51,3.38-3.38,3.38ZM-23.39,16.19h-19.8c-1.87,0-3.38-1.51-3.38-3.38V-7c0-1.87,1.51-3.38,3.38-3.38h19.8c1.87,0,3.38,1.51,3.38,3.38V12.8c0,1.87-1.51,3.38-3.38,3.38ZM-23.39-11.22h-19.8c-1.87,0-3.38-1.51-3.38-3.38v-19.8c0-1.87,1.51-3.38,3.38-3.38h19.8c1.87,0,3.38,1.51,3.38,3.38V-14.6c0,1.87-1.51,3.38-3.38,3.38ZM4.02,153.2H-15.78c-1.87,0-3.38-1.51-3.38-3.38v-19.8c0-1.87,1.51-3.38,3.38-3.38H4.02c1.87,0,3.38,1.51,3.38,3.38v19.8c0,1.87-1.51,3.38-3.38,3.38ZM4.02,125.8H-15.78c-1.87,0-3.38-1.51-3.38-3.38v-19.8c0-1.87,1.51-3.38,3.38-3.38H4.02c1.87,0,3.38,1.51,3.38,3.38v19.8c0,1.87-1.51,3.38-3.38,3.38ZM4.02,98.4H-15.78c-1.87,0-3.38-1.51-3.38-3.38v-19.8c0-1.87,1.51-3.38,3.38-3.38H4.02c1.87,0,3.38,1.51,3.38,3.38v19.8c0,1.87-1.51,3.38-3.38,3.38ZM4.02,70.99H-15.78c-1.87,0-3.38-1.51-3.38-3.38v-19.8c0-1.87,1.51-3.38,3.38-3.38H4.02c1.87,0,3.38,1.51,3.38,3.38v19.8c0,1.87-1.51,3.38-3.38,3.38ZM4.02,43.59H-15.78c-1.87,0-3.38-1.51-3.38-3.38v-19.8c0-1.87,1.51-3.38,3.38-3.38H4.02c1.87,0,3.38,1.51,3.38,3.38v19.8c0,1.87-1.51,3.38-3.38,3.38ZM4.02,16.19H-15.78c-1.87,0-3.38-1.51-3.38-3.38V-7c0-1.87,1.51-3.38,3.38-3.38H4.02c1.87,0,3.38,1.51,3.38,3.38V12.8c0,1.87-1.51,3.38-3.38,3.38ZM4.02-11.22H-15.78c-1.87,0-3.38-1.51-3.38-3.38v-19.8c0-1.87,1.51-3.38,3.38-3.38H4.02c1.87,0,3.38,1.51,3.38,3.38V-14.6c0,1.87-1.51,3.38-3.38,3.38ZM31.42,153.2H11.62c-1.87,0-3.38-1.51-3.38-3.38v-19.8c0-1.87,1.51-3.38,3.38-3.38h19.8c1.87,0,3.38,1.51,3.38,3.38v19.8c0,1.87-1.51,3.38-3.38,3.38ZM31.42,125.8H11.62c-1.87,0-3.38-1.51-3.38-3.38v-19.8c0-1.87,1.51-3.38,3.38-3.38h19.8c1.87,0,3.38,1.51,3.38,3.38v19.8c0,1.87-1.51,3.38-3.38,3.38ZM31.42,98.4H11.62c-1.87,0-3.38-1.51-3.38-3.38v-19.8c0-1.87,1.51-3.38,3.38-3.38h19.8c1.87,0,3.38,1.51,3.38,3.38v19.8c0,1.87-1.51,3.38-3.38,3.38ZM31.42,70.99H11.62c-1.87,0-3.38-1.51-3.38-3.38v-19.8c0-1.87,1.51-3.38,3.38-3.38h19.8c1.87,0,3.38,1.51,3.38,3.38v19.8c0,1.87-1.51,3.38-3.38,3.38ZM31.42,43.59H11.62c-1.87,0-3.38-1.51-3.38-3.38v-19.8c0-1.87,1.51-3.38,3.38-3.38h19.8c1.87,0,3.38,1.51,3.38,3.38v19.8c0,1.87-1.51,3.38-3.38,3.38ZM31.42,16.19H11.62c-1.87,0-3.38-1.51-3.38-3.38V-7c0-1.87,1.51-3.38,3.38-3.38h19.8c1.87,0,3.38,1.51,3.38,3.38V12.8c0,1.87-1.51,3.38-3.38,3.38ZM31.42-11.22H11.62c-1.87,0-3.38-1.51-3.38-3.38v-19.8c0-1.87,1.51-3.38,3.38-3.38h19.8c1.87,0,3.38,1.51,3.38,3.38V-14.6c0,1.87-1.51,3.38-3.38,3.38ZM58.82,153.2h-19.8c-1.87,0-3.38-1.51-3.38-3.38v-19.8c0-1.87,1.51-3.38,3.38-3.38h19.8c1.87,0,3.38,1.51,3.38,3.38v19.8c0,1.87-1.51,3.38-3.38,3.38ZM58.82,125.8h-19.8c-1.87,0-3.38-1.51-3.38-3.38v-19.8c0-1.87,1.51-3.38,3.38-3.38h19.8c1.87,0,3.38,1.51,3.38,3.38v19.8c0,1.87-1.51,3.38-3.38,3.38ZM58.82,98.4h-19.8c-1.87,0-3.38-1.51-3.38-3.38v-19.8c0-1.87,1.51-3.38,3.38-3.38h19.8c1.87,0,3.38,1.51,3.38,3.38v19.8c0,1.87-1.51,3.38-3.38,3.38ZM58.82,70.99h-19.8c-1.87,0-3.38-1.51-3.38-3.38v-19.8c0-1.87,1.51-3.38,3.38-3.38h19.8c1.87,0,3.38,1.51,3.38,3.38v19.8c0,1.87-1.51,3.38-3.38,3.38ZM58.82,43.59h-19.8c-1.87,0-3.38-1.51-3.38-3.38v-19.8c0-1.87,1.51-3.38,3.38-3.38h19.8c1.87,0,3.38,1.51,3.38,3.38v19.8c0,1.87-1.51,3.38-3.38,3.38ZM58.82,16.19h-19.8c-1.87,0-3.38-1.51-3.38-3.38V-7c0-1.87,1.51-3.38,3.38-3.38h19.8c1.87,0,3.38,1.51,3.38,3.38V12.8c0,1.87-1.51,3.38-3.38,3.38ZM58.82-11.22h-19.8c-1.87,0-3.38-1.51-3.38-3.38v-19.8c0-1.87,1.51-3.38,3.38-3.38h19.8c1.87,0,3.38,1.51,3.38,3.38V-14.6c0,1.87-1.51,3.38-3.38,3.38ZM86.23,153.2h-19.8c-1.87,0-3.38-1.51-3.38-3.38v-19.8c0-1.87,1.51-3.38,3.38-3.38h19.8c1.87,0,3.38,1.51,3.38,3.38v19.8c0,1.87-1.51,3.38-3.38,3.38ZM86.23,125.8h-19.8c-1.87,0-3.38-1.51-3.38-3.38v-19.8c0-1.87,1.51-3.38,3.38-3.38h19.8c1.87,0,3.38,1.51,3.38,3.38v19.8c0,1.87-1.51,3.38-3.38,3.38ZM86.23,98.4h-19.8c-1.87,0-3.38-1.51-3.38-3.38v-19.8c0-1.87,1.51-3.38,3.38-3.38h19.8c1.87,0,3.38,1.51,3.38,3.38v19.8c0,1.87-1.51,3.38-3.38,3.38ZM86.23,70.99h-19.8c-1.87,0-3.38-1.51-3.38-3.38v-19.8c0-1.87,1.51-3.38,3.38-3.38h19.8c1.87,0,3.38,1.51,3.38,3.38v19.8c0,1.87-1.51,3.38-3.38,3.38ZM86.23,43.59h-19.8c-1.87,0-3.38-1.51-3.38-3.38v-19.8c0-1.87,1.51-3.38,3.38-3.38h19.8c1.87,0,3.38,1.51,3.38,3.38v19.8c0,1.87-1.51,3.38-3.38,3.38ZM86.23,16.19h-19.8c-1.87,0-3.38-1.51-3.38-3.38V-7c0-1.87,1.51-3.38,3.38-3.38h19.8c1.87,0,3.38,1.51,3.38,3.38V12.8c0,1.87-1.51,3.38-3.38,3.38ZM86.23-11.22h-19.8c-1.87,0-3.38-1.51-3.38-3.38v-19.8c0-1.87,1.51-3.38,3.38-3.38h19.8c1.87,0,3.38,1.51,3.38,3.38V-14.6c0,1.87-1.51,3.38-3.38,3.38ZM113.63,153.2h-19.8c-1.87,0-3.38-1.51-3.38-3.38v-19.8c0-1.87,1.51-3.38,3.38-3.38h19.8c1.87,0,3.38,1.51,3.38,3.38v19.8c0,1.87-1.51,3.38-3.38,3.38ZM113.63,125.8h-19.8c-1.87,0-3.38-1.51-3.38-3.38v-19.8c0-1.87,1.51-3.38,3.38-3.38h19.8c1.87,0,3.38,1.51,3.38,3.38v19.8c0,1.87-1.51,3.38-3.38,3.38ZM113.63,98.4h-19.8c-1.87,0-3.38-1.51-3.38-3.38v-19.8c0-1.87,1.51-3.38,3.38-3.38h19.8c1.87,0,3.38,1.51,3.38,3.38v19.8c0,1.87-1.51,3.38-3.38,3.38ZM113.63,70.99h-19.8c-1.87,0-3.38-1.51-3.38-3.38v-19.8c0-1.87,1.51-3.38,3.38-3.38h19.8c1.87,0,3.38,1.51,3.38,3.38v19.8c0,1.87-1.51,3.38-3.38,3.38ZM113.63,43.59h-19.8c-1.87,0-3.38-1.51-3.38-3.38v-19.8c0-1.87,1.51-3.38,3.38-3.38h19.8c1.87,0,3.38,1.51,3.38,3.38v19.8c0,1.87-1.51,3.38-3.38,3.38ZM113.63,16.19h-19.8c-1.87,0-3.38-1.51-3.38-3.38V-7c0-1.87,1.51-3.38,3.38-3.38h19.8c1.87,0,3.38,1.51,3.38,3.38V12.8c0,1.87-1.51,3.38-3.38,3.38ZM113.63-11.22h-19.8c-1.87,0-3.38-1.51-3.38-3.38v-19.8c0-1.87,1.51-3.38,3.38-3.38h19.8c1.87,0,3.38,1.51,3.38,3.38V-14.6c0,1.87-1.51,3.38-3.38,3.38ZM141.03,153.2h-19.79c-1.87,0-3.38-1.51-3.38-3.38v-19.8c0-1.87,1.51-3.38,3.38-3.38h19.79c1.87,0,3.38,1.51,3.38,3.38v19.8c0,1.87-1.51,3.38-3.38,3.38ZM141.03,125.8h-19.79c-1.87,0-3.38-1.51-3.38-3.38v-19.8c0-1.87,1.51-3.38,3.38-3.38h19.79c1.87,0,3.38,1.51,3.38,3.38v19.8c0,1.87-1.51,3.38-3.38,3.38ZM141.03,98.4h-19.79c-1.87,0-3.38-1.51-3.38-3.38v-19.8c0-1.87,1.51-3.38,3.38-3.38h19.79c1.87,0,3.38,1.51,3.38,3.38v19.8c0,1.87-1.51,3.38-3.38,3.38ZM141.03,70.99h-19.79c-1.87,0-3.38-1.51-3.38-3.38v-19.8c0-1.87,1.51-3.38,3.38-3.38h19.79c1.87,0,3.38,1.51,3.38,3.38v19.8c0,1.87-1.51,3.38-3.38,3.38ZM141.03,43.59h-19.79c-1.87,0-3.38-1.51-3.38-3.38v-19.8c0-1.87,1.51-3.38,3.38-3.38h19.79c1.87,0,3.38,1.51,3.38,3.38v19.8c0,1.87-1.51,3.38-3.38,3.38ZM141.03,16.19h-19.79c-1.87,0-3.38-1.51-3.38-3.38V-7c0-1.87,1.51-3.38,3.38-3.38h19.79c1.87,0,3.38,1.51,3.38,3.38V12.8c0,1.87-1.51,3.38-3.38,3.38ZM141.03-11.22h-19.79c-1.87,0-3.38-1.51-3.38-3.38v-19.8c0-1.87,1.51-3.38,3.38-3.38h19.79c1.87,0,3.38,1.51,3.38,3.38V-14.6c0,1.87-1.51,3.38-3.38,3.38Z"/>
        </g>
        <path class="cls-4" d="M60.99,49.27v17.13c0,1.62,1.18,3.05,2.79,3.26,5.42.69,10.27,3.2,13.94,6.87,3.51,3.5,5.94,8.07,6.77,13.19.33,2.03-1.2,3.88-3.25,3.88h-17.28c-1.82,0-3.3-1.48-3.3-3.3v-17.21c0-1.82-1.48-3.3-3.3-3.3h-26.11c-3.06,0-4.43,3.76-2.15,5.79.34.31.68.62,1,.95,3.51,3.5,5.94,8.07,6.76,13.19.33,2.03-1.2,3.88-3.25,3.88h-17.28c-1.82,0-3.3-1.48-3.3-3.3V25.13c0-1.82,1.48-3.3,3.3-3.3h17.55c1.82,0,3.3,1.48,3.3,3.3v26.44c0,3.02,3.74,4.47,5.74,2.21.71-.8,1.47-1.55,2.28-2.25,3.48-3.01,7.84-5.05,12.63-5.68,1.63-.21,2.83-1.62,2.83-3.26v-17.46c0-1.82,1.48-3.3,3.3-3.3h17.55c1.82,0,3.3,1.48,3.3,3.3v17.55c0,1.82-1.48,3.3-3.3,3.3h-17.21c-1.82,0-3.3,1.48-3.3,3.3Z"/>
      </g>
    </g>
  </g>
</svg>