<?xml version="1.0" encoding="UTF-8"?>
<svg id="Layer_2" data-name="Layer 2" xmlns="http://www.w3.org/2000/svg" viewBox="0 0 348.72 115.42">
  <defs>
    <style>
      .cls-1 { fill: none; }
      .cls-2 { fill: #eef2ff; }
      .cls-3 { fill: #3a3adb; }
      .cls-4 { fill: #fff; }
      .cls-5 { fill: #4f46e5; }
    </style>
    <clipPath id="clippath">
      <rect class="cls-1" y="8.79" width="97.84" height="97.84" rx="8.31" ry="8.31"/>
    </clipPath>
  </defs>
  <g id="Layer_1-2" data-name="Layer 1">
    <g>
      <rect class="cls-1" width="348.72" height="115.42"/>
      <g>
        <rect class="cls-5" y="8.79" width="97.84" height="97.84" rx="8.31" ry="8.31"/>
        <g clip-path="url(#clippath)">
          <path class="cls-3" d="M172.23-37.78v-.84h-23.6c-1.87,0-3.38-1.51-3.38-3.38v-23.6h-.84v23.6c0,1.87-1.51,3.38-3.38,3.38h-19.79c-1.87,0-3.38-1.51-3.38-3.38v-23.6h-.84v23.6c0,1.87-1.51,3.38-3.38,3.38h-19.8c-1.87,0-3.38-1.51-3.38-3.38v-23.6h-.84v23.6c0,1.87-1.51,3.38-3.38,3.38h-19.8c-1.87,0-3.38-1.51-3.38-3.38v-23.6h-.84v23.6c0,1.87-1.51,3.38-3.38,3.38h-19.8c-1.87,0-3.38-1.51-3.38-3.38v-23.6h-.84v23.6c0,1.87-1.51,3.38-3.38,3.38H11.62c-1.87,0-3.38-1.51-3.38-3.38v-23.6h-.84v23.6c0,1.87-1.51,3.38-3.38,3.38H-15.78c-1.87,0-3.38-1.51-3.38-3.38v-23.6h-.84v23.6c0,1.87-1.51,3.38-3.38,3.38h-19.8c-1.87,0-3.38-1.51-3.38-3.38v-23.6h-.84v23.6c0,1.87-1.51,3.38-3.38,3.38h-23.6v.84h23.6c1.87,0,3.38,1.51,3.38,3.38V-14.6c0,1.87-1.51,3.38-3.38,3.38h-23.6v.84h23.6c1.87,0,3.38,1.51,3.38,3.38V12.8c0,1.87-1.51,3.38-3.38,3.38h-23.6v.84h23.6c1.87,0,3.38,1.51,3.38,3.38v19.8c0,1.87-1.51,3.38-3.38,3.38h-23.6v.84h23.6c1.87,0,3.38,1.51,3.38,3.38v19.8c0,1.87-1.51,3.38-3.38,3.38h-23.6v.84h23.6c1.87,0,3.38,1.51,3.38,3.38v19.8c0,1.87-1.51,3.38-3.38,3.38h-23.6v.84h23.6c1.87,0,3.38,1.51,3.38,3.38v19.8c0,1.87-1.51,3.38-3.38,3.38h-23.6v.84h23.6c1.87,0,3.38,1.51,3.38,3.38v19.8c0,1.87-1.51,3.38-3.38,3.38h-23.6v.84s23.6,0,23.6,0c1.87,0,3.38,1.51,3.38,3.38v23.6h.84v-23.6c0-1.87,1.51-3.38,3.38-3.38h19.8c1.87,0,3.38,1.51,3.38,3.38v23.6h.84v-23.6c0-1.87,1.51-3.38,3.38-3.38H4.02c1.87,0,3.38,1.51,3.38,3.38v23.6h.84v-23.6c0-1.87,1.51-3.38,3.38-3.38h19.8c1.87,0,3.38,1.51,3.38,3.38v23.6h.84v-23.6c0-1.87,1.51-3.38,3.38-3.38h19.8c1.87,0,3.38,1.51,3.38,3.38v23.6h.84v-23.6c0-1.87,1.51-3.38,3.38-3.38h19.8c1.87,0,3.38,1.51,3.38,3.38v23.6h.84v-23.6c0-1.87,1.51-3.38,3.38-3.38h19.8c1.87,0,3.38,1.51,3.38,3.38v23.6h.84v-23.6c0-1.87,1.51-3.38,3.38-3.38h19.79c1.87,0,3.38,1.51,3.38,3.38v23.6h.84v-23.6c0-1.87,1.51-3.38,3.38-3.38h23.6v-.84s-23.6,0-23.6,0c-1.87,0-3.38-1.51-3.38-3.38v-19.8c0-1.87,1.51-3.38,3.38-3.38h23.6v-.84h-23.6c-1.87,0-3.38-1.51-3.38-3.38v-19.8c0-1.87,1.51-3.38,3.38-3.38h23.6v-.84h-23.6c-1.87,0-3.38-1.51-3.38-3.38v-19.8c0-1.87,1.51-3.38,3.38-3.38h23.6v-.84h-23.6c-1.87,0-3.38-1.51-3.38-3.38v-19.8c0-1.87,1.51-3.38,3.38-3.38h23.6v-.84h-23.6c-1.87,0-3.38-1.51-3.38-3.38v-19.8c0-1.87,1.51-3.38,3.38-3.38h23.6v-.84h-23.6c-1.87,0-3.38-1.51-3.38-3.38V-7c0-1.87,1.51-3.38,3.38-3.38h23.6v-.84h-23.6c-1.87,0-3.38-1.51-3.38-3.38v-19.8c0-1.87,1.51-3.38,3.38-3.38h23.6Z"/>
        </g>
        <path class="cls-4" d="M60.99,49.27v17.13c0,1.62,1.18,3.05,2.79,3.26,5.42.69,10.27,3.2,13.94,6.87,3.51,3.5,5.94,8.07,6.77,13.19.33,2.03-1.2,3.88-3.25,3.88h-17.28c-1.82,0-3.3-1.48-3.3-3.3v-17.21c0-1.82-1.48-3.3-3.3-3.3h-26.11c-3.06,0-4.43,3.76-2.15,5.79.34.31.68.62,1,.95,3.51,3.5,5.94,8.07,6.76,13.19.33,2.03-1.2,3.88-3.25,3.88h-17.28c-1.82,0-3.3-1.48-3.3-3.3V25.13c0-1.82,1.48-3.3,3.3-3.3h17.55c1.82,0,3.3,1.48,3.3,3.3v26.44c0,3.02,3.74,4.47,5.74,2.21.71-.8,1.47-1.55,2.28-2.25,3.48-3.01,7.84-5.05,12.63-5.68,1.63-.21,2.83-1.62,2.83-3.26v-17.46c0-1.82,1.48-3.3,3.3-3.3h17.55c1.82,0,3.3,1.48,3.3,3.3v17.55c0,1.82-1.48,3.3-3.3,3.3h-17.21c-1.82,0-3.3,1.48-3.3,3.3Z"/>
      </g>
      <g>
        <path class="cls-2" d="M164.48,52.95c0,.35-.06.65-.29.88-.29.29-.76.47-1.65.53-1.65.12-4.06.18-6.35.18s-5.41,0-7.23-.18c-2.23-.24-2.94-.71-3.71-2.88l-5.17-14.76v15.47c0,1.47-.53,2-1.76,2.12-1.18.12-4.12.24-7.12.24s-5.88-.12-7.06-.24c-1.23-.12-1.82-.65-1.88-2.12-.18-4.76-.18-11.23-.18-18.23s0-13.47.18-18.23c.06-1.47.65-2,1.88-2.12,1.18-.12,4.12-.24,7.06-.24s5.94.12,7.12.24c1.23.12,1.76.65,1.76,2.12v15.47l5.17-14.76c.76-2.18,1.47-2.65,3.71-2.88,1.82-.18,4.94-.18,7.23-.18s4.7.06,6.35.18c.88.06,1.35.23,1.65.53.24.24.29.53.29.88,0,.47-.12,1.06-.65,2.35l-6.88,16.64,6.88,16.64c.53,1.29.65,1.88.65,2.35Z"/>
        <path class="cls-2" d="M210.29,52.95c0,.35-.06.65-.29.88-.29.29-.76.47-1.65.53-1.65.12-4.29.18-6.59.18s-4.82,0-6.65-.18c-2.23-.24-2.88-.76-3.65-2.88l-3.41-9.59h-2.06v10.23c0,1.47-.59,2-1.82,2.12-1.18.12-3.88.24-6.88.24s-5.47-.12-6.65-.24c-1.23-.12-1.82-.65-1.88-2.12-.18-4.76-.18-11.23-.18-18.23s0-13.41.18-18.17c.06-1.47.65-2,1.88-2.12,2.71-.24,11.35-.29,17.94-.29,4.53,0,9.64.12,13,.41,6.94.59,8.17,3,8.17,13.06,0,9-1.12,11-5.65,12l5.53,11.82c.59,1.29.65,1.88.65,2.35ZM191.95,30.25c.18-.71.23-1.65.23-2.71s-.06-2-.23-2.71c-.18-.94-.35-1.18-1.24-1.18h-4.18c-.41,0-.59.35-.59,1.18v5.41c0,.88.18,1.18.59,1.18h4.18c.88,0,1.06-.24,1.24-1.18Z"/>
        <path class="cls-2" d="M239.52,13.61c1.18-.12,4.06-.24,7.06-.24s5.88.12,7.06.24c1.23.12,1.82.65,1.88,2.12.18,4.94.24,15.29.24,21.41,0,14.58-2.47,17.82-20.58,17.82s-20.58-2.88-20.58-17.82c0-6.12.06-16.47.23-21.41.06-1.47.65-2,1.88-2.12,1.18-.12,4.12-.24,7.06-.24s5.88.12,7.06.24c1.24.12,1.76.65,1.76,2.12v26.99c0,1.35.24,1.53,2.59,1.53s2.59-.18,2.59-1.53V15.73c0-1.47.53-2,1.76-2.12Z"/>
        <path class="cls-2" d="M164.48,99.95c0,.35-.06.65-.29.88-.29.29-.76.47-1.65.53-1.65.12-4.06.18-6.35.18s-5.41,0-7.23-.18c-2.23-.24-2.94-.71-3.71-2.88l-5.17-14.76v15.47c0,1.47-.53,2-1.76,2.12-1.18.12-4.12.24-7.12.24s-5.88-.12-7.06-.24c-1.23-.12-1.82-.65-1.88-2.12-.18-4.76-.18-11.23-.18-18.23s0-13.47.18-18.23c.06-1.47.65-2,1.88-2.12,1.18-.12,4.12-.24,7.06-.24s5.94.12,7.12.24c1.23.12,1.76.65,1.76,2.12v15.47l5.17-14.76c.76-2.18,1.47-2.65,3.71-2.88,1.82-.18,4.94-.18,7.23-.18s4.7.06,6.35.18c.88.06,1.35.23,1.65.53.24.24.29.53.29.88,0,.47-.12,1.06-.65,2.35l-6.88,16.64,6.88,16.64c.53,1.29.65,1.88.65,2.35Z"/>
        <path class="cls-2" d="M210.29,99.95c0,.35-.06.65-.29.88-.29.29-.76.47-1.65.53-1.65.12-4.29.18-6.59.18s-4.82,0-6.65-.18c-2.23-.24-2.88-.76-3.65-2.88l-3.41-9.59h-2.06v10.23c0,1.47-.59,2-1.82,2.12-1.18.12-3.88.24-6.88.24s-5.47-.12-6.65-.24c-1.23-.12-1.82-.65-1.88-2.12-.18-4.76-.18-11.23-.18-18.23s0-13.41.18-18.17c.06-1.47.65-2,1.88-2.12,2.71-.24,11.35-.29,17.94-.29,4.53,0,9.64.12,13,.41,6.94.59,8.17,3,8.17,13.06,0,9-1.12,11-5.65,12l5.53,11.82c.59,1.29.65,1.88.65,2.35ZM191.95,77.25c.18-.71.23-1.65.23-2.71s-.06-2-.23-2.71c-.18-.94-.35-1.18-1.24-1.18h-4.18c-.41,0-.59.35-.59,1.18v5.41c0,.88.18,1.18.59,1.18h4.18c.88,0,1.06-.24,1.24-1.18Z"/>
        <path class="cls-2" d="M255.58,99.6c0,1.06-.53,1.65-1.71,1.76-1.18.12-4.47.24-7.17.24s-5.35-.06-6.53-.18c-1.94-.18-2.23-.47-2.59-2.76l-.53-3.41h-6.23l-.53,3.41c-.35,2.29-.65,2.59-2.59,2.76-1.18.12-3.82.18-6.53.18s-6-.12-7.17-.24c-1.18-.12-1.71-.71-1.71-1.76,0-.94.29-2.41.65-3.88l7.76-33.34c.29-1.35,1.06-1.82,2.47-1.88,1.41-.06,7.23-.18,10.76-.18s9.35.12,10.76.18c1.41.06,2.18.53,2.47,1.88l7.76,33.34c.35,1.47.65,2.94.65,3.88ZM231.82,85.54h4.23l-2-13.53h-.23l-2,13.53Z"/>
        <path class="cls-2" d="M275.16,101.3c-1.18.12-4.12.24-7.12.24s-5.65-.12-7-.24c-1.23-.12-1.82-.65-1.88-2.12-.18-4.76-.18-11.35-.18-18.23s0-13.47.18-18.23c.06-1.47.65-2,1.88-2.12,2.76-.24,11.41-.24,14.64-.24,3,0,14,.06,15.64.24,1.24.12,2,.65,2.06,2.12.06,1.18.06,2.82.06,4.12s0,2.76-.06,3.94c-.06,1.23-.41,1.65-1.47,1.65h-14.29c-.53,0-.71.24-.71,1.06v3.29c0,.82.18.94.71.94h13c1,0,1.41.18,1.47,1.18.06,1.18.06,2.65.06,3.82s0,2.65-.06,3.82c-.06,1-.47,1.18-1.47,1.18h-13c-.53,0-.71.23-.71,1.06v10.41c0,1.47-.53,2-1.76,2.12Z"/>
        <path class="cls-2" d="M337.38,67.25c0,1.18,0,3.35-.06,4.53-.06,1.47-.88,2.12-2.35,2.12-1.82,0-6-.12-8.41-.12v7.17c0,7,0,13.47-.18,18.23-.06,1.47-.65,2-1.88,2.12-1.18.12-4.18.24-7.12.24s-5.94-.12-7.12-.24c-1.24-.12-1.82-.65-1.88-2.12-.18-4.76-.18-11.23-.18-18.23v-7.17c-2.41,0-6.59.12-8.41.12-1.47,0-2.29-.65-2.35-2.12-.06-1.18-.06-3.35-.06-4.53s0-3.35.06-4.53c.06-1.47.88-2,2.06-2.12,1.65-.18,11.35-.24,17.88-.24s16.23.12,17.88.24c1.18.12,2,.65,2.06,2.12.06,1.18.06,3.35.06,4.53Z"/>
      </g>
    </g>
  </g>
</svg>
