<?xml version="1.0" encoding="UTF-8"?>
<svg id="Layer_2" data-name="Layer 2" xmlns="http://www.w3.org/2000/svg" viewBox="0 0 452.6 166.2">
  <defs>
    <style>
      .cls-1 {
        fill: #ff5627;
      }

      .cls-2 {
        fill: #2847ff;
      }

      .cls-3 {
        fill: #282828;
      }

      .cls-4 {
        fill: #f2b214;
      }
    </style>
  </defs>
  <g id="Layer_1-2" data-name="Layer 1">
    <g>
      <path class="cls-4" d="M160.75,7.25v46.77c0,3.74-3.73,6.33-7.24,5.02l-14.43-5.4c-6.27-2.34-12.95,2.29-12.95,8.98v7.1c0,3.02-1.87,5.72-4.7,6.78l-30.09,11.27c-3.12,1.17-6.45-1.14-6.45-4.47V30.27c0-3.02,1.87-5.72,4.7-6.78L150.97.47c4.74-1.78,9.79,1.72,9.79,6.78Z"/>
      <path class="cls-3" d="M75.86,30.27v30.42c0,3.72-4.07,6.01-7.25,4.08l-12.49-7.57c-6.53-3.96-14.87.74-14.87,8.37v3.19c0,4.11-4.1,6.95-7.95,5.5l-28.6-10.75c-2.82-1.06-4.69-3.76-4.69-6.78V7.25C0,2.19,5.05-1.31,9.79.47l61.37,23.02c2.83,1.06,4.7,3.76,4.7,6.78Z"/>
      <path class="cls-1" d="M75.86,84.12v74.83c0,5.06-5.05,8.56-9.79,6.78l-61.37-23.02c-2.83-1.06-4.7-3.76-4.7-6.78v-56.43c0-3.61,3.61-6.11,6.99-4.84l32.87,12.36c4.76,1.79,9.85-1.73,9.85-6.82v-7.7c0-3.64,3.98-5.88,7.09-4l15.57,9.42c2.17,1.31,3.49,3.66,3.49,6.2Z"/>
      <path class="cls-2" d="M160.74,77.05v58.88c0,3.02-1.87,5.72-4.7,6.78l-61.37,23.02c-4.74,1.78-9.79-1.72-9.79-6.78v-53.45c0-3.02,1.87-5.72,4.69-6.78l40.29-15.15c2.84-1.07,4.72-3.78,4.72-6.82v-7.79c0-3.26,3.26-5.52,6.31-4.37l15.15,5.68c2.83,1.06,4.7,3.76,4.7,6.78Z"/>
    </g>
    <g>
      <path d="M203.92,88.03V31.04h13.63l.44,4.13c1.35-.7,2.81-1.32,4.4-1.85s3.25-.98,5.01-1.36c1.76-.38,3.55-.69,5.36-.92,1.82-.23,3.61-.35,5.36-.35,3.4,0,6.13.46,8.18,1.36,2.05.91,3.53,2.18,4.44,3.83.91,1.64,1.36,3.58,1.36,5.8v20.58c0,2.17-.54,4.08-1.63,5.72-1.09,1.64-2.65,2.9-4.7,3.78-2.05.88-4.6,1.32-7.65,1.32-2.7,0-5.25-.21-7.65-.62-2.4-.41-4.54-.91-6.42-1.5-1.88-.58-3.9-1.29-6.07-2.11v19.17h-14.07ZM217.99,61.29h20.23v-18.38h-20.23v18.38Z"/>
      <path d="M272.33,73.08c-3.4,0-6.14-.45-8.22-1.36-2.08-.91-3.58-2.18-4.48-3.83-.91-1.64-1.36-3.52-1.36-5.63v-20.58c0-2.23.44-4.16,1.32-5.8.88-1.64,2.33-2.92,4.35-3.83,2.02-.91,4.82-1.36,8.4-1.36,1.76,0,3.53.12,5.32.35,1.79.23,3.55.54,5.28.92,1.73.38,3.4.84,5.01,1.36,1.61.53,3.09,1.14,4.44,1.85l.44-4.13h13.54v41.68h-13.54l-.44-3.87c.06,0-.45.21-1.54.62-1.09.41-2.6.91-4.53,1.49-1.94.59-4.09,1.09-6.46,1.5-2.38.41-4.88.62-7.52.62ZM272.16,61.29h20.22v-18.38h-20.22v18.38Z"/>
      <path d="M314.01,88.03V31.04h13.63l.44,4.13c1.35-.7,2.81-1.32,4.4-1.85,1.58-.53,3.25-.98,5.01-1.36,1.76-.38,3.55-.69,5.36-.92,1.82-.23,3.61-.35,5.36-.35,3.4,0,6.12.46,8.18,1.36,2.05.91,3.53,2.18,4.44,3.83.91,1.64,1.36,3.58,1.36,5.8v20.58c0,2.17-.54,4.08-1.63,5.72-1.08,1.64-2.65,2.9-4.7,3.78-2.05.88-4.6,1.32-7.65,1.32-2.7,0-5.25-.21-7.65-.62-2.4-.41-4.54-.91-6.42-1.5-1.88-.58-3.9-1.29-6.07-2.11v19.17h-14.07ZM328.08,61.29h20.23v-18.38h-20.23v18.38Z"/>
      <path d="M381.64,72.73c-4.16,0-7.42-.95-9.76-2.86-2.34-1.9-3.52-4.67-3.52-8.31v-18.64c0-2.29.48-4.31,1.45-6.07.97-1.76,2.42-3.17,4.35-4.22,1.93-1.05,4.37-1.58,7.3-1.58h20.75c4.46,0,7.69,1.04,9.72,3.12,2.02,2.08,3.03,4.82,3.03,8.22v13.19h-32.71v6.68h18.91v-2.9h13.81v3.08c0,3.28-.97,5.82-2.9,7.61-1.93,1.79-5.13,2.68-9.58,2.68h-20.84ZM401.16,41.51h-18.91v7.04h18.91v-7.04Z"/>
      <path d="M421.82,72.73V31.04h13.63l.44,5.01c.59-.53,1.61-1.2,3.08-2.02,1.46-.82,3.34-1.58,5.63-2.29s4.95-1.06,8-1.06l-1.23,12.22h-15.48v29.81h-14.07Z"/>
      <path d="M217.29,135.51c-3.4,0-6.14-.45-8.22-1.36-2.08-.91-3.58-2.18-4.48-3.83-.91-1.64-1.36-3.52-1.36-5.63v-20.58c0-2.23.44-4.16,1.32-5.8.88-1.64,2.33-2.92,4.35-3.83,2.02-.91,4.82-1.36,8.4-1.36,1.76,0,3.53.12,5.32.35,1.79.24,3.55.54,5.28.92,1.73.38,3.4.83,5.01,1.36,1.61.53,3.09,1.14,4.44,1.85v-22.07h13.98v59.62h-13.54l-.44-3.87c.06,0-.46.21-1.54.62-1.09.41-2.59.91-4.53,1.5-1.93.59-4.09,1.08-6.46,1.5-2.37.41-4.88.62-7.52.62ZM217.11,123.72h20.23v-18.38h-20.23v18.38Z"/>
      <path d="M270.4,135.15c-1.88,0-3.75-.38-5.63-1.14-1.88-.76-3.42-1.95-4.62-3.56-1.2-1.61-1.8-3.62-1.8-6.02v-18.99c0-4.04,1.19-7.05,3.56-9.01,2.37-1.96,5.47-2.95,9.28-2.95h21.28c4.69,0,8.06,1.07,10.11,3.21,2.05,2.14,3.08,5.09,3.08,8.84v18.55c0,3.22-.97,5.88-2.9,7.96-1.93,2.08-5.39,3.12-10.38,3.12h-21.98ZM272.25,123.99h19.61v-18.91h-19.61v18.91Z"/>
      <path d="M323.16,135.15c-1.76,0-3.5-.35-5.23-1.06-1.73-.7-3.17-1.82-4.31-3.34-1.14-1.52-1.71-3.46-1.71-5.8v-20.84c0-3.22,1.07-5.8,3.21-7.74,2.14-1.93,5.08-2.9,8.84-2.9h21.54c3.4,0,6.04.53,7.91,1.58,1.88,1.05,3.21,2.49,4,4.31.79,1.82,1.19,3.87,1.19,6.16v3.96h-13.89v-4.13h-19.08v18.38h19.08v-5.36h13.89v6.86c0,2.93-1.06,5.32-3.17,7.17s-5.31,2.77-9.58,2.77h-22.69Z"/>
      <path d="M365.1,135.15v-59.62h14.07v32.01h2.02l13.89-14.07h18.11l-19.79,18.73v.88l21.63,22.07h-18.29l-15.57-16.09h-2.02v16.09h-14.07Z"/>
    </g>
  </g>
</svg>