<?xml version="1.0" encoding="UTF-8"?>
<svg id="Layer_2" data-name="Layer 2" xmlns="http://www.w3.org/2000/svg" viewBox="0 0 160.75 166.2">
  <defs>
    <style>
      .cls-1 {
        fill: #ff5627;
      }

      .cls-2 {
        fill: #2847ff;
      }

      .cls-3 {
        fill: #282828;
      }

      .cls-4 {
        fill: #f2b214;
      }
    </style>
  </defs>
  <g id="Layer_1-2" data-name="Layer 1">
    <g>
      <path class="cls-4" d="M160.75,7.25v46.77c0,3.74-3.73,6.33-7.24,5.02l-14.43-5.4c-6.27-2.34-12.95,2.29-12.95,8.98v7.1c0,3.02-1.87,5.72-4.7,6.78l-30.09,11.27c-3.12,1.17-6.45-1.14-6.45-4.47V30.27c0-3.02,1.87-5.72,4.7-6.78L150.97.47c4.74-1.78,9.79,1.72,9.79,6.78Z"/>
      <path class="cls-3" d="M75.86,30.27v30.42c0,3.72-4.07,6.01-7.25,4.08l-12.49-7.57c-6.53-3.96-14.87.74-14.87,8.37v3.19c0,4.11-4.1,6.95-7.95,5.5l-28.6-10.75c-2.82-1.06-4.69-3.76-4.69-6.78V7.25C0,2.19,5.05-1.31,9.79.47l61.37,23.02c2.83,1.06,4.7,3.76,4.7,6.78Z"/>
      <path class="cls-1" d="M75.86,84.12v74.83c0,5.06-5.05,8.56-9.79,6.78l-61.37-23.02c-2.83-1.06-4.7-3.76-4.7-6.78v-56.43c0-3.61,3.61-6.11,6.99-4.84l32.87,12.36c4.76,1.79,9.85-1.73,9.85-6.82v-7.7c0-3.64,3.98-5.88,7.09-4l15.57,9.42c2.17,1.31,3.49,3.66,3.49,6.2Z"/>
      <path class="cls-2" d="M160.74,77.05v58.88c0,3.02-1.87,5.72-4.7,6.78l-61.37,23.02c-4.74,1.78-9.79-1.72-9.79-6.78v-53.45c0-3.02,1.87-5.72,4.69-6.78l40.29-15.15c2.84-1.07,4.72-3.78,4.72-6.82v-7.79c0-3.26,3.26-5.52,6.31-4.37l15.15,5.68c2.83,1.06,4.7,3.76,4.7,6.78Z"/>
    </g>
  </g>
</svg>