<?xml version="1.0" encoding="UTF-8"?>
<svg id="Layer_2" data-name="Layer 2" xmlns="http://www.w3.org/2000/svg" viewBox="0 0 423.97 72.58">
  <defs>
    <style>
      .cls-1 {
        fill: #4f46e5;
      }
    </style>
  </defs>
  <g id="Layer_1-2" data-name="Layer 1">
    <g>
      <path class="cls-1" d="M.4,47.76v-23.03C.4,13.62.18,6.67,0,3.57c-.05-.86.63-1.57,1.49-1.57h18.33c.86,0,1.55.72,1.49,1.58-.2,3.11-.47,10.06-.47,21.15v10.36c0,1.39,1.76,2.05,2.64.97,4.25-5.19,6.57-11.58,6.57-18.11,0-4.68-1.23-9.36-3.59-13.73-.54-1,.16-2.22,1.3-2.22h20.07c.76,0,1.4.58,1.49,1.33.16,1.36.25,2.75.25,4.25,0,11.08-5.42,20.73-18.1,30.73-1.11.88-.49,2.67.92,2.67h1.96c6.68,0,10.99,4.09,12.93,12.46l3.55,15.21c.22.94-.49,1.83-1.46,1.83h-18.61c-.77,0-1.41-.58-1.49-1.35-.19-1.86-.75-5.25-2.03-11.21-1.69-7.88-2.7-10.07-5.49-10.07h-.93v.8c0,10.36.27,17.16.47,20.25.05.86-.63,1.58-1.49,1.58H1.5c-.86,0-1.54-.71-1.49-1.57.17-3.11.39-10.05.39-21.16Z"/>
      <path class="cls-1" d="M55.75,47.76v-23.03c0-11.22-.22-18.2-.4-21.25-.05-.82.58-1.52,1.4-1.57,6.11-.35,14.88-.61,18.78-.61,20.54,0,29.83,6.98,29.83,19.14,0,9.23-5.38,15.7-14.24,19.96-1.29.62-1.08,2.52.32,2.81,7.02,1.47,9.96,5.38,11.47,11.83l3.2,13.62c.22.94-.49,1.84-1.46,1.84h-18.58c-.78,0-1.42-.59-1.48-1.37-.12-1.37-.38-2.91-.7-4.62l-.93-4.69c-1.69-8.47-2.7-10.87-5.66-10.87h-1.18v.3c0,10.23.22,16.68.39,19.66.05.86-.63,1.58-1.49,1.58h-18.17c-.86,0-1.54-.71-1.49-1.57.17-3.11.39-10.05.39-21.16ZM84.57,24.83c0-6.52-2.01-11.96-6.19-15.4-.97-.8-2.43-.08-2.43,1.17v28.25c0,1.24,1.45,1.97,2.42,1.18,3.89-3.19,6.2-8.18,6.2-15.2Z"/>
      <path class="cls-1" d="M111.27,54.04v-29.31c0-11.1-.22-18.05-.39-21.16-.05-.86.63-1.57,1.49-1.57h18.26c.86,0,1.54.71,1.49,1.57-.17,3.11-.39,10.05-.39,21.16v27.82c0,2.89.93,3.99,2.2,3.99,2.11,0,3.99-2.95,5.41-5.66.11-.21.17-.45.17-.69v-25.45c0-11.1-.22-18.05-.39-21.16-.05-.86.63-1.57,1.49-1.57h18.26c.86,0,1.54.71,1.49,1.57-.17,3.11-.39,10.05-.39,21.16v29.41c0,7.04.35,11.39,1,14.55.19.93-.51,1.8-1.46,1.8h-16.64c-.72,0-1.34-.51-1.47-1.21-.25-1.37-.45-2.82-.62-4.29s-2.01-1.82-2.75-.61c-2.74,4.47-6.84,8.2-12.96,8.2-8.28,0-13.78-6.58-13.78-18.54Z"/>
      <path class="cls-1" d="M165.87,35.29c0-20.64,10.14-35.29,24.76-35.29,11.97,0,21.79,9.94,25.46,25.74.19.81-.35,1.62-1.16,1.79l-18.19,3.75c-.87.18-1.69-.44-1.79-1.32-1.25-11.65-4.62-21.48-7.44-21.48-1.78,0-2.71,3.89-2.71,10.67,0,19.64,7.78,37.49,15.89,37.49,4.02,0,6.34-4.24,6.64-13.44.03-1.03,1.06-1.72,2.02-1.36l5.56,2.1c.67.25,1.08.95.95,1.66-2.95,16.54-12.09,26.89-24.14,26.89-14.79,0-25.86-15.65-25.86-37.19Z"/>
      <path class="cls-1" d="M221.14,47.76v-23.03c0-11.22-.22-18.2-.4-21.25-.05-.82.58-1.52,1.4-1.57,6.11-.35,14.88-.61,18.78-.61,20.54,0,29.83,6.98,29.83,19.14,0,9.23-5.38,15.7-14.24,19.96-1.29.62-1.08,2.52.32,2.81,7.02,1.47,9.96,5.38,11.47,11.83l3.2,13.62c.22.94-.49,1.84-1.46,1.84h-18.58c-.78,0-1.42-.59-1.48-1.37-.12-1.37-.38-2.91-.7-4.62l-.93-4.69c-1.69-8.47-2.7-10.87-5.66-10.87h-1.18v.3c0,10.23.22,16.68.39,19.66.05.86-.63,1.58-1.49,1.58h-18.17c-.86,0-1.54-.71-1.49-1.57.17-3.11.39-10.05.39-21.16ZM249.96,24.83c0-6.52-2.01-11.96-6.19-15.4-.97-.8-2.43-.08-2.43,1.17v28.25c0,1.24,1.45,1.97,2.42,1.18,3.89-3.19,6.21-8.18,6.21-15.2Z"/>
      <path class="cls-1" d="M271.85,68.99c0-10.17,4.82-27.52,12.76-49.95l5.82-16.35c.21-.6.78-.99,1.41-.99h13.64c.66,0,1.24.43,1.43,1.07l19.65,65.8c.29.96-.43,1.92-1.43,1.92h-19.77c-.75,0-1.39-.55-1.48-1.29-.31-2.4-1.33-6.82-3.24-14.23-.17-.66-.77-1.13-1.45-1.13h-7.73c-1,0-1.71.96-1.44,1.92,1.26,4.47,3.21,8.57,5.82,12.38.68,1,0,2.35-1.22,2.35h-21.26c-.83,0-1.5-.67-1.5-1.5h0ZM289.67,44.67h6.26c.98,0,1.7-.93,1.44-1.88l-5.58-20.85-.25.7c-2.62,7.08-3.38,13.26-3.38,18.94,0,.53,0,1.09.01,1.64.02.81.69,1.45,1.5,1.45Z"/>
      <path class="cls-1" d="M329.74,47.76v-23.03c0-11.1-.22-18.05-.39-21.16-.05-.86.63-1.57,1.49-1.57h36.95c.69,0,1.29.47,1.45,1.14l1.97,7.97c.25,1.03-.62,1.98-1.67,1.83-5.9-.84-11.72-1.4-17.69-1.7-.85-.04-1.58.65-1.58,1.5v22.78c0,.85.71,1.53,1.56,1.49l13.71-.64c.96-.04,1.71.82,1.54,1.76l-1.43,7.83c-.14.78-.87,1.31-1.66,1.21-4.13-.52-8.2-.85-12.16-1.04-.85-.04-1.56.64-1.56,1.5v.13c0,11.1.22,18.05.39,21.16.05.86-.63,1.57-1.49,1.57h-18.34c-.86,0-1.54-.71-1.49-1.57.17-3.11.39-10.05.39-21.16Z"/>
      <path class="cls-1" d="M376.96,1.99h43.55c.69,0,1.29.47,1.45,1.14l1.96,7.9c.26,1.05-.65,2.01-1.71,1.83-4.01-.68-7.9-1.2-11.58-1.55-.88-.08-1.63.61-1.63,1.49v34.95c0,11.1.22,18.05.39,21.16.05.86-.63,1.57-1.49,1.57h-18.34c-.86,0-1.54-.71-1.49-1.57.17-3.11.39-10.05.39-21.16V12.8c0-.88-.75-1.58-1.63-1.49-3.67.35-7.57.86-11.58,1.55-1.07.18-1.97-.78-1.71-1.83l1.96-7.9c.17-.67.76-1.14,1.45-1.14Z"/>
    </g>
  </g>
</svg>