<?xml version="1.0" encoding="UTF-8"?>
<svg id="Layer_2" data-name="Layer 2" xmlns="http://www.w3.org/2000/svg" xmlns:xlink="http://www.w3.org/1999/xlink" viewBox="0 0 1373 1373">
  <defs>
    <style>
      .cls-1 {
        fill: none;
      }

      .cls-2 {
        fill: #1d1d93;
      }

      .cls-3 {
        fill: #fff;
      }

      .cls-4 {
        fill: #2d28bb;
      }

      .cls-5 {
        clip-path: url(#clippath);
      }
    </style>
    <clipPath id="clippath">
      <rect class="cls-1" width="1373" height="1373"/>
    </clipPath>
  </defs>
  <g id="Layer_1-2" data-name="Layer 1">
    <rect class="cls-4" width="1373" height="1373" rx="120" ry="120"/>
    <g class="cls-5">
      <path class="cls-2" d="M1534.5,118.16v-7.25h-250.78c-11.95,0-21.64-9.69-21.64-21.64v-250.78h-7.25V89.27c0,11.95-9.69,21.64-21.64,21.64h-235.46c-11.95,0-21.64-9.69-21.64-21.64v-250.78h-7.25V89.27c0,11.95-9.69,21.64-21.64,21.64h-235.45c-11.95,0-21.64-9.69-21.64-21.64v-250.78h-7.26V89.27c0,11.95-9.69,21.64-21.64,21.64h-235.45c-11.95,0-21.64-9.69-21.64-21.64v-250.78h-7.22V89.27c0,11.95-9.69,21.64-21.64,21.64h-235.49c-11.95,0-21.64-9.69-21.64-21.64v-250.78h-7.22V89.27c0,11.95-9.69,21.64-21.64,21.64h-250.81v7.25H89.29c11.95,0,21.64,9.69,21.64,21.64v235.45c0,11.95-9.69,21.64-21.64,21.64h-250.81v7.26H89.29c11.95,0,21.64,9.69,21.64,21.64v235.45c0,11.95-9.69,21.64-21.64,21.64h-250.81v7.26H89.29c11.95,0,21.64,9.69,21.64,21.64v235.45c0,11.95-9.69,21.64-21.64,21.64h-250.81v7.26H89.29c11.95,0,21.64,9.69,21.64,21.64v235.45c0,11.95-9.69,21.64-21.64,21.64h-250.81v7.21H89.29c11.95,0,21.64,9.69,21.64,21.64v250.82h7.22v-250.82c0-11.95,9.69-21.64,21.64-21.64h235.49c11.95,0,21.64,9.69,21.64,21.64v250.82h7.22v-250.82c0-11.95,9.69-21.64,21.64-21.64h235.45c11.95,0,21.64,9.69,21.64,21.64v250.82h7.26v-250.82c0-11.95,9.69-21.64,21.64-21.64h235.45c11.95,0,21.64,9.69,21.64,21.64v250.82h7.25v-250.82c0-11.95,9.69-21.64,21.64-21.64h235.46c11.95,0,21.64,9.69,21.64,21.64v250.82h7.25v-250.82c0-11.95,9.69-21.64,21.64-21.64h250.78v-7.21h-250.78c-11.95,0-21.64-9.69-21.64-21.64v-235.45c0-11.95,9.69-21.64,21.64-21.64h250.78v-7.26h-250.78c-11.95,0-21.64-9.69-21.64-21.64v-235.45c0-11.95,9.69-21.64,21.64-21.64h250.78v-7.26h-250.78c-11.95,0-21.64-9.69-21.64-21.64v-235.45c0-11.95,9.69-21.64,21.64-21.64h250.78v-7.26h-250.78c-11.95,0-21.64-9.69-21.64-21.64v-235.45c0-11.95,9.69-21.64,21.64-21.64h250.78ZM139.79,118.16h235.49c11.95,0,21.64,9.69,21.64,21.64v235.45c0,11.95-9.69,21.64-21.64,21.64h-235.49c-11.95,0-21.64-9.69-21.64-21.64v-235.45c0-11.95,9.69-21.64,21.64-21.64ZM139.79,404.15h235.49c11.95,0,21.64,9.69,21.64,21.64v235.45c0,11.95-9.69,21.64-21.64,21.64h-235.49c-11.95,0-21.64-9.69-21.64-21.64v-235.45c0-11.95,9.69-21.64,21.64-21.64ZM139.79,690.13h235.49c11.95,0,21.64,9.69,21.64,21.64v235.45c0,11.95-9.69,21.64-21.64,21.64h-235.49c-11.95,0-21.64-9.69-21.64-21.64v-235.45c0-11.95,9.69-21.64,21.64-21.64ZM118.15,1233.21v-235.45c0-11.95,9.69-21.64,21.64-21.64h235.49c11.95,0,21.64,9.69,21.64,21.64v235.45c0,11.95-9.69,21.64-21.64,21.64h-235.49c-11.95,0-21.64-9.69-21.64-21.64ZM661.23,1254.85h-235.45c-11.95,0-21.64-9.69-21.64-21.64v-235.45c0-11.95,9.69-21.64,21.64-21.64h235.45c11.95,0,21.64,9.69,21.64,21.64v235.45c0,11.95-9.69,21.64-21.64,21.64ZM661.23,968.86h-235.45c-11.95,0-21.64-9.69-21.64-21.64v-235.45c0-11.95,9.69-21.64,21.64-21.64h235.45c11.95,0,21.64,9.69,21.64,21.64v235.45c0,11.95-9.69,21.64-21.64,21.64ZM661.23,682.88h-235.45c-11.95,0-21.64-9.69-21.64-21.64v-235.45c0-11.95,9.69-21.64,21.64-21.64h235.45c11.95,0,21.64,9.69,21.64,21.64v235.45c0,11.95-9.69,21.64-21.64,21.64ZM661.23,396.89h-235.45c-11.95,0-21.64-9.69-21.64-21.64v-235.45c0-11.95,9.69-21.64,21.64-21.64h235.45c11.95,0,21.64,9.69,21.64,21.64v235.45c0,11.95-9.69,21.64-21.64,21.64ZM947.21,1254.85h-235.45c-11.95,0-21.64-9.69-21.64-21.64v-235.45c0-11.95,9.69-21.64,21.64-21.64h235.45c11.95,0,21.64,9.69,21.64,21.64v235.45c0,11.95-9.69,21.64-21.64,21.64ZM947.21,968.86h-235.45c-11.95,0-21.64-9.69-21.64-21.64v-235.45c0-11.95,9.69-21.64,21.64-21.64h235.45c11.95,0,21.64,9.69,21.64,21.64v235.45c0,11.95-9.69,21.64-21.64,21.64ZM947.21,682.88h-235.45c-11.95,0-21.64-9.69-21.64-21.64v-235.45c0-11.95,9.69-21.64,21.64-21.64h235.45c11.95,0,21.64,9.69,21.64,21.64v235.45c0,11.95-9.69,21.64-21.64,21.64ZM947.21,396.89h-235.45c-11.95,0-21.64-9.69-21.64-21.64v-235.45c0-11.95,9.69-21.64,21.64-21.64h235.45c11.95,0,21.64,9.69,21.64,21.64v235.45c0,11.95-9.69,21.64-21.64,21.64ZM1233.2,1254.85h-235.46c-11.95,0-21.64-9.69-21.64-21.64v-235.45c0-11.95,9.69-21.64,21.64-21.64h235.46c11.95,0,21.64,9.69,21.64,21.64v235.45c0,11.95-9.69,21.64-21.64,21.64ZM1233.2,968.86h-235.46c-11.95,0-21.64-9.69-21.64-21.64v-235.45c0-11.95,9.69-21.64,21.64-21.64h235.46c11.95,0,21.64,9.69,21.64,21.64v235.45c0,11.95-9.69,21.64-21.64,21.64ZM1233.2,682.88h-235.46c-11.95,0-21.64-9.69-21.64-21.64v-235.45c0-11.95,9.69-21.64,21.64-21.64h235.46c11.95,0,21.64,9.69,21.64,21.64v235.45c0,11.95-9.69,21.64-21.64,21.64ZM1233.2,396.89h-235.46c-11.95,0-21.64-9.69-21.64-21.64v-235.45c0-11.95,9.69-21.64,21.64-21.64h235.46c11.95,0,21.64,9.69,21.64,21.64v235.45c0,11.95-9.69,21.64-21.64,21.64Z"/>
    </g>
    <g>
      <path class="cls-3" d="M137.16,513.43v-137.7c0-64-1.41-104.91-2.58-124.41-.38-6.27,5.39-11.5,12.61-11.5h121.26c7.26,0,13.04,5.28,12.61,11.58-1.33,19.53-3.08,60.42-3.08,124.34v56.06c0,10.44,15.33,15.08,22.62,6.78,26.42-30.09,40.81-66.36,40.81-103.38,0-26.97-7.88-53.95-22.98-79.26-4.38-7.35,1.6-16.12,11.13-16.12h132.19c6.43,0,11.89,4.18,12.58,9.73.94,7.57,1.51,15.32,1.51,23.65,0,64.94-35.85,121.66-119.43,180.18-9.28,6.5-4.04,19.51,7.88,19.51h6.81c45.97,0,75.65,24.44,89.03,74.51l23.74,88.48c1.85,6.88-4.17,13.45-12.3,13.45h-123.06c-6.43,0-11.82-4.18-12.54-9.73-1.5-11.43-5.35-31.44-13.74-65.38-11.64-47.09-18.62-60.21-37.82-60.21h-6.4v4.77c0,59.68,1.75,99.62,3.08,118.96.43,6.3-5.34,11.58-12.61,11.58h-121.26c-7.23,0-12.99-5.24-12.61-11.5,1.17-19.5,2.58-60.41,2.58-124.41Z"/>
      <path class="cls-3" d="M518.33,513.43v-137.7c0-64.75-1.44-105.86-2.62-125.08-.37-6.02,4.92-11.16,11.85-11.5,41.97-2.04,100.62-3.5,126.93-3.5,141.4,0,205.41,41.73,205.41,114.45,0,53.48-34.84,91.5-92.52,116.96-10.35,4.57-8.69,17.89,2.57,20.34,44.12,9.58,63.15,32.58,73.07,69.55l21.37,78.92c1.86,6.88-4.15,13.48-12.3,13.48h-122.83c-6.57,0-11.92-4.37-12.57-10.05-.88-7.73-2.61-16.3-4.6-25.72l-6.4-28.02c-11.64-50.67-18.62-64.97-38.99-64.97h-8.15v1.79c0,58.88,1.39,96.81,2.55,115.45.39,6.28-5.37,11.52-12.61,11.52h-120.15c-7.23,0-12.99-5.22-12.61-11.49,1.17-19.5,2.58-60.41,2.58-124.42ZM716.76,376.32c0-36.89-12.4-68-38.11-88.69-8.07-6.5-21.24-1.46-21.24,8.1v159.95c0,9.45,13,14.62,21.03,8.23,24.1-19.16,38.32-47.96,38.32-87.59Z"/>
      <path class="cls-3" d="M900.67,550.98c.32-44.96,0-175.25,0-175.25,0-63.97-1.41-104.87-2.58-124.38-.38-6.27,5.38-11.53,12.61-11.53h120.76c7.23,0,12.99,5.26,12.61,11.53-1.17,19.51-2.58,60.41-2.58,124.38v166.31c0,17.29,6.4,23.85,15.13,23.85,5.77,0,12.78-3.32,19.23-8.44,12.39-9.83,19.17-23.89,19.17-38.46v-143.26c0-63.97-1.41-104.87-2.58-124.38-.38-6.27,5.38-11.53,12.61-11.53h120.76c7.23,0,12.99,5.26,12.61,11.53-1.17,19.51-2.59,60.41-2.59,124.38v175.85c0,40.43-.68,59.31-.32,78.35.16,8.44-3.6,17.37-17.41,19.41-14.92,2.21-43.61,2.22-64.68,2.08-10.8-.07-20.1-3.05-17.73-24.27,2.65-23.77-54.99-5.36-95.28,7.31-41.65,13.1-60.62,16.48-83.36,16.48-61.97,0-56.75-48.75-56.38-99.95Z"/>
    </g>
    <path class="cls-3" d="M1046.55,885.52c-9.43-5.1-17.38-2.73-26.33,2.28-29.25,16.36-58.67,26.94-91.61,39.92l-11.88,207.47c-3.46,26.57-48.77,41-73.5,33.99l3.94-129-45.6,25.87c-9.33,5.29-33.27,1.34-40.8-5.13-7.78-6.69-14.28-22.54-20.43-38.29-29.84,29.37-77.83,81.11-125.01,50.01-54.8-36.12-2.95-155.17,72.21-204.68,41.67-27.45,92.8-20.55,123.2,17.03-19.13,26.2-45.62,5.91-67.44,10.23-48.79,9.68-83.01,72.56-78.8,121.69,1.26,14.71,26.86,4.87,33.26-2.59,26.85-31.31,43.52-63.52,63.7-101.28,12.25-7.81,37.2-6.76,53.54-1.48l-18.82,76.74c-1.98,8.08,4.82,31.69,12.49,29.54,21.29-5.95,45.89-29.61,49.01-50.14,6.31-41.49,12.06-77.86,24.69-116.8,16-49.34,50.44-162.79,108.47-162.37,20.24.14,48.82,8.73,55.15,30.16,10.57,35.78-2.63,79.68-45.28,88.13l.12-59.07c0-4.71-5.92-14.11-9.67-15.33-23.65-7.71-49.56,122.12-53.18,145.77l56.16-14.61c17.7-44.17,41.32-21.93,69.87-39.28,9.02-24.98,17.38-50.61,29.32-73.93,9.3-18.17,51.55-11.15,55.2,9.53,3.03,17.19-3.86,36.31-8.22,58.64l85.49-.06c6.38,0,9.34,18.34,6.02,22.92-15.93,21.98-67.6,10.18-107.27,22.66l-31.33,128.22c-1.57,6.41,3.89,20.34,8.16,23.65,30.03,23.21,67.72-41.47,83.2-48.96,3.61-1.75,10.46,14.62,9.31,18.48-19.26,64.58-102.49,105.23-144.81,72.72-38.41-29.51-11.97-123.15-2.53-172.63Z"/>
    <path class="cls-3" d="M523.05,895.06c3.9,12.72,5.39,26.91,7.49,40.07,12.65-30.29,53.49-71.79,84.25-47.48,6.27,4.95,10.21,20.43,9.24,30.51-1.66,17.4-18.41,39.19-34.81,31.96-7.47-3.29-16.91-8.96-22.3-10.02-6.29-1.23-17.86,9.31-22.34,15.63-50.85,71.75-31.26,141.3-66.33,154.7-12.15,4.64-38.62,2.49-41.19-9.66l-7.03-33.38c-62.33,60.15-187.44,120.56-262.09,57.09-81.81-69.56-29.24-212.66,26.95-289.68,50.74-69.55,147.25-155.34,238.77-125.36,26.93,8.82,44.19,30.56,46.07,58.81,2.12,31.85-8.52,63.23-29.92,86.97-14.03,15.57-40.79,22.81-57.94,12.01-19.8-12.46,55.08-80.01,22.52-111.89-5.23-5.12-22.34-5.5-30.36-2.56-41.38,15.15-68.22,46.75-93.47,81.65-37.9,52.39-67.96,110.27-68.58,176.49-.19,20.14,7.98,43.47,19.83,55.07,56.11,54.96,195.82-37.88,206.47-78.84l25.77-99.11c3.86-14.86,43.54-10.84,49.02,7.02Z"/>
  </g>
</svg>