<?xml version="1.0" encoding="UTF-8"?>
<svg id="Layer_2" data-name="Layer 2" xmlns="http://www.w3.org/2000/svg" viewBox="0 0 551.49 111.18">
  <defs>
    <style>
      .cls-1 {
        fill: none;
      }

      .cls-2 {
        fill: #4f46e5;
      }
    </style>
  </defs>
  <g id="Layer_1-2" data-name="Layer 1">
    <g>
      <rect class="cls-1" width="551.49" height="111.18"/>
      <g>
        <path class="cls-2" d="M.52,68.31v-25.56C.52,30.43.23,22.71,0,19.27c-.06-.95.82-1.75,1.94-1.75h23.85c1.12,0,2.01.8,1.94,1.76-.25,3.45-.61,11.16-.61,23.47v11.5c0,1.55,2.28,2.27,3.43,1.08,5.53-5.76,8.55-12.85,8.55-20.1,0-5.2-1.6-10.39-4.67-15.24-.7-1.11.21-2.46,1.69-2.46h26.11c.99,0,1.82.64,1.94,1.48.2,1.51.33,3.05.33,4.72,0,12.3-7.05,23.01-23.54,34.11-1.45.97-.64,2.96,1.2,2.96h2.55c8.68,0,14.29,4.54,16.82,13.83l4.61,16.89c.28,1.04-.64,2.04-1.89,2.04h-24.2c-1,0-1.83-.65-1.93-1.5-.25-2.06-.97-5.83-2.64-12.45-2.2-8.74-3.52-11.18-7.15-11.18h-1.21v.89c0,11.5.36,19.05.61,22.48.07.96-.82,1.76-1.94,1.76H1.94c-1.12,0-2-.79-1.94-1.75.23-3.45.51-11.16.51-23.49Z"/>
        <path class="cls-2" d="M72.52,68.31v-25.56c0-12.45-.29-20.2-.52-23.59-.06-.91.75-1.69,1.82-1.74,7.95-.39,19.36-.67,24.42-.67,26.72,0,38.81,7.75,38.81,21.25,0,10.24-7,17.43-18.52,22.15-1.68.69-1.41,2.79.42,3.12,9.13,1.63,12.96,5.97,14.92,13.13l4.17,15.11c.29,1.04-.64,2.04-1.89,2.04h-24.17c-1.01,0-1.85-.66-1.93-1.52-.15-1.52-.5-3.23-.91-5.12l-1.21-5.2c-2.2-9.41-3.52-12.06-7.37-12.06h-1.54v.33c0,11.35.28,18.51.51,21.82.06.95-.82,1.75-1.94,1.75h-23.63c-1.12,0-2-.79-1.94-1.75.23-3.45.51-11.16.51-23.49ZM110.01,42.86c0-7.23-2.61-13.27-8.05-17.1-1.26-.89-3.17-.09-3.17,1.3v31.36c0,1.38,1.89,2.19,3.14,1.31,5.06-3.54,8.07-9.08,8.07-16.88Z"/>
        <path class="cls-2" d="M144.74,75.29v-32.54c0-12.33-.29-20.04-.51-23.49-.06-.95.82-1.75,1.94-1.75h23.75c1.12,0,2,.79,1.94,1.75-.23,3.45-.51,11.16-.51,23.49v30.87c0,3.21,1.21,4.43,2.86,4.43,2.75,0,5.19-3.27,7.04-6.28.15-.24.22-.5.22-.77v-28.25c0-12.33-.29-20.04-.51-23.49-.06-.95.82-1.75,1.94-1.75h23.75c1.12,0,2,.79,1.94,1.75-.23,3.45-.51,11.16-.51,23.49v32.65c0,7.81.45,12.64,1.3,16.15.25,1.03-.67,2-1.9,2h-21.65c-.93,0-1.75-.56-1.91-1.35-.32-1.52-.59-3.13-.8-4.76s-2.61-2.02-3.58-.67c-3.56,4.96-8.89,9.1-16.86,9.1-10.77,0-17.92-7.3-17.92-20.58Z"/>
        <path class="cls-2" d="M215.76,54.48c0-22.91,13.19-39.17,32.21-39.17,15.57,0,28.35,11.04,33.11,28.56.25.9-.45,1.8-1.51,1.99l-23.66,4.16c-1.13.2-2.2-.48-2.33-1.46-1.63-12.94-6.01-23.84-9.68-23.84-2.31,0-3.52,4.32-3.52,11.84,0,21.8,10.12,41.61,20.67,41.61,5.22,0,8.25-4.7,8.64-14.92.04-1.14,1.38-1.91,2.63-1.51l7.24,2.33c.87.28,1.4,1.06,1.24,1.84-3.83,18.36-15.73,29.85-31.4,29.85-19.24,0-33.64-17.37-33.64-41.28Z"/>
        <path class="cls-2" d="M287.65,68.31v-25.56c0-12.45-.29-20.2-.52-23.59-.06-.91.75-1.69,1.82-1.74,7.95-.39,19.36-.67,24.42-.67,26.72,0,38.81,7.75,38.81,21.25,0,10.24-7,17.43-18.52,22.15-1.68.69-1.41,2.79.42,3.12,9.13,1.63,12.96,5.97,14.92,13.13l4.17,15.11c.29,1.04-.64,2.04-1.89,2.04h-24.17c-1.01,0-1.85-.66-1.93-1.52-.15-1.52-.5-3.23-.91-5.12l-1.21-5.2c-2.2-9.41-3.52-12.06-7.37-12.06h-1.54v.33c0,11.35.28,18.51.51,21.82.06.95-.82,1.75-1.94,1.75h-23.63c-1.12,0-2-.79-1.94-1.75.23-3.45.51-11.16.51-23.49ZM325.14,42.86c0-7.23-2.62-13.27-8.05-17.1-1.26-.89-3.17-.09-3.17,1.3v31.36c0,1.38,1.89,2.19,3.14,1.31,5.06-3.54,8.07-9.08,8.07-16.87Z"/>
        <path class="cls-2" d="M353.61,91.89c0-11.29,6.27-30.54,16.6-55.44l7.57-18.15c.28-.66,1.01-1.1,1.83-1.1h17.74c.86,0,1.62.48,1.86,1.18l25.55,73.04c.37,1.06-.56,2.13-1.86,2.13h-25.71c-.97,0-1.8-.61-1.93-1.43-.4-2.67-1.73-7.57-4.22-15.8-.22-.73-1-1.25-1.89-1.25h-10.05c-1.3,0-2.23,1.06-1.87,2.13,1.64,4.96,4.18,9.51,7.57,13.74.89,1.11-.01,2.61-1.59,2.61h-27.65c-1.07,0-1.94-.74-1.94-1.66h0ZM376.79,64.88h8.15c1.28,0,2.21-1.03,1.88-2.09l-7.26-23.14-.33.77c-3.41,7.86-4.4,14.72-4.4,21.03,0,.59,0,1.21.02,1.83.02.9.9,1.61,1.95,1.61Z"/>
        <path class="cls-2" d="M428.91,68.31v-25.56c0-12.33-.29-20.04-.51-23.49-.06-.95.82-1.75,1.94-1.75h48.06c.89,0,1.67.52,1.89,1.26l2.57,8.85c.33,1.14-.8,2.2-2.17,2.03-7.68-.93-15.25-1.56-23.01-1.88-1.11-.05-2.05.72-2.05,1.67v25.29c0,.95.93,1.7,2.04,1.66l17.84-.71c1.25-.05,2.23.91,2,1.96l-1.87,8.69c-.19.87-1.13,1.45-2.16,1.34-5.37-.57-10.66-.94-15.82-1.16-1.11-.05-2.03.71-2.03,1.66v.14c0,12.33.29,20.04.51,23.49.06.95-.82,1.75-1.94,1.75h-23.86c-1.12,0-2-.79-1.94-1.75.23-3.45.51-11.16.51-23.49Z"/>
        <path class="cls-2" d="M490.34,17.52h56.65c.89,0,1.67.52,1.89,1.26l2.54,8.77c.34,1.17-.84,2.23-2.23,2.03-5.21-.76-10.28-1.33-15.06-1.72-1.14-.09-2.11.68-2.11,1.66v38.8c0,12.33.29,20.04.51,23.49.06.95-.82,1.75-1.94,1.75h-23.86c-1.12,0-2-.79-1.94-1.75.23-3.45.51-11.16.51-23.49V29.52c0-.98-.98-1.75-2.11-1.66-4.78.39-9.84.96-15.06,1.72-1.39.2-2.57-.87-2.23-2.03l2.54-8.77c.21-.74.99-1.26,1.89-1.26Z"/>
      </g>
    </g>
  </g>
</svg>