<?xml version="1.0" encoding="UTF-8"?>
<svg id="Layer_2" data-name="Layer 2" xmlns="http://www.w3.org/2000/svg" viewBox="0 0 470.58 111.18">
  <defs>
    <style>
      .cls-1 {
        fill: none;
      }

      .cls-2 {
        fill: #4f46e5;
      }
    </style>
  </defs>
  <g id="Layer_1-2" data-name="Layer 1">
    <g>
      <rect class="cls-1" width="470.58" height="111.18"/>
      <g>
        <path class="cls-2" d="M.44,68.31v-25.56C.44,30.43.2,22.71,0,19.27c-.05-.95.7-1.75,1.66-1.75h20.35c.96,0,1.72.8,1.66,1.76-.22,3.45-.52,11.16-.52,23.47v11.5c0,1.55,1.95,2.27,2.93,1.08,4.72-5.76,7.3-12.85,7.3-20.1,0-5.2-1.37-10.39-3.99-15.24-.6-1.11.18-2.46,1.44-2.46h22.28c.85,0,1.56.64,1.65,1.48.17,1.51.28,3.05.28,4.72,0,12.3-6.02,23.01-20.09,34.11-1.23.97-.54,2.96,1.03,2.96h2.18c7.41,0,12.2,4.54,14.35,13.83l3.93,16.89c.24,1.04-.55,2.04-1.62,2.04h-20.65c-.85,0-1.56-.65-1.65-1.5-.21-2.06-.83-5.83-2.25-12.45-1.88-8.74-3-11.18-6.1-11.18h-1.03v.89c0,11.5.3,19.05.52,22.48.06.96-.7,1.76-1.66,1.76H1.66c-.95,0-1.71-.79-1.66-1.75.19-3.45.44-11.16.44-23.49Z"/>
        <path class="cls-2" d="M61.88,68.31v-25.56c0-12.45-.25-20.2-.44-23.59-.05-.91.64-1.69,1.55-1.74,6.79-.39,16.52-.67,20.84-.67,22.8,0,33.12,7.75,33.12,21.25,0,10.24-5.97,17.43-15.8,22.15-1.43.69-1.2,2.79.35,3.12,7.79,1.63,11.06,5.97,12.73,13.13l3.55,15.11c.25,1.04-.55,2.04-1.62,2.04h-20.62c-.86,0-1.57-.66-1.65-1.52-.13-1.52-.43-3.23-.77-5.12l-1.03-5.2c-1.88-9.41-3-12.06-6.29-12.06h-1.31v.33c0,11.35.24,18.51.43,21.82.06.95-.7,1.75-1.66,1.75h-20.17c-.95,0-1.71-.79-1.66-1.75.19-3.45.44-11.16.44-23.49ZM93.87,42.86c0-7.23-2.23-13.27-6.87-17.1-1.07-.89-2.7-.09-2.7,1.3v31.36c0,1.38,1.61,2.19,2.68,1.31,4.31-3.54,6.89-9.08,6.89-16.88Z"/>
        <path class="cls-2" d="M123.51,75.29v-32.54c0-12.33-.24-20.04-.44-23.49-.05-.95.7-1.75,1.66-1.75h20.26c.95,0,1.71.79,1.66,1.75-.19,3.45-.44,11.16-.44,23.49v30.87c0,3.21,1.03,4.43,2.44,4.43,2.34,0,4.43-3.27,6-6.28.12-.24.19-.5.19-.77v-28.25c0-12.33-.24-20.04-.44-23.49-.05-.95.7-1.75,1.66-1.75h20.26c.95,0,1.71.79,1.66,1.75-.19,3.45-.44,11.16-.44,23.49v32.65c0,7.81.39,12.64,1.11,16.15.21,1.03-.57,2-1.62,2h-18.47c-.8,0-1.49-.56-1.63-1.35-.27-1.52-.5-3.13-.68-4.76s-2.23-2.02-3.05-.67c-3.04,4.96-7.59,9.1-14.39,9.1-9.19,0-15.29-7.3-15.29-20.58Z"/>
        <path class="cls-2" d="M184.1,54.48c0-22.91,11.26-39.17,27.49-39.17,13.29,0,24.19,11.04,28.25,28.56.21.9-.38,1.8-1.29,1.99l-20.19,4.16c-.96.2-1.88-.48-1.98-1.46-1.39-12.94-5.13-23.84-8.26-23.84-1.97,0-3,4.32-3,11.84,0,21.8,8.63,41.61,17.64,41.61,4.46,0,7.04-4.7,7.37-14.92.04-1.14,1.18-1.91,2.24-1.51l6.18,2.33c.74.28,1.19,1.06,1.05,1.84-3.27,18.36-13.42,29.85-26.79,29.85-16.42,0-28.71-17.37-28.71-41.28Z"/>
        <path class="cls-2" d="M245.45,68.31v-25.56c0-12.45-.25-20.2-.44-23.59-.05-.91.64-1.69,1.55-1.74,6.79-.39,16.52-.67,20.84-.67,22.8,0,33.12,7.75,33.12,21.25,0,10.24-5.97,17.43-15.8,22.15-1.43.69-1.2,2.79.35,3.12,7.79,1.63,11.06,5.97,12.73,13.13l3.55,15.11c.25,1.04-.55,2.04-1.62,2.04h-20.62c-.86,0-1.57-.66-1.65-1.52-.13-1.52-.43-3.23-.77-5.12l-1.03-5.2c-1.88-9.41-3-12.06-6.28-12.06h-1.31v.33c0,11.35.24,18.51.43,21.82.06.95-.7,1.75-1.66,1.75h-20.17c-.95,0-1.71-.79-1.66-1.75.19-3.45.44-11.16.44-23.49ZM277.44,42.86c0-7.23-2.23-13.27-6.87-17.1-1.07-.89-2.7-.09-2.7,1.3v31.36c0,1.38,1.61,2.19,2.68,1.31,4.31-3.54,6.89-9.08,6.89-16.87Z"/>
        <path class="cls-2" d="M301.73,91.89c0-11.29,5.35-30.54,14.16-55.44l6.46-18.15c.24-.66.86-1.1,1.56-1.1h15.13c.73,0,1.38.48,1.59,1.18l21.81,73.04c.32,1.06-.48,2.13-1.59,2.13h-21.94c-.83,0-1.54-.61-1.64-1.43-.34-2.67-1.48-7.57-3.6-15.8-.19-.73-.85-1.25-1.61-1.25h-8.58c-1.11,0-1.9,1.06-1.6,2.13,1.4,4.96,3.56,9.51,6.46,13.74.76,1.11-.01,2.61-1.35,2.61h-23.59c-.92,0-1.66-.74-1.66-1.66h0ZM321.51,64.88h6.95c1.09,0,1.89-1.03,1.6-2.09l-6.19-23.14-.28.77c-2.91,7.86-3.75,14.72-3.75,21.03,0,.59,0,1.21.01,1.83.02.9.76,1.61,1.66,1.61Z"/>
        <path class="cls-2" d="M365.99,68.31v-25.56c0-12.33-.24-20.04-.44-23.49-.05-.95.7-1.75,1.66-1.75h41.01c.76,0,1.43.52,1.61,1.26l2.19,8.85c.28,1.14-.68,2.2-1.85,2.03-6.55-.93-13.01-1.56-19.64-1.88-.95-.05-1.75.72-1.75,1.67v25.29c0,.95.79,1.7,1.74,1.66l15.22-.71c1.07-.05,1.9.91,1.71,1.96l-1.59,8.69c-.16.87-.97,1.45-1.84,1.34-4.58-.57-9.1-.94-13.5-1.16-.95-.05-1.73.71-1.73,1.66v.14c0,12.33.24,20.04.44,23.49.05.95-.7,1.75-1.66,1.75h-20.36c-.95,0-1.71-.79-1.66-1.75.19-3.45.44-11.16.44-23.49Z"/>
        <path class="cls-2" d="M418.41,17.52h48.34c.76,0,1.43.52,1.61,1.26l2.17,8.77c.29,1.17-.72,2.23-1.9,2.03-4.45-.76-8.77-1.33-12.85-1.72-.97-.09-1.8.68-1.8,1.66v38.8c0,12.33.24,20.04.44,23.49.05.95-.7,1.75-1.66,1.75h-20.36c-.95,0-1.71-.79-1.66-1.75.19-3.45.44-11.16.44-23.49V29.52c0-.98-.83-1.75-1.8-1.66-4.08.39-8.4.96-12.85,1.72-1.18.2-2.19-.87-1.9-2.03l2.17-8.77c.18-.74.85-1.26,1.61-1.26Z"/>
      </g>
    </g>
  </g>
</svg>