<?xml version="1.0" encoding="UTF-8"?>
<svg id="Layer_2" data-name="Layer 2" xmlns="http://www.w3.org/2000/svg" viewBox="0 0 478.46 111.18">
  <defs>
    <style>
      .cls-1 {
        fill: none;
      }

      .cls-2 {
        fill: #4f46e5;
      }
    </style>
  </defs>
  <g id="Layer_1-2" data-name="Layer 1">
    <g>
      <rect class="cls-1" width="478.46" height="111.18"/>
      <g>
        <path class="cls-2" d="M16.18,67.98v-24.89c0-12-.24-19.51-.43-22.87-.05-.93.69-1.7,1.61-1.7h19.81c.93,0,1.67.78,1.61,1.71-.21,3.36-.51,10.87-.51,22.86v11.2c0,1.5,1.9,2.21,2.85,1.05,4.59-5.61,7.11-12.51,7.11-19.57,0-5.06-1.33-10.12-3.88-14.84-.58-1.08.18-2.4,1.41-2.4h21.69c.83,0,1.52.62,1.61,1.44.17,1.47.27,2.97.27,4.59,0,11.98-5.86,22.41-19.56,33.22-1.2.95-.53,2.88,1,2.88h2.12c7.22,0,11.88,4.42,13.98,13.47l3.83,16.44c.24,1.01-.53,1.98-1.57,1.98h-20.11c-.83,0-1.52-.63-1.61-1.46-.21-2.01-.81-5.67-2.19-12.12-1.83-8.51-2.92-10.88-5.94-10.88h-1v.86c0,11.2.3,18.55.51,21.89.06.93-.68,1.71-1.61,1.71h-19.81c-.93,0-1.67-.77-1.61-1.7.19-3.36.43-10.87.43-22.87Z"/>
        <path class="cls-2" d="M76.01,67.98v-24.89c0-12.13-.24-19.67-.43-22.97-.05-.89.62-1.65,1.51-1.7,6.61-.38,16.09-.65,20.29-.65,22.2,0,32.25,7.54,32.25,20.69,0,9.97-5.82,16.97-15.39,21.57-1.4.67-1.17,2.72.35,3.04,7.59,1.59,10.77,5.81,12.39,12.79l3.46,14.72c.24,1.01-.53,1.99-1.57,1.99h-20.08c-.84,0-1.53-.64-1.6-1.48-.13-1.48-.41-3.15-.75-4.99l-1.01-5.07c-1.83-9.16-2.92-11.75-6.12-11.75h-1.28v.32c0,11.06.23,18.03.42,21.25.05.93-.68,1.71-1.61,1.71h-19.64c-.93,0-1.67-.77-1.61-1.7.19-3.36.43-10.87.43-22.87ZM107.15,43.2c0-7.04-2.17-12.92-6.69-16.65-1.04-.86-2.63-.09-2.63,1.27v30.54c0,1.35,1.57,2.13,2.61,1.28,4.2-3.45,6.71-8.84,6.71-16.43Z"/>
        <path class="cls-2" d="M136.01,74.77v-31.68c0-12-.24-19.51-.43-22.87-.05-.93.69-1.7,1.61-1.7h19.73c.93,0,1.67.77,1.61,1.7-.19,3.36-.43,10.87-.43,22.87v30.06c0,3.13,1,4.31,2.37,4.31,2.28,0,4.31-3.19,5.85-6.11.12-.23.18-.49.18-.75v-27.51c0-12-.24-19.51-.43-22.87-.05-.93.69-1.7,1.61-1.7h19.73c.93,0,1.67.77,1.61,1.7-.19,3.36-.43,10.87-.43,22.87v31.79c0,7.6.38,12.31,1.08,15.73.21,1.01-.55,1.95-1.58,1.95h-17.99c-.78,0-1.45-.55-1.59-1.31-.27-1.48-.49-3.05-.67-4.63s-2.17-1.97-2.97-.66c-2.96,4.83-7.39,8.86-14.01,8.86-8.95,0-14.89-7.11-14.89-20.04Z"/>
        <path class="cls-2" d="M195.02,54.51c0-22.31,10.96-38.15,26.76-38.15,12.94,0,23.55,10.75,27.51,27.81.2.88-.37,1.75-1.26,1.93l-19.66,4.05c-.94.19-1.83-.47-1.93-1.42-1.35-12.6-4.99-23.21-8.05-23.21-1.92,0-2.92,4.2-2.92,11.53,0,21.23,8.4,40.52,17.17,40.52,4.34,0,6.86-4.58,7.18-14.53.04-1.11,1.15-1.86,2.18-1.47l6.01,2.27c.72.27,1.16,1.03,1.03,1.79-3.18,17.87-13.07,29.07-26.09,29.07-15.99,0-27.95-16.92-27.95-40.19Z"/>
        <path class="cls-2" d="M254.76,67.98v-24.89c0-12.13-.24-19.67-.43-22.97-.05-.89.62-1.65,1.51-1.7,6.61-.38,16.09-.65,20.29-.65,22.2,0,32.25,7.54,32.25,20.69,0,9.97-5.82,16.97-15.39,21.57-1.4.67-1.17,2.72.35,3.04,7.59,1.59,10.77,5.81,12.39,12.79l3.46,14.72c.24,1.01-.53,1.99-1.57,1.99h-20.08c-.84,0-1.53-.64-1.6-1.48-.13-1.48-.41-3.15-.75-4.99l-1-5.07c-1.83-9.16-2.92-11.75-6.12-11.75h-1.28v.32c0,11.06.23,18.03.42,21.25.05.93-.68,1.71-1.61,1.71h-19.64c-.93,0-1.67-.77-1.61-1.7.19-3.36.43-10.87.43-22.87ZM285.91,43.2c0-7.04-2.17-12.92-6.69-16.65-1.04-.86-2.63-.09-2.63,1.27v30.54c0,1.35,1.57,2.13,2.61,1.28,4.2-3.45,6.71-8.84,6.71-16.43Z"/>
        <path class="cls-2" d="M309.56,90.93c0-10.99,5.21-29.74,13.79-53.99l6.29-17.67c.23-.64.84-1.07,1.52-1.07h14.74c.71,0,1.34.47,1.55,1.15l21.23,71.12c.31,1.04-.47,2.08-1.55,2.08h-21.37c-.81,0-1.5-.59-1.6-1.39-.33-2.6-1.44-7.37-3.51-15.38-.18-.71-.83-1.22-1.57-1.22h-8.35c-1.08,0-1.85,1.03-1.56,2.07,1.36,4.83,3.47,9.26,6.29,13.38.74,1.08-.01,2.54-1.32,2.54h-22.97c-.89,0-1.62-.72-1.62-1.62h0ZM328.82,64.64h6.77c1.06,0,1.84-1.01,1.56-2.03l-6.03-22.53-.27.75c-2.83,7.65-3.65,14.33-3.65,20.47,0,.57,0,1.18.01,1.78.02.87.74,1.56,1.62,1.56Z"/>
        <path class="cls-2" d="M372.13,67.98v-24.89c0-12-.24-19.51-.43-22.87-.05-.93.69-1.7,1.61-1.7h39.93c.74,0,1.39.51,1.57,1.23l2.13,8.62c.28,1.11-.67,2.14-1.8,1.98-6.38-.91-12.67-1.52-19.12-1.84-.92-.05-1.7.7-1.7,1.62v24.62c0,.92.77,1.66,1.69,1.61l14.82-.69c1.04-.05,1.85.88,1.66,1.91l-1.55,8.46c-.15.84-.94,1.41-1.79,1.31-4.46-.56-8.86-.92-13.14-1.13-.92-.05-1.69.7-1.69,1.62v.14c0,12,.24,19.51.43,22.87.05.93-.69,1.7-1.61,1.7h-19.82c-.93,0-1.67-.77-1.61-1.7.19-3.36.43-10.87.43-22.87Z"/>
        <path class="cls-2" d="M423.17,18.52h47.07c.74,0,1.39.51,1.57,1.23l2.11,8.53c.28,1.14-.7,2.18-1.85,1.98-4.33-.74-8.54-1.3-12.51-1.67-.95-.09-1.76.66-1.76,1.61v37.78c0,12,.24,19.51.43,22.87.05.93-.69,1.7-1.61,1.7h-19.82c-.93,0-1.67-.77-1.61-1.7.19-3.36.43-10.87.43-22.87V30.2c0-.95-.81-1.7-1.76-1.61-3.97.38-8.18.93-12.51,1.67-1.15.2-2.13-.84-1.85-1.98l2.11-8.53c.18-.72.83-1.23,1.57-1.23Z"/>
      </g>
    </g>
  </g>
</svg>